<?xml version="1.0" encoding="UTF-8" standalone="no"?>
<!-- Created with Inkscape (http://www.inkscape.org/) -->

<svg
   width="64.348907mm"
   height="27.061396mm"
   viewBox="0 0 64.348908 27.061396"
   version="1.1"
   id="svg132798"
   sodipodi:docname="100Mb.svg"
   inkscape:version="1.1 (c68e22c387, 2021-05-23)"
   xmlns:inkscape="http://www.inkscape.org/namespaces/inkscape"
   xmlns:sodipodi="http://sodipodi.sourceforge.net/DTD/sodipodi-0.dtd"
   xmlns="http://www.w3.org/2000/svg"
   xmlns:svg="http://www.w3.org/2000/svg">
  <sodipodi:namedview
     id="namedview132800"
     pagecolor="#ffffff"
     bordercolor="#666666"
     borderopacity="1.0"
     inkscape:pageshadow="2"
     inkscape:pageopacity="0.0"
     inkscape:pagecheckerboard="0"
     inkscape:document-units="mm"
     showgrid="false"
     inkscape:zoom="0.69397447"
     inkscape:cx="-176.51946"
     inkscape:cy="149.14093"
     inkscape:window-width="1920"
     inkscape:window-height="1009"
     inkscape:window-x="-8"
     inkscape:window-y="-8"
     inkscape:window-maximized="1"
     inkscape:current-layer="layer1"
     fit-margin-top="0"
     fit-margin-left="0"
     fit-margin-right="0"
     fit-margin-bottom="0" />
  <defs
     id="defs132795" />
  <g
     inkscape:label="Capa 1"
     inkscape:groupmode="layer"
     id="layer1"
     transform="translate(107.55571,-140.26327)">
    <g
       id="g69579"
       transform="matrix(0,0.78075251,0.78075251,0,-205.93845,71.510355)"
       style="fill:#6fc9eb;fill-opacity:1;stroke:#ffffff;stroke-width:1.31385;stroke-miterlimit:4;stroke-dasharray:none;stroke-opacity:1"
       inkscape:export-filename="C:\Users\WinnerPC18\Desktop\plan3mb.png"
       inkscape:export-xdpi="300"
       inkscape:export-ydpi="300">
      <g
         id="g69547"
         style="fill:#6fc9eb;fill-opacity:1;stroke:#ffffff;stroke-width:1.31385;stroke-miterlimit:4;stroke-dasharray:none;stroke-opacity:1">
        <g
           id="path69545" />
      </g>
      <g
         id="g69549"
         style="fill:#6fc9eb;fill-opacity:1;stroke:#ffffff;stroke-width:1.31385;stroke-miterlimit:4;stroke-dasharray:none;stroke-opacity:1" />
      <g
         id="g69551"
         style="fill:#6fc9eb;fill-opacity:1;stroke:#ffffff;stroke-width:1.31385;stroke-miterlimit:4;stroke-dasharray:none;stroke-opacity:1" />
      <g
         id="g69553"
         style="fill:#6fc9eb;fill-opacity:1;stroke:#ffffff;stroke-width:1.31385;stroke-miterlimit:4;stroke-dasharray:none;stroke-opacity:1" />
      <g
         id="g69555"
         style="fill:#6fc9eb;fill-opacity:1;stroke:#ffffff;stroke-width:1.31385;stroke-miterlimit:4;stroke-dasharray:none;stroke-opacity:1" />
      <g
         id="g69557"
         style="fill:#6fc9eb;fill-opacity:1;stroke:#ffffff;stroke-width:1.31385;stroke-miterlimit:4;stroke-dasharray:none;stroke-opacity:1" />
      <g
         id="g69559"
         style="fill:#6fc9eb;fill-opacity:1;stroke:#ffffff;stroke-width:1.31385;stroke-miterlimit:4;stroke-dasharray:none;stroke-opacity:1" />
      <g
         id="g69561"
         style="fill:#6fc9eb;fill-opacity:1;stroke:#ffffff;stroke-width:1.31385;stroke-miterlimit:4;stroke-dasharray:none;stroke-opacity:1" />
      <g
         id="g69563"
         style="fill:#6fc9eb;fill-opacity:1;stroke:#ffffff;stroke-width:1.31385;stroke-miterlimit:4;stroke-dasharray:none;stroke-opacity:1" />
      <g
         id="g69565"
         style="fill:#6fc9eb;fill-opacity:1;stroke:#ffffff;stroke-width:1.31385;stroke-miterlimit:4;stroke-dasharray:none;stroke-opacity:1" />
      <g
         id="g69567"
         style="fill:#6fc9eb;fill-opacity:1;stroke:#ffffff;stroke-width:1.31385;stroke-miterlimit:4;stroke-dasharray:none;stroke-opacity:1" />
      <g
         id="g69569"
         style="fill:#6fc9eb;fill-opacity:1;stroke:#ffffff;stroke-width:1.31385;stroke-miterlimit:4;stroke-dasharray:none;stroke-opacity:1" />
      <g
         id="g69571"
         style="fill:#6fc9eb;fill-opacity:1;stroke:#ffffff;stroke-width:1.31385;stroke-miterlimit:4;stroke-dasharray:none;stroke-opacity:1" />
      <g
         id="g69573"
         style="fill:#6fc9eb;fill-opacity:1;stroke:#ffffff;stroke-width:1.31385;stroke-miterlimit:4;stroke-dasharray:none;stroke-opacity:1" />
      <g
         id="g69575"
         style="fill:#6fc9eb;fill-opacity:1;stroke:#ffffff;stroke-width:1.31385;stroke-miterlimit:4;stroke-dasharray:none;stroke-opacity:1" />
      <g
         id="g69577"
         style="fill:#6fc9eb;fill-opacity:1;stroke:#ffffff;stroke-width:1.31385;stroke-miterlimit:4;stroke-dasharray:none;stroke-opacity:1" />
    </g>
    <g
       id="g69615"
       transform="matrix(0,0.76407086,0.76407086,0,-205.11725,73.183554)"
       style="fill:#323070;fill-opacity:1"
       inkscape:export-filename="C:\Users\WinnerPC18\Desktop\plan3mb.png"
       inkscape:export-xdpi="300"
       inkscape:export-ydpi="300">
      <g
         id="g69583"
         style="fill:#323070;fill-opacity:1" />
      <g
         id="g69585"
         style="fill:#323070;fill-opacity:1" />
      <g
         id="g69587"
         style="fill:#323070;fill-opacity:1" />
      <g
         id="g69589"
         style="fill:#323070;fill-opacity:1" />
      <g
         id="g69591"
         style="fill:#323070;fill-opacity:1" />
      <g
         id="g69593"
         style="fill:#323070;fill-opacity:1" />
      <g
         id="g69595"
         style="fill:#323070;fill-opacity:1" />
      <g
         id="g69597"
         style="fill:#323070;fill-opacity:1" />
      <g
         id="g69599"
         style="fill:#323070;fill-opacity:1" />
      <g
         id="g69601"
         style="fill:#323070;fill-opacity:1" />
      <g
         id="g69603"
         style="fill:#323070;fill-opacity:1" />
      <g
         id="g69605"
         style="fill:#323070;fill-opacity:1" />
      <g
         id="g69607"
         style="fill:#323070;fill-opacity:1" />
      <g
         id="g69609"
         style="fill:#323070;fill-opacity:1" />
      <g
         id="g69611"
         style="fill:#323070;fill-opacity:1" />
      <g
         id="g69613"
         style="fill:#323070;fill-opacity:1" />
    </g>
    <g
       id="g69655"
       transform="matrix(0,-0.41348773,0.41348773,0,-163.65149,194.5037)"
       style="fill:#009fdb;fill-opacity:1"
       inkscape:export-filename="C:\Users\WinnerPC18\Desktop\plan3mb.png"
       inkscape:export-xdpi="300"
       inkscape:export-ydpi="300">
      <g
         id="g69623"
         style="fill:#009fdb;fill-opacity:1" />
      <g
         id="g69625"
         style="fill:#009fdb;fill-opacity:1" />
      <g
         id="g69627"
         style="fill:#009fdb;fill-opacity:1" />
      <g
         id="g69629"
         style="fill:#009fdb;fill-opacity:1" />
      <g
         id="g69631"
         style="fill:#009fdb;fill-opacity:1" />
      <g
         id="g69633"
         style="fill:#009fdb;fill-opacity:1" />
      <g
         id="g69635"
         style="fill:#009fdb;fill-opacity:1" />
      <g
         id="g69637"
         style="fill:#009fdb;fill-opacity:1" />
      <g
         id="g69639"
         style="fill:#009fdb;fill-opacity:1" />
      <g
         id="g69641"
         style="fill:#009fdb;fill-opacity:1" />
      <g
         id="g69643"
         style="fill:#009fdb;fill-opacity:1" />
      <g
         id="g69645"
         style="fill:#009fdb;fill-opacity:1" />
      <g
         id="g69647"
         style="fill:#009fdb;fill-opacity:1" />
      <g
         id="g69649"
         style="fill:#009fdb;fill-opacity:1" />
      <g
         id="g69651"
         style="fill:#009fdb;fill-opacity:1" />
      <g
         id="g69653"
         style="fill:#009fdb;fill-opacity:1" />
    </g>
    <g
       id="g79696"
       transform="matrix(0,0.78075251,0.78075251,0,-292.44955,71.53579)"
       style="fill:#6fc9eb;fill-opacity:1;stroke:#ffffff;stroke-width:1.31385;stroke-miterlimit:4;stroke-dasharray:none;stroke-opacity:1"
       inkscape:export-filename="C:\Users\WinnerPC18\Desktop\plan3mb.png"
       inkscape:export-xdpi="300"
       inkscape:export-ydpi="300">
      <g
         id="g79664"
         style="fill:#6fc9eb;fill-opacity:1;stroke:#ffffff;stroke-width:1.31385;stroke-miterlimit:4;stroke-dasharray:none;stroke-opacity:1">
        <g
           id="path79662" />
      </g>
      <g
         id="g79666"
         style="fill:#6fc9eb;fill-opacity:1;stroke:#ffffff;stroke-width:1.31385;stroke-miterlimit:4;stroke-dasharray:none;stroke-opacity:1" />
      <g
         id="g79668"
         style="fill:#6fc9eb;fill-opacity:1;stroke:#ffffff;stroke-width:1.31385;stroke-miterlimit:4;stroke-dasharray:none;stroke-opacity:1" />
      <g
         id="g79670"
         style="fill:#6fc9eb;fill-opacity:1;stroke:#ffffff;stroke-width:1.31385;stroke-miterlimit:4;stroke-dasharray:none;stroke-opacity:1" />
      <g
         id="g79672"
         style="fill:#6fc9eb;fill-opacity:1;stroke:#ffffff;stroke-width:1.31385;stroke-miterlimit:4;stroke-dasharray:none;stroke-opacity:1" />
      <g
         id="g79674"
         style="fill:#6fc9eb;fill-opacity:1;stroke:#ffffff;stroke-width:1.31385;stroke-miterlimit:4;stroke-dasharray:none;stroke-opacity:1" />
      <g
         id="g79676"
         style="fill:#6fc9eb;fill-opacity:1;stroke:#ffffff;stroke-width:1.31385;stroke-miterlimit:4;stroke-dasharray:none;stroke-opacity:1" />
      <g
         id="g79678"
         style="fill:#6fc9eb;fill-opacity:1;stroke:#ffffff;stroke-width:1.31385;stroke-miterlimit:4;stroke-dasharray:none;stroke-opacity:1" />
      <g
         id="g79680"
         style="fill:#6fc9eb;fill-opacity:1;stroke:#ffffff;stroke-width:1.31385;stroke-miterlimit:4;stroke-dasharray:none;stroke-opacity:1" />
      <g
         id="g79682"
         style="fill:#6fc9eb;fill-opacity:1;stroke:#ffffff;stroke-width:1.31385;stroke-miterlimit:4;stroke-dasharray:none;stroke-opacity:1" />
      <g
         id="g79684"
         style="fill:#6fc9eb;fill-opacity:1;stroke:#ffffff;stroke-width:1.31385;stroke-miterlimit:4;stroke-dasharray:none;stroke-opacity:1" />
      <g
         id="g79686"
         style="fill:#6fc9eb;fill-opacity:1;stroke:#ffffff;stroke-width:1.31385;stroke-miterlimit:4;stroke-dasharray:none;stroke-opacity:1" />
      <g
         id="g79688"
         style="fill:#6fc9eb;fill-opacity:1;stroke:#ffffff;stroke-width:1.31385;stroke-miterlimit:4;stroke-dasharray:none;stroke-opacity:1" />
      <g
         id="g79690"
         style="fill:#6fc9eb;fill-opacity:1;stroke:#ffffff;stroke-width:1.31385;stroke-miterlimit:4;stroke-dasharray:none;stroke-opacity:1" />
      <g
         id="g79692"
         style="fill:#6fc9eb;fill-opacity:1;stroke:#ffffff;stroke-width:1.31385;stroke-miterlimit:4;stroke-dasharray:none;stroke-opacity:1" />
      <g
         id="g79694"
         style="fill:#6fc9eb;fill-opacity:1;stroke:#ffffff;stroke-width:1.31385;stroke-miterlimit:4;stroke-dasharray:none;stroke-opacity:1" />
    </g>
    <g
       id="g79732"
       transform="matrix(0,0.76407086,0.76407086,0,-291.62835,73.208989)"
       style="fill:#323070;fill-opacity:1"
       inkscape:export-filename="C:\Users\WinnerPC18\Desktop\plan3mb.png"
       inkscape:export-xdpi="300"
       inkscape:export-ydpi="300">
      <g
         id="g79700"
         style="fill:#323070;fill-opacity:1" />
      <g
         id="g79702"
         style="fill:#323070;fill-opacity:1" />
      <g
         id="g79704"
         style="fill:#323070;fill-opacity:1" />
      <g
         id="g79706"
         style="fill:#323070;fill-opacity:1" />
      <g
         id="g79708"
         style="fill:#323070;fill-opacity:1" />
      <g
         id="g79710"
         style="fill:#323070;fill-opacity:1" />
      <g
         id="g79712"
         style="fill:#323070;fill-opacity:1" />
      <g
         id="g79714"
         style="fill:#323070;fill-opacity:1" />
      <g
         id="g79716"
         style="fill:#323070;fill-opacity:1" />
      <g
         id="g79718"
         style="fill:#323070;fill-opacity:1" />
      <g
         id="g79720"
         style="fill:#323070;fill-opacity:1" />
      <g
         id="g79722"
         style="fill:#323070;fill-opacity:1" />
      <g
         id="g79724"
         style="fill:#323070;fill-opacity:1" />
      <g
         id="g79726"
         style="fill:#323070;fill-opacity:1" />
      <g
         id="g79728"
         style="fill:#323070;fill-opacity:1" />
      <g
         id="g79730"
         style="fill:#323070;fill-opacity:1" />
    </g>
    <g
       id="g79772"
       transform="matrix(0,-0.41348773,0.41348773,0,-254.42005,194.52913)"
       style="fill:#009fdb;fill-opacity:1;stroke:#ffffff;stroke-width:2.07839;stroke-miterlimit:4;stroke-dasharray:none;stroke-opacity:1"
       inkscape:export-filename="C:\Users\WinnerPC18\Desktop\plan3mb.png"
       inkscape:export-xdpi="300"
       inkscape:export-ydpi="300">
      <g
         id="g79740"
         style="fill:#009fdb;fill-opacity:1;stroke:#ffffff;stroke-width:2.07839;stroke-miterlimit:4;stroke-dasharray:none;stroke-opacity:1" />
      <g
         id="g79742"
         style="fill:#009fdb;fill-opacity:1;stroke:#ffffff;stroke-width:2.07839;stroke-miterlimit:4;stroke-dasharray:none;stroke-opacity:1" />
      <g
         id="g79744"
         style="fill:#009fdb;fill-opacity:1;stroke:#ffffff;stroke-width:2.07839;stroke-miterlimit:4;stroke-dasharray:none;stroke-opacity:1" />
      <g
         id="g79746"
         style="fill:#009fdb;fill-opacity:1;stroke:#ffffff;stroke-width:2.07839;stroke-miterlimit:4;stroke-dasharray:none;stroke-opacity:1" />
      <g
         id="g79748"
         style="fill:#009fdb;fill-opacity:1;stroke:#ffffff;stroke-width:2.07839;stroke-miterlimit:4;stroke-dasharray:none;stroke-opacity:1" />
      <g
         id="g79750"
         style="fill:#009fdb;fill-opacity:1;stroke:#ffffff;stroke-width:2.07839;stroke-miterlimit:4;stroke-dasharray:none;stroke-opacity:1" />
      <g
         id="g79752"
         style="fill:#009fdb;fill-opacity:1;stroke:#ffffff;stroke-width:2.07839;stroke-miterlimit:4;stroke-dasharray:none;stroke-opacity:1" />
      <g
         id="g79754"
         style="fill:#009fdb;fill-opacity:1;stroke:#ffffff;stroke-width:2.07839;stroke-miterlimit:4;stroke-dasharray:none;stroke-opacity:1" />
      <g
         id="g79756"
         style="fill:#009fdb;fill-opacity:1;stroke:#ffffff;stroke-width:2.07839;stroke-miterlimit:4;stroke-dasharray:none;stroke-opacity:1" />
      <g
         id="g79758"
         style="fill:#009fdb;fill-opacity:1;stroke:#ffffff;stroke-width:2.07839;stroke-miterlimit:4;stroke-dasharray:none;stroke-opacity:1" />
      <g
         id="g79760"
         style="fill:#009fdb;fill-opacity:1;stroke:#ffffff;stroke-width:2.07839;stroke-miterlimit:4;stroke-dasharray:none;stroke-opacity:1" />
      <g
         id="g79762"
         style="fill:#009fdb;fill-opacity:1;stroke:#ffffff;stroke-width:2.07839;stroke-miterlimit:4;stroke-dasharray:none;stroke-opacity:1" />
      <g
         id="g79764"
         style="fill:#009fdb;fill-opacity:1;stroke:#ffffff;stroke-width:2.07839;stroke-miterlimit:4;stroke-dasharray:none;stroke-opacity:1" />
      <g
         id="g79766"
         style="fill:#009fdb;fill-opacity:1;stroke:#ffffff;stroke-width:2.07839;stroke-miterlimit:4;stroke-dasharray:none;stroke-opacity:1" />
      <g
         id="g79768"
         style="fill:#009fdb;fill-opacity:1;stroke:#ffffff;stroke-width:2.07839;stroke-miterlimit:4;stroke-dasharray:none;stroke-opacity:1" />
      <g
         id="g79770"
         style="fill:#009fdb;fill-opacity:1;stroke:#ffffff;stroke-width:2.07839;stroke-miterlimit:4;stroke-dasharray:none;stroke-opacity:1" />
    </g>
    <g
       id="g79808"
       transform="matrix(0,-0.41348773,0.41348773,0,-254.42005,194.52913)"
       style="fill:#009fdb;fill-opacity:1"
       inkscape:export-filename="C:\Users\WinnerPC18\Desktop\plan3mb.png"
       inkscape:export-xdpi="300"
       inkscape:export-ydpi="300">
      <g
         id="g79776"
         style="fill:#009fdb;fill-opacity:1" />
      <g
         id="g79778"
         style="fill:#009fdb;fill-opacity:1" />
      <g
         id="g79780"
         style="fill:#009fdb;fill-opacity:1" />
      <g
         id="g79782"
         style="fill:#009fdb;fill-opacity:1" />
      <g
         id="g79784"
         style="fill:#009fdb;fill-opacity:1" />
      <g
         id="g79786"
         style="fill:#009fdb;fill-opacity:1" />
      <g
         id="g79788"
         style="fill:#009fdb;fill-opacity:1" />
      <g
         id="g79790"
         style="fill:#009fdb;fill-opacity:1" />
      <g
         id="g79792"
         style="fill:#009fdb;fill-opacity:1" />
      <g
         id="g79794"
         style="fill:#009fdb;fill-opacity:1" />
      <g
         id="g79796"
         style="fill:#009fdb;fill-opacity:1" />
      <g
         id="g79798"
         style="fill:#009fdb;fill-opacity:1" />
      <g
         id="g79800"
         style="fill:#009fdb;fill-opacity:1" />
      <g
         id="g79802"
         style="fill:#009fdb;fill-opacity:1" />
      <g
         id="g79804"
         style="fill:#009fdb;fill-opacity:1" />
      <g
         id="g79806"
         style="fill:#009fdb;fill-opacity:1" />
    </g>
    <path
       id="text86232"
       style="font-style:normal;font-variant:normal;font-weight:900;font-stretch:normal;font-size:22.679px;line-height:1.25;font-family:Montserrat;-inkscape-font-specification:'Montserrat Heavy';text-align:end;letter-spacing:-0.759354px;word-spacing:0px;text-anchor:end;fill:#ffffff;fill-opacity:1;stroke:none;stroke-width:1.91233"
       d="m -404.25391,530.12891 -1.67187,8.77148 h 2.8164 l 0.6211,-3.23242 h 2.60156 l -0.62109,3.23242 h 2.8164 l 1.66993,-8.77148 h -2.81641 l -0.5957,3.10742 h -2.60157 l 0.59571,-3.10742 z m 24.83203,0.37695 -0.36914,1.91602 h -0.89453 l -0.39453,2.06835 h 0.90625 l -0.33398,1.72852 c -0.0477,0.23391 -0.0723,0.46053 -0.0723,0.67773 0,0.67669 0.21117,1.2022 0.63281,1.57813 0.4296,0.36758 1.01404,0.55078 1.75391,0.55078 0.716,0 1.30616,-0.13306 1.76758,-0.40039 l -0.31055,-1.9043 c -0.22275,0.10861 -0.42263,0.16211 -0.59765,0.16211 -0.33414,0 -0.5,-0.1591 -0.5,-0.47656 0,-0.0334 0.008,-0.099 0.0234,-0.19922 l 0.32227,-1.7168 h 1.33594 l 0.39453,-2.06835 h -1.33594 l 0.36914,-1.91602 z m -13.22265,1.41602 c -0.62054,-10e-6 -1.19745,0.17115 -1.73047,0.51367 -0.53302,0.34251 -0.95717,0.81452 -1.27539,1.41601 -0.31027,0.6015 -0.4668,1.26875 -0.4668,2.00391 0,0.65162 0.12824,1.22054 0.38281,1.70508 0.26254,0.47618 0.59999,0.83922 1.01368,1.08984 0.41369,0.25062 0.84355,0.375 1.28906,0.375 0.68418,0 1.27238,-0.25071 1.76562,-0.75195 l -0.11914,0.62695 h 2.54297 l 1.30078,-6.85351 h -2.69726 l -0.14258,0.72656 c -0.36596,-0.56808 -0.98817,-0.85156 -1.86328,-0.85156 z m 8.82031,0 c -1.08196,0 -1.96621,0.22129 -2.65039,0.66406 -0.68418,0.44276 -1.02539,1.08592 -1.02539,1.92968 0,0.46783 0.12252,0.83424 0.36914,1.10157 0.24662,0.25897 0.5332,0.44413 0.85938,0.55273 0.32617,0.10025 0.72398,0.18653 1.19336,0.26172 0.30231,0.0418 0.521,0.0885 0.65624,0.13867 0.14321,0.0418 0.21485,0.10733 0.21485,0.19922 0,0.21721 -0.26581,0.32617 -0.79883,0.32617 -0.38187,0 -0.77967,-0.0535 -1.19336,-0.16211 -0.40573,-0.1086 -0.76395,-0.26239 -1.07422,-0.46289 l -0.93164,1.92969 c 0.29436,0.18379 0.7054,0.33422 1.23047,0.45117 0.52507,0.11696 1.06992,0.17383 1.63477,0.17383 0.68417,0 1.30067,-0.095 1.84961,-0.28711 0.55689,-0.19214 0.99427,-0.48095 1.3125,-0.86523 0.32617,-0.39265 0.48828,-0.86465 0.48828,-1.41602 0,-0.45947 -0.12252,-0.81915 -0.36914,-1.07812 -0.23867,-0.26733 -0.52148,-0.45054 -0.84766,-0.55079 -0.31822,-0.1086 -0.7085,-0.2002 -1.16992,-0.27539 -0.32618,-0.0585 -0.55616,-0.10862 -0.69141,-0.15039 -0.13524,-0.0501 -0.20312,-0.12099 -0.20312,-0.21289 0,-0.0919 0.0641,-0.17145 0.1914,-0.23828 0.13525,-0.0668 0.34642,-0.0996 0.63282,-0.0996 0.73191,0 1.38046,0.17116 1.94531,0.51367 l 0.92969,-1.92968 c -0.34209,-0.16708 -0.73613,-0.29342 -1.18164,-0.37696 -0.43756,-0.0919 -0.89376,-0.13671 -1.3711,-0.13671 z m 11.58594,0 c -0.62054,-10e-6 -1.19745,0.17115 -1.73047,0.51367 -0.53302,0.34251 -0.95717,0.81452 -1.27539,1.41601 -0.31027,0.6015 -0.4668,1.26875 -0.4668,2.00391 0,0.65162 0.12824,1.22054 0.38282,1.70508 0.26253,0.47618 0.59998,0.83922 1.01367,1.08984 0.41369,0.25062 0.84355,0.375 1.28906,0.375 0.68418,0 1.27238,-0.25071 1.76562,-0.75195 l -0.11914,0.62695 h 2.54297 l 1.30078,-6.85351 h -2.69726 l -0.14453,0.72656 c -0.36596,-0.56808 -0.98622,-0.85156 -1.86133,-0.85156 z m -19.96484,2.23046 c 0.30231,0 0.53801,0.10029 0.70507,0.30078 0.17503,0.19215 0.26172,0.44959 0.26172,0.7754 0,0.47618 -0.11123,0.85658 -0.33398,1.14062 -0.2148,0.28404 -0.49566,0.42578 -0.84571,0.42578 -0.30231,0 -0.54177,-0.095 -0.71679,-0.28711 -0.16707,-0.2005 -0.25,-0.46325 -0.25,-0.78906 0,-0.47618 0.10746,-0.85659 0.32226,-1.14063 0.22276,-0.28403 0.50738,-0.42578 0.85743,-0.42578 z m 20.40624,0 c 0.30232,0 0.53802,0.10029 0.70508,0.30078 0.17503,0.19215 0.26172,0.44959 0.26172,0.7754 0,0.47618 -0.11123,0.85658 -0.33398,1.14062 -0.2148,0.28404 -0.49761,0.42578 -0.84766,0.42578 -0.30231,0 -0.53982,-0.095 -0.71484,-0.28711 -0.16707,-0.2005 -0.25196,-0.46325 -0.25196,-0.78906 0,-0.47618 0.10747,-0.85659 0.32227,-1.14063 0.22276,-0.28403 0.50933,-0.42578 0.85937,-0.42578 z m 131.09766,8.5586 c -0.56247,0.009 -1.07424,0.38138 -1.24023,0.95117 l -17.86328,61.31445 c -0.20431,0.70128 0.19715,1.43047 0.89843,1.63477 l 0.51368,0.14844 c 0.70127,0.2043 1.43046,-0.19521 1.63476,-0.89649 l 17.86133,-61.31445 c 0.2043,-0.70128 -0.19521,-1.43046 -0.89649,-1.63477 l -0.51367,-0.14844 c -0.13149,-0.0383 -0.26473,-0.0569 -0.39453,-0.0547 z m -62.49609,2.85156 v 0.002 c -4.62809,0 -8.73337,1.14991 -12.31641,3.44922 -3.53327,2.24708 -6.32099,5.53961 -8.36133,9.87695 -1.99057,4.28512 -2.98633,9.40596 -2.98633,15.36329 0,5.95733 0.99576,11.10597 2.98633,15.44336 2.04034,4.28507 4.82806,7.57564 8.36133,9.875 3.58304,2.24704 7.68832,3.37109 12.31641,3.37109 4.62809,0 8.7089,-1.12405 12.24219,-3.37109 3.48546,-2.23673 6.21089,-5.41933 8.18945,-9.53516 l -9.43555,-11.85742 -0.006,-0.008 c -0.57517,-0.74215 -0.87356,-1.58809 -0.93359,-2.4375 -0.1801,-2.5482 1.75718,-5.14063 4.59961,-5.14063 h 4.58203 c 0.60693,0 0.82422,-0.17499 0.82422,-0.50781 v -12.28321 c -1.94455,-3.79989 -4.54549,-6.73725 -7.82031,-8.79101 -3.53329,-2.29935 -7.6141,-3.44922 -12.24219,-3.44922 z m -49.15625,0.002 c -4.62809,0 -8.73337,1.14991 -12.31641,3.44922 -3.53327,2.24708 -6.32099,5.53961 -8.36133,9.87695 -1.99057,4.28512 -2.98633,9.40596 -2.98632,15.36329 -10e-6,5.95733 0.99575,11.10597 2.98632,15.44336 2.04034,4.28507 4.82806,7.57564 8.36133,9.875 3.58304,2.24704 7.68832,3.37109 12.31641,3.37109 4.62809,0 8.70892,-1.12405 12.24218,-3.37109 3.58305,-2.29936 6.3688,-5.58993 8.35938,-9.875 2.04034,-4.33739 3.06055,-9.48603 3.06055,-15.44336 0,-5.95733 -1.02021,-11.07817 -3.06055,-15.36329 -1.99058,-4.33734 -4.77633,-7.62987 -8.35938,-9.87695 -3.53326,-2.29931 -7.61409,-3.44922 -12.24218,-3.44922 z m -54.15821,1.25391 v 13.95312 h 8.95899 v 40.91797 h 17.61523 v -54.87109 z m 127.99415,6.57422 c -1.48069,0 -2.5254,1.17615 -2.5254,2.61328 v 14.02344 c 0,1.43712 -1.26209,2.39648 -2.69921,2.39648 h -4.48633 c -2.22102,0 -3.43988,2.61155 -2.08985,4.35352 l 13.41211,16.85351 c 1.04519,1.34992 3.09212,1.30764 4.09375,-0.0859 l 13.06446,-16.81055 c 1.35003,-1.69842 0.13059,-4.31055 -2.04688,-4.31055 h -4.48437 c -1.4367,0 -2.57032,-0.95936 -2.57032,-2.39648 v -14.02344 c 0,-1.43713 -1.21969,-2.61328 -2.61328,-2.61328 z m -73.83594,6.98828 c 3.98114,0 5.9707,4.62352 5.9707,13.87305 0,9.24952 -1.98956,13.875 -5.9707,13.875 -3.98115,0 -5.97266,-4.62548 -5.97266,-13.875 0,-9.24953 1.99151,-13.87305 5.97266,-13.87305 z m 49.15625,0 c 3.98115,0 5.9707,4.62352 5.9707,13.87305 0,9.24952 -1.98955,13.875 -5.9707,13.875 -3.98115,0 -5.97266,-4.62548 -5.97266,-13.875 0,-9.24953 1.99151,-13.87305 5.97266,-13.87305 z m 79.59179,4.12305 c -3.18367,0 -6.00787,0.62855 -8.47265,1.88671 -2.46479,1.22224 -4.39918,2.93023 -5.80274,5.12305 l 6.0586,4.09766 c 0.85583,-1.25818 1.91697,-2.19357 3.18359,-2.80469 1.26663,-0.64706 2.687,-0.9707 4.26172,-0.9707 1.88282,0 3.30514,0.41343 4.26367,1.24023 0.99276,0.79086 1.48828,1.94136 1.48828,3.45117 0,1.04249 -0.25603,2.10321 -0.76953,3.18164 -0.51349,1.0425 -1.50649,2.30153 -2.97851,3.7754 l -13.86524,13.75 v 5.6621 h 27.16406 v -7.11914 h -15.45507 l 8.26562,-8.19531 c 2.36209,-2.30067 3.9538,-4.34908 4.77539,-6.14648 0.8216,-1.7974 1.23242,-3.7205 1.23242,-5.76953 0,-2.26473 -0.56366,-4.2253 -1.69336,-5.87891 -1.09546,-1.68956 -2.65407,-2.98216 -4.67382,-3.88086 -1.98552,-0.93465 -4.31224,-1.40234 -6.98243,-1.40234 z m 30.42579,0 c -2.97828,0 -5.63114,0.77259 -7.95899,2.31836 -2.32785,1.54576 -4.15905,3.7925 -5.49414,6.74023 -1.30086,2.91179 -1.95117,6.39882 -1.95117,10.46094 0,4.06212 0.65031,7.56594 1.95117,10.51367 1.33509,2.91179 3.16629,5.14174 5.49414,6.6875 2.32785,1.54576 4.98071,2.31836 7.95899,2.31836 2.97828,0 5.63113,-0.7726 7.95898,-2.31836 2.32785,-1.54576 4.1425,-3.77571 5.44336,-6.6875 1.33509,-2.94773 2.00391,-6.45155 2.00391,-10.51367 0,-2.02359 -0.16673,-3.90447 -0.49805,-5.64258 h -0.75 c -1.85677,0 -3.13185,-1.70888 -3.01953,-3.38086 0.0374,-0.55734 0.22793,-1.11304 0.60351,-1.59766 l 0.008,-0.006 0.96875,-1.21679 c -1.22865,-2.27414 -2.81246,-4.06435 -4.75977,-5.35742 -2.32785,-1.54577 -4.9807,-2.31836 -7.95898,-2.31836 z m 21.40234,0.24023 c -0.41538,-0.009 -0.83438,0.16794 -1.11719,0.5332 l -7.25781,9.1211 c -0.73059,0.94269 -0.0711,2.35742 1.13086,2.35742 h 2.42773 c 0.77772,0 1.46094,0.5172 1.46094,1.29492 v 7.58984 c 0,0.77773 0.5659,1.41407 1.36719,1.41407 h 3.8164 c 0.75416,0 1.41407,-0.63634 1.41407,-1.41407 v -7.58984 c 0,-0.77772 0.61313,-1.29492 1.39062,-1.29492 h 2.42774 c 1.17836,0 1.83801,-1.41486 1.10742,-2.33398 l -7.07031,-9.09571 c -0.27103,-0.37708 -0.68229,-0.57318 -1.09766,-0.58203 z m -21.40234,7.14648 c 2.19091,0 3.90237,0.98966 5.13476,2.9668 1.26663,1.97714 1.90039,5.032 1.90039,9.16602 0,4.13401 -0.63376,7.18887 -1.90039,9.16601 -1.23239,1.97714 -2.94385,2.9668 -5.13476,2.9668 -2.15669,0 -3.86814,-0.98966 -5.13477,-2.9668 -1.23239,-1.97714 -1.84766,-5.032 -1.84766,-9.16601 0,-4.13402 0.61527,-7.18888 1.84766,-9.16602 1.26663,-1.97714 2.97808,-2.96679 5.13477,-2.9668 z"
       transform="scale(0.26458333)" />
    <path
       id="text86240"
       style="font-style:normal;font-variant:normal;font-weight:900;font-stretch:normal;font-size:5.11213px;line-height:1.25;font-family:Montserrat;-inkscape-font-specification:'Montserrat Heavy';letter-spacing:1.68247px;word-spacing:0px;fill:#009fdb;fill-opacity:1;stroke:none;stroke-width:0.483035"
       d="m -307.96484,617.91602 c -1.43298,0 -2.72137,0.3093 -3.86524,0.92968 -1.1313,0.60719 -2.01713,1.46545 -2.6582,2.57422 -0.6285,1.09557 -0.94336,2.34303 -0.94336,3.74219 0,1.39916 0.31486,2.65295 0.94336,3.76172 0.64107,1.09557 1.51994,1.95383 2.63867,2.57422 1.11873,0.60718 2.38318,0.91015 3.79102,0.91015 0.99302,0 2.00442,-0.15148 3.03515,-0.45508 1.03074,-0.30359 1.93551,-0.73905 2.71485,-1.30664 v -5.85937 h -3.86524 v 3.50391 c -0.51537,0.22439 -1.05544,0.33593 -1.62109,0.33593 -0.95532,0 -1.72256,-0.31563 -2.30078,-0.94922 -0.56565,-0.63358 -0.84766,-1.47285 -0.84766,-2.51562 0,-1.06917 0.28897,-1.91282 0.86719,-2.5332 0.57822,-0.62039 1.35743,-0.93164 2.33789,-0.93164 1.14387,0 2.12937,0.50901 2.95898,1.52539 l 2.84766,-2.63477 c -0.67878,-0.87118 -1.53372,-1.52973 -2.56445,-1.97851 -1.01817,-0.46199 -2.17405,-0.69336 -3.46875,-0.69336 z m 92.81445,0 c -1.31985,0 -2.44482,0.20409 -3.375,0.61328 -0.91761,0.40919 -1.60913,0.97081 -2.07422,1.68359 -0.46509,0.71278 -0.69727,1.50382 -0.69727,2.375 10e-6,1.00317 0.25111,1.8025 0.75391,2.39649 0.5028,0.58078 1.09466,1.00358 1.77344,1.26757 0.67878,0.2508 1.52675,0.4885 2.54492,0.71289 0.79191,0.1716 1.35788,0.32942 1.69727,0.47461 0.35196,0.1452 0.52734,0.36195 0.52734,0.65235 0,0.25079 -0.13252,0.44222 -0.39648,0.57422 -0.26397,0.11879 -0.70439,0.17968 -1.32032,0.17968 -0.71648,0 -1.46285,-0.11349 -2.24218,-0.33789 -0.77934,-0.23759 -1.48479,-0.5469 -2.11329,-0.92969 l -1.43164,3.40626 c 0.66621,0.43558 1.51419,0.78483 2.54493,1.04882 1.0433,0.2508 2.11149,0.375 3.20507,0.375 1.31985,0 2.43982,-0.20409 3.35743,-0.61328 0.93017,-0.42239 1.6267,-0.98401 2.09179,-1.68359 0.46509,-0.71278 0.69727,-1.50383 0.69727,-2.375 0,-1.00317 -0.25807,-1.79422 -0.77344,-2.375 -0.5028,-0.58079 -1.09967,-0.99726 -1.79102,-1.24805 -0.69134,-0.26399 -1.53932,-0.49536 -2.54492,-0.69336 -0.77933,-0.15839 -1.33834,-0.30355 -1.67773,-0.43554 -0.33939,-0.1452 -0.50977,-0.35562 -0.50977,-0.63282 0,-0.58078 0.57293,-0.87109 1.7168,-0.87109 1.15644,0 2.38107,0.34291 3.67578,1.0293 l 1.33984,-3.38672 c -0.6662,-0.39599 -1.44041,-0.69263 -2.32031,-0.89063 -0.86733,-0.21119 -1.75316,-0.3164 -2.6582,-0.3164 z m -142.8418,0.3164 v 13.85938 h 4.05469 v -6.09766 l 2.86523,4.85156 h 1.96094 l 2.86719,-5.07031 0.0371,6.31641 h 4.05469 l -0.0391,-13.85938 h -3.6582 l -4.18555,7.38477 -4.29882,-7.38477 z m 24.19336,0 v 13.85938 h 10.97461 v -3.52344 h -6.59961 v -1.82227 h 5.58008 v -3.36523 h -5.58008 v -1.62305 h 6.35352 v -3.52539 z m 43.9375,0 -5.76953,13.85938 h 4.52344 l 0.88672,-2.41602 h 5.01562 l 0.88672,2.41602 h 4.59961 l -5.76953,-13.85938 z m 17.06445,0 v 13.85938 h 7.42969 c 1.81008,0 3.19312,-0.33026 4.14844,-0.99024 0.95532,-0.67318 1.43164,-1.61571 1.43164,-2.83008 0,-0.81837 -0.21325,-1.51882 -0.64062,-2.0996 -0.42738,-0.58079 -1.03121,-1.02259 -1.81055,-1.32618 0.60336,-0.31679 1.05574,-0.73326 1.35742,-1.24804 0.31425,-0.51479 0.47266,-1.09541 0.47266,-1.74219 0,-1.09557 -0.45239,-1.97283 -1.35742,-2.63281 -0.89247,-0.65999 -2.21873,-0.99024 -3.97852,-0.99024 z m 20.78126,0 v 13.85938 h 4.44921 v -13.85938 z m 11.80468,0 v 3.62305 h 3.86524 v 10.23633 h 4.44922 v -10.23633 h 3.86523 v -3.62305 z M -268.42188,621.5 h 2.07422 c 0.96789,0 1.45118,0.34292 1.45118,1.0293 0,0.68638 -0.48329,1.02929 -1.45118,1.02929 h -2.07422 z m -19.29101,1.32617 1.2832,3.48438 h -2.56445 z m 19.29101,3.82031 h 2.67774 c 0.98046,0 1.4707,0.36387 1.4707,1.08985 0,0.72598 -0.49024,1.08984 -1.4707,1.08984 h -2.67774 z"
       transform="scale(0.26458333)" />
    <g
       id="g86276"
       transform="matrix(0,0.78075251,0.78075251,0,-110.91231,71.804562)"
       style="fill:#6fc9eb;fill-opacity:1;stroke:#ffffff;stroke-width:1.31385;stroke-miterlimit:4;stroke-dasharray:none;stroke-opacity:1"
       inkscape:export-filename="C:\Users\WinnerPC18\Desktop\plan3mb.png"
       inkscape:export-xdpi="300"
       inkscape:export-ydpi="300">
      <g
         id="g86244"
         style="fill:#6fc9eb;fill-opacity:1;stroke:#ffffff;stroke-width:1.31385;stroke-miterlimit:4;stroke-dasharray:none;stroke-opacity:1">
        <g
           id="path86242" />
      </g>
      <g
         id="g86246"
         style="fill:#6fc9eb;fill-opacity:1;stroke:#ffffff;stroke-width:1.31385;stroke-miterlimit:4;stroke-dasharray:none;stroke-opacity:1" />
      <g
         id="g86248"
         style="fill:#6fc9eb;fill-opacity:1;stroke:#ffffff;stroke-width:1.31385;stroke-miterlimit:4;stroke-dasharray:none;stroke-opacity:1" />
      <g
         id="g86250"
         style="fill:#6fc9eb;fill-opacity:1;stroke:#ffffff;stroke-width:1.31385;stroke-miterlimit:4;stroke-dasharray:none;stroke-opacity:1" />
      <g
         id="g86252"
         style="fill:#6fc9eb;fill-opacity:1;stroke:#ffffff;stroke-width:1.31385;stroke-miterlimit:4;stroke-dasharray:none;stroke-opacity:1" />
      <g
         id="g86254"
         style="fill:#6fc9eb;fill-opacity:1;stroke:#ffffff;stroke-width:1.31385;stroke-miterlimit:4;stroke-dasharray:none;stroke-opacity:1" />
      <g
         id="g86256"
         style="fill:#6fc9eb;fill-opacity:1;stroke:#ffffff;stroke-width:1.31385;stroke-miterlimit:4;stroke-dasharray:none;stroke-opacity:1" />
      <g
         id="g86258"
         style="fill:#6fc9eb;fill-opacity:1;stroke:#ffffff;stroke-width:1.31385;stroke-miterlimit:4;stroke-dasharray:none;stroke-opacity:1" />
      <g
         id="g86260"
         style="fill:#6fc9eb;fill-opacity:1;stroke:#ffffff;stroke-width:1.31385;stroke-miterlimit:4;stroke-dasharray:none;stroke-opacity:1" />
      <g
         id="g86262"
         style="fill:#6fc9eb;fill-opacity:1;stroke:#ffffff;stroke-width:1.31385;stroke-miterlimit:4;stroke-dasharray:none;stroke-opacity:1" />
      <g
         id="g86264"
         style="fill:#6fc9eb;fill-opacity:1;stroke:#ffffff;stroke-width:1.31385;stroke-miterlimit:4;stroke-dasharray:none;stroke-opacity:1" />
      <g
         id="g86266"
         style="fill:#6fc9eb;fill-opacity:1;stroke:#ffffff;stroke-width:1.31385;stroke-miterlimit:4;stroke-dasharray:none;stroke-opacity:1" />
      <g
         id="g86268"
         style="fill:#6fc9eb;fill-opacity:1;stroke:#ffffff;stroke-width:1.31385;stroke-miterlimit:4;stroke-dasharray:none;stroke-opacity:1" />
      <g
         id="g86270"
         style="fill:#6fc9eb;fill-opacity:1;stroke:#ffffff;stroke-width:1.31385;stroke-miterlimit:4;stroke-dasharray:none;stroke-opacity:1" />
      <g
         id="g86272"
         style="fill:#6fc9eb;fill-opacity:1;stroke:#ffffff;stroke-width:1.31385;stroke-miterlimit:4;stroke-dasharray:none;stroke-opacity:1" />
      <g
         id="g86274"
         style="fill:#6fc9eb;fill-opacity:1;stroke:#ffffff;stroke-width:1.31385;stroke-miterlimit:4;stroke-dasharray:none;stroke-opacity:1" />
    </g>
    <g
       id="g86312"
       transform="matrix(0,0.76407086,0.76407086,0,-110.09111,73.477761)"
       style="fill:#323070;fill-opacity:1"
       inkscape:export-filename="C:\Users\WinnerPC18\Desktop\plan3mb.png"
       inkscape:export-xdpi="300"
       inkscape:export-ydpi="300">
      <g
         id="g86280"
         style="fill:#323070;fill-opacity:1" />
      <g
         id="g86282"
         style="fill:#323070;fill-opacity:1" />
      <g
         id="g86284"
         style="fill:#323070;fill-opacity:1" />
      <g
         id="g86286"
         style="fill:#323070;fill-opacity:1" />
      <g
         id="g86288"
         style="fill:#323070;fill-opacity:1" />
      <g
         id="g86290"
         style="fill:#323070;fill-opacity:1" />
      <g
         id="g86292"
         style="fill:#323070;fill-opacity:1" />
      <g
         id="g86294"
         style="fill:#323070;fill-opacity:1" />
      <g
         id="g86296"
         style="fill:#323070;fill-opacity:1" />
      <g
         id="g86298"
         style="fill:#323070;fill-opacity:1" />
      <g
         id="g86300"
         style="fill:#323070;fill-opacity:1" />
      <g
         id="g86302"
         style="fill:#323070;fill-opacity:1" />
      <g
         id="g86304"
         style="fill:#323070;fill-opacity:1" />
      <g
         id="g86306"
         style="fill:#323070;fill-opacity:1" />
      <g
         id="g86308"
         style="fill:#323070;fill-opacity:1" />
      <g
         id="g86310"
         style="fill:#323070;fill-opacity:1" />
    </g>
    <g
       id="g86388"
       transform="matrix(0,-0.41348773,0.41348773,0,-65.673905,194.7979)"
       style="fill:#009fdb;fill-opacity:1"
       inkscape:export-filename="C:\Users\WinnerPC18\Desktop\plan3mb.png"
       inkscape:export-xdpi="300"
       inkscape:export-ydpi="300">
      <g
         id="g86356"
         style="fill:#009fdb;fill-opacity:1" />
      <g
         id="g86358"
         style="fill:#009fdb;fill-opacity:1" />
      <g
         id="g86360"
         style="fill:#009fdb;fill-opacity:1" />
      <g
         id="g86362"
         style="fill:#009fdb;fill-opacity:1" />
      <g
         id="g86364"
         style="fill:#009fdb;fill-opacity:1" />
      <g
         id="g86366"
         style="fill:#009fdb;fill-opacity:1" />
      <g
         id="g86368"
         style="fill:#009fdb;fill-opacity:1" />
      <g
         id="g86370"
         style="fill:#009fdb;fill-opacity:1" />
      <g
         id="g86372"
         style="fill:#009fdb;fill-opacity:1" />
      <g
         id="g86374"
         style="fill:#009fdb;fill-opacity:1" />
      <g
         id="g86376"
         style="fill:#009fdb;fill-opacity:1" />
      <g
         id="g86378"
         style="fill:#009fdb;fill-opacity:1" />
      <g
         id="g86380"
         style="fill:#009fdb;fill-opacity:1" />
      <g
         id="g86382"
         style="fill:#009fdb;fill-opacity:1" />
      <g
         id="g86384"
         style="fill:#009fdb;fill-opacity:1" />
      <g
         id="g86386"
         style="fill:#009fdb;fill-opacity:1" />
    </g>
    <g
       id="g86352"
       transform="matrix(0,-0.41348773,0.41348773,0,-65.673905,194.7979)"
       style="fill:#009fdb;fill-opacity:1;stroke:#ffffff;stroke-width:2.07839;stroke-miterlimit:4;stroke-dasharray:none;stroke-opacity:1"
       inkscape:export-filename="C:\Users\WinnerPC18\Desktop\plan3mb.png"
       inkscape:export-xdpi="300"
       inkscape:export-ydpi="300">
      <g
         id="g86320"
         style="fill:#009fdb;fill-opacity:1;stroke:#ffffff;stroke-width:2.07839;stroke-miterlimit:4;stroke-dasharray:none;stroke-opacity:1">
        <g
           id="path86318" />
      </g>
      <g
         id="g86322"
         style="fill:#009fdb;fill-opacity:1;stroke:#ffffff;stroke-width:2.07839;stroke-miterlimit:4;stroke-dasharray:none;stroke-opacity:1" />
      <g
         id="g86324"
         style="fill:#009fdb;fill-opacity:1;stroke:#ffffff;stroke-width:2.07839;stroke-miterlimit:4;stroke-dasharray:none;stroke-opacity:1" />
      <g
         id="g86326"
         style="fill:#009fdb;fill-opacity:1;stroke:#ffffff;stroke-width:2.07839;stroke-miterlimit:4;stroke-dasharray:none;stroke-opacity:1" />
      <g
         id="g86328"
         style="fill:#009fdb;fill-opacity:1;stroke:#ffffff;stroke-width:2.07839;stroke-miterlimit:4;stroke-dasharray:none;stroke-opacity:1" />
      <g
         id="g86330"
         style="fill:#009fdb;fill-opacity:1;stroke:#ffffff;stroke-width:2.07839;stroke-miterlimit:4;stroke-dasharray:none;stroke-opacity:1" />
      <g
         id="g86332"
         style="fill:#009fdb;fill-opacity:1;stroke:#ffffff;stroke-width:2.07839;stroke-miterlimit:4;stroke-dasharray:none;stroke-opacity:1" />
      <g
         id="g86334"
         style="fill:#009fdb;fill-opacity:1;stroke:#ffffff;stroke-width:2.07839;stroke-miterlimit:4;stroke-dasharray:none;stroke-opacity:1" />
      <g
         id="g86336"
         style="fill:#009fdb;fill-opacity:1;stroke:#ffffff;stroke-width:2.07839;stroke-miterlimit:4;stroke-dasharray:none;stroke-opacity:1" />
      <g
         id="g86338"
         style="fill:#009fdb;fill-opacity:1;stroke:#ffffff;stroke-width:2.07839;stroke-miterlimit:4;stroke-dasharray:none;stroke-opacity:1" />
      <g
         id="g86340"
         style="fill:#009fdb;fill-opacity:1;stroke:#ffffff;stroke-width:2.07839;stroke-miterlimit:4;stroke-dasharray:none;stroke-opacity:1" />
      <g
         id="g86342"
         style="fill:#009fdb;fill-opacity:1;stroke:#ffffff;stroke-width:2.07839;stroke-miterlimit:4;stroke-dasharray:none;stroke-opacity:1" />
      <g
         id="g86344"
         style="fill:#009fdb;fill-opacity:1;stroke:#ffffff;stroke-width:2.07839;stroke-miterlimit:4;stroke-dasharray:none;stroke-opacity:1" />
      <g
         id="g86346"
         style="fill:#009fdb;fill-opacity:1;stroke:#ffffff;stroke-width:2.07839;stroke-miterlimit:4;stroke-dasharray:none;stroke-opacity:1" />
      <g
         id="g86348"
         style="fill:#009fdb;fill-opacity:1;stroke:#ffffff;stroke-width:2.07839;stroke-miterlimit:4;stroke-dasharray:none;stroke-opacity:1" />
      <g
         id="g86350"
         style="fill:#009fdb;fill-opacity:1;stroke:#ffffff;stroke-width:2.07839;stroke-miterlimit:4;stroke-dasharray:none;stroke-opacity:1" />
    </g>
  </g>
</svg>
