<?xml version="1.0" encoding="UTF-8" standalone="no"?>
<!-- Created with Inkscape (http://www.inkscape.org/) -->

<svg
   width="47.80727mm"
   height="27.061398mm"
   viewBox="0 0 47.80727 27.061398"
   version="1.1"
   id="svg132798"
   inkscape:version="1.1 (c68e22c387, 2021-05-23)"
   sodipodi:docname="35Mb.svg"
   xmlns:inkscape="http://www.inkscape.org/namespaces/inkscape"
   xmlns:sodipodi="http://sodipodi.sourceforge.net/DTD/sodipodi-0.dtd"
   xmlns="http://www.w3.org/2000/svg"
   xmlns:svg="http://www.w3.org/2000/svg">
  <sodipodi:namedview
     id="namedview132800"
     pagecolor="#ffffff"
     bordercolor="#666666"
     borderopacity="1.0"
     inkscape:pageshadow="2"
     inkscape:pageopacity="0.0"
     inkscape:pagecheckerboard="0"
     inkscape:document-units="mm"
     showgrid="false"
     fit-margin-top="0"
     fit-margin-left="0"
     fit-margin-right="0"
     fit-margin-bottom="0"
     inkscape:zoom="0.69397447"
     inkscape:cx="545.40912"
     inkscape:cy="54.03657"
     inkscape:window-width="1920"
     inkscape:window-height="1009"
     inkscape:window-x="-8"
     inkscape:window-y="-8"
     inkscape:window-maximized="1"
     inkscape:current-layer="layer1" />
  <defs
     id="defs132795" />
  <g
     inkscape:label="Capa 1"
     inkscape:groupmode="layer"
     id="layer1"
     transform="translate(279.76017,-139.99455)">
    <g
       id="g69579"
       transform="matrix(0,0.78075251,0.78075251,0,-205.93845,71.510355)"
       style="fill:#6fc9eb;fill-opacity:1;stroke:#ffffff;stroke-width:1.31385;stroke-miterlimit:4;stroke-dasharray:none;stroke-opacity:1"
       inkscape:export-filename="C:\Users\WinnerPC18\Desktop\plan3mb.png"
       inkscape:export-xdpi="300"
       inkscape:export-ydpi="300">
      <g
         id="g69547"
         style="fill:#6fc9eb;fill-opacity:1;stroke:#ffffff;stroke-width:1.31385;stroke-miterlimit:4;stroke-dasharray:none;stroke-opacity:1">
        <g
           id="path69545" />
      </g>
      <g
         id="g69549"
         style="fill:#6fc9eb;fill-opacity:1;stroke:#ffffff;stroke-width:1.31385;stroke-miterlimit:4;stroke-dasharray:none;stroke-opacity:1" />
      <g
         id="g69551"
         style="fill:#6fc9eb;fill-opacity:1;stroke:#ffffff;stroke-width:1.31385;stroke-miterlimit:4;stroke-dasharray:none;stroke-opacity:1" />
      <g
         id="g69553"
         style="fill:#6fc9eb;fill-opacity:1;stroke:#ffffff;stroke-width:1.31385;stroke-miterlimit:4;stroke-dasharray:none;stroke-opacity:1" />
      <g
         id="g69555"
         style="fill:#6fc9eb;fill-opacity:1;stroke:#ffffff;stroke-width:1.31385;stroke-miterlimit:4;stroke-dasharray:none;stroke-opacity:1" />
      <g
         id="g69557"
         style="fill:#6fc9eb;fill-opacity:1;stroke:#ffffff;stroke-width:1.31385;stroke-miterlimit:4;stroke-dasharray:none;stroke-opacity:1" />
      <g
         id="g69559"
         style="fill:#6fc9eb;fill-opacity:1;stroke:#ffffff;stroke-width:1.31385;stroke-miterlimit:4;stroke-dasharray:none;stroke-opacity:1" />
      <g
         id="g69561"
         style="fill:#6fc9eb;fill-opacity:1;stroke:#ffffff;stroke-width:1.31385;stroke-miterlimit:4;stroke-dasharray:none;stroke-opacity:1" />
      <g
         id="g69563"
         style="fill:#6fc9eb;fill-opacity:1;stroke:#ffffff;stroke-width:1.31385;stroke-miterlimit:4;stroke-dasharray:none;stroke-opacity:1" />
      <g
         id="g69565"
         style="fill:#6fc9eb;fill-opacity:1;stroke:#ffffff;stroke-width:1.31385;stroke-miterlimit:4;stroke-dasharray:none;stroke-opacity:1" />
      <g
         id="g69567"
         style="fill:#6fc9eb;fill-opacity:1;stroke:#ffffff;stroke-width:1.31385;stroke-miterlimit:4;stroke-dasharray:none;stroke-opacity:1" />
      <g
         id="g69569"
         style="fill:#6fc9eb;fill-opacity:1;stroke:#ffffff;stroke-width:1.31385;stroke-miterlimit:4;stroke-dasharray:none;stroke-opacity:1" />
      <g
         id="g69571"
         style="fill:#6fc9eb;fill-opacity:1;stroke:#ffffff;stroke-width:1.31385;stroke-miterlimit:4;stroke-dasharray:none;stroke-opacity:1" />
      <g
         id="g69573"
         style="fill:#6fc9eb;fill-opacity:1;stroke:#ffffff;stroke-width:1.31385;stroke-miterlimit:4;stroke-dasharray:none;stroke-opacity:1" />
      <g
         id="g69575"
         style="fill:#6fc9eb;fill-opacity:1;stroke:#ffffff;stroke-width:1.31385;stroke-miterlimit:4;stroke-dasharray:none;stroke-opacity:1" />
      <g
         id="g69577"
         style="fill:#6fc9eb;fill-opacity:1;stroke:#ffffff;stroke-width:1.31385;stroke-miterlimit:4;stroke-dasharray:none;stroke-opacity:1" />
    </g>
    <g
       id="g69615"
       transform="matrix(0,0.76407086,0.76407086,0,-205.11725,73.183554)"
       style="fill:#323070;fill-opacity:1"
       inkscape:export-filename="C:\Users\WinnerPC18\Desktop\plan3mb.png"
       inkscape:export-xdpi="300"
       inkscape:export-ydpi="300">
      <g
         id="g69583"
         style="fill:#323070;fill-opacity:1" />
      <g
         id="g69585"
         style="fill:#323070;fill-opacity:1" />
      <g
         id="g69587"
         style="fill:#323070;fill-opacity:1" />
      <g
         id="g69589"
         style="fill:#323070;fill-opacity:1" />
      <g
         id="g69591"
         style="fill:#323070;fill-opacity:1" />
      <g
         id="g69593"
         style="fill:#323070;fill-opacity:1" />
      <g
         id="g69595"
         style="fill:#323070;fill-opacity:1" />
      <g
         id="g69597"
         style="fill:#323070;fill-opacity:1" />
      <g
         id="g69599"
         style="fill:#323070;fill-opacity:1" />
      <g
         id="g69601"
         style="fill:#323070;fill-opacity:1" />
      <g
         id="g69603"
         style="fill:#323070;fill-opacity:1" />
      <g
         id="g69605"
         style="fill:#323070;fill-opacity:1" />
      <g
         id="g69607"
         style="fill:#323070;fill-opacity:1" />
      <g
         id="g69609"
         style="fill:#323070;fill-opacity:1" />
      <g
         id="g69611"
         style="fill:#323070;fill-opacity:1" />
      <g
         id="g69613"
         style="fill:#323070;fill-opacity:1" />
    </g>
    <g
       id="g69655"
       transform="matrix(0,-0.41348773,0.41348773,0,-163.65149,194.5037)"
       style="fill:#009fdb;fill-opacity:1"
       inkscape:export-filename="C:\Users\WinnerPC18\Desktop\plan3mb.png"
       inkscape:export-xdpi="300"
       inkscape:export-ydpi="300">
      <g
         id="g69623"
         style="fill:#009fdb;fill-opacity:1" />
      <g
         id="g69625"
         style="fill:#009fdb;fill-opacity:1" />
      <g
         id="g69627"
         style="fill:#009fdb;fill-opacity:1" />
      <g
         id="g69629"
         style="fill:#009fdb;fill-opacity:1" />
      <g
         id="g69631"
         style="fill:#009fdb;fill-opacity:1" />
      <g
         id="g69633"
         style="fill:#009fdb;fill-opacity:1" />
      <g
         id="g69635"
         style="fill:#009fdb;fill-opacity:1" />
      <g
         id="g69637"
         style="fill:#009fdb;fill-opacity:1" />
      <g
         id="g69639"
         style="fill:#009fdb;fill-opacity:1" />
      <g
         id="g69641"
         style="fill:#009fdb;fill-opacity:1" />
      <g
         id="g69643"
         style="fill:#009fdb;fill-opacity:1" />
      <g
         id="g69645"
         style="fill:#009fdb;fill-opacity:1" />
      <g
         id="g69647"
         style="fill:#009fdb;fill-opacity:1" />
      <g
         id="g69649"
         style="fill:#009fdb;fill-opacity:1" />
      <g
         id="g69651"
         style="fill:#009fdb;fill-opacity:1" />
      <g
         id="g69653"
         style="fill:#009fdb;fill-opacity:1" />
    </g>
    <path
       id="text79652"
       style="font-style:normal;font-variant:normal;font-weight:900;font-stretch:normal;font-size:22.679px;line-height:1.25;font-family:Montserrat;-inkscape-font-specification:'Montserrat Heavy';text-align:end;letter-spacing:0.396875px;word-spacing:0px;text-anchor:end;fill:#ffffff;fill-opacity:1;stroke:none;stroke-width:1.91233"
       d="m -1053.791,529.11328 -1.6699,8.77149 h 2.8164 l 0.6191,-3.23243 h 2.6016 l -0.6192,3.23243 h 2.8164 l 1.67,-8.77149 h -2.8164 l -0.5958,3.10742 h -2.6015 l 0.5957,-3.10742 z m 24.834,0.375 -0.3711,1.91797 h -0.8946 l -0.3925,2.06836 h 0.9062 l -0.334,1.72851 c -0.048,0.23392 -0.072,0.46053 -0.072,0.67774 0,0.67668 0.2111,1.20219 0.6328,1.57812 0.4296,0.36758 1.014,0.55079 1.7539,0.55079 0.716,0 1.3042,-0.13307 1.7656,-0.40039 l -0.3086,-1.9043 c -0.2227,0.1086 -0.4226,0.16211 -0.5976,0.16211 -0.3342,0 -0.502,-0.15911 -0.502,-0.47657 0,-0.0334 0.01,-0.099 0.025,-0.19921 l 0.3223,-1.7168 h 1.3359 l 0.3945,-2.06836 h -1.3379 l 0.3711,-1.91797 z m -13.2227,1.41602 c -0.6205,0 -1.1974,0.17115 -1.7305,0.51367 -0.533,0.34252 -0.9591,0.81452 -1.2773,1.41601 -0.3103,0.6015 -0.4648,1.2707 -0.4648,2.00586 0,0.65162 0.1282,1.22054 0.3828,1.70508 0.2625,0.47618 0.6,0.83922 1.0136,1.08985 0.4137,0.25062 0.8436,0.375 1.2891,0.375 0.6842,0 1.2724,-0.25071 1.7656,-0.75196 l -0.1191,0.62696 h 2.541 l 1.3008,-6.85352 h -2.6953 l -0.1446,0.72656 c -0.3659,-0.56808 -0.9862,-0.85351 -1.8613,-0.85351 z m 8.8184,0 c -1.082,0 -1.9643,0.22129 -2.6485,0.66406 -0.6841,0.44277 -1.0273,1.08788 -1.0273,1.93164 0,0.46783 0.1245,0.83423 0.3711,1.10156 0.2466,0.25898 0.5332,0.44218 0.8594,0.55078 0.3261,0.10025 0.7239,0.18849 1.1933,0.26368 0.3023,0.0418 0.521,0.0885 0.6563,0.13867 0.1432,0.0418 0.2148,0.10732 0.2148,0.19922 0,0.2172 -0.2677,0.32617 -0.8008,0.32617 -0.3818,0 -0.7796,-0.0535 -1.1933,-0.16211 -0.4058,-0.1086 -0.762,-0.26435 -1.0723,-0.46485 l -0.9316,1.92969 c 0.2943,0.18379 0.7034,0.33422 1.2285,0.45117 0.525,0.11696 1.0699,0.17579 1.6347,0.17579 0.6842,0 1.3007,-0.095 1.8497,-0.28711 0.5568,-0.19215 0.9942,-0.48095 1.3125,-0.86524 0.3261,-0.39264 0.4902,-0.86464 0.4902,-1.41601 0,-0.45948 -0.1225,-0.81915 -0.3692,-1.07813 -0.2385,-0.26733 -0.5214,-0.45053 -0.8476,-0.55078 -0.3182,-0.1086 -0.7085,-0.2002 -1.1699,-0.27539 -0.3262,-0.0585 -0.5562,-0.10862 -0.6914,-0.15039 -0.1353,-0.0501 -0.2032,-0.121 -0.2032,-0.21289 0,-0.0919 0.062,-0.17145 0.1895,-0.23828 0.1352,-0.0668 0.3464,-0.10157 0.6328,-0.10157 0.7319,0 1.3805,0.17311 1.9453,0.51563 l 0.9317,-1.93164 c -0.3421,-0.16708 -0.7362,-0.29146 -1.1817,-0.375 -0.4375,-0.0919 -0.8957,-0.13867 -1.373,-0.13867 z m 11.5879,0 c -0.6206,0 -1.1975,0.17115 -1.7305,0.51367 -0.533,0.34252 -0.9592,0.81452 -1.2773,1.41601 -0.3103,0.6015 -0.4649,1.2707 -0.4649,2.00586 0,0.65162 0.1263,1.22054 0.3809,1.70508 0.2625,0.47618 0.6019,0.83922 1.0156,1.08985 0.4137,0.25062 0.8435,0.375 1.2891,0.375 0.6841,0 1.2723,-0.25071 1.7656,-0.75196 l -0.1192,0.62696 h 2.5411 l 1.3007,-6.85352 h -2.6972 l -0.1426,0.72656 c -0.366,-0.56808 -0.9862,-0.85351 -1.8613,-0.85351 z m -19.9649,2.23047 c 0.3023,0 0.538,0.10028 0.7051,0.30078 0.175,0.19214 0.2617,0.45153 0.2617,0.77734 0,0.47618 -0.1112,0.85659 -0.334,1.14063 -0.2148,0.28403 -0.4976,0.42578 -0.8476,0.42578 -0.3023,0 -0.5398,-0.095 -0.7149,-0.28711 -0.167,-0.2005 -0.2519,-0.46521 -0.2519,-0.79102 0,-0.47618 0.1074,-0.85463 0.3222,-1.13867 0.2228,-0.28404 0.5094,-0.42773 0.8594,-0.42773 z m 20.4063,0 c 0.3023,0 0.536,0.10028 0.7031,0.30078 0.175,0.19214 0.2637,0.45153 0.2637,0.77734 0,0.47618 -0.1113,0.85659 -0.334,1.14063 -0.2148,0.28403 -0.4976,0.42578 -0.8477,0.42578 -0.3023,0 -0.5417,-0.095 -0.7168,-0.28711 -0.167,-0.2005 -0.25,-0.46521 -0.25,-0.79102 0,-0.47618 0.1075,-0.85463 0.3223,-1.13867 0.2227,-0.28404 0.5093,-0.42773 0.8594,-0.42773 z m 94.50778,8.56054 c -0.56247,0.01 -1.07424,0.38139 -1.24023,0.95117 l -17.86328,61.31446 c -0.20431,0.70128 0.19715,1.43046 0.89843,1.63476 l 0.51368,0.14844 c 0.70126,0.2043 1.43046,-0.1952 1.63476,-0.89648 l 17.86133,-61.31446 c 0.2043,-0.70128 -0.19521,-1.43046 -0.89649,-1.63476 l -0.51367,-0.14844 c -0.13149,-0.0383 -0.26473,-0.0569 -0.39453,-0.0547 z m -107.91798,2.85352 c -5.4243,0 -10.0529,1.1499 -13.8848,3.44922 -3.8318,2.24708 -6.7438,5.3307 -8.7343,9.25 l 13.2871,6.97656 c 0.7464,-1.61998 1.8175,-2.87529 3.2109,-3.76367 1.3934,-0.88838 2.8861,-1.33203 4.4785,-1.33203 1.6423,0 2.8864,0.39194 3.7325,1.17578 0.8956,0.7316 1.3437,1.77606 1.3437,3.13476 0,1.09743 -0.2747,2.2214 -0.8223,3.3711 -0.5473,1.14965 -1.6408,2.53431 -3.2832,4.15429 l -18.8867,18.34375 v 11.36524 h 41.877 v -14.34571 h -17.6172 l 7.4648,-7.13281 c 3.5334,-3.34446 5.8975,-6.32268 7.0918,-8.93554 1.2441,-2.66514 1.8653,-5.51401 1.8653,-8.54493 0,-3.39673 -0.8941,-6.40081 -2.6856,-9.01367 -1.7915,-2.61286 -4.2799,-4.62422 -7.4648,-6.03515 -3.185,-1.41098 -6.8422,-2.11719 -10.9727,-2.11719 z m 66.47072,1.25195 -34.70902,0.002 -2.6133,33.31446 h 15.15239 c 2.98591,0 5.05268,0.34016 6.19727,1.01953 1.14459,0.6271 1.7168,1.59396 1.7168,2.90039 0,1.3587 -0.64753,2.42902 -1.94141,3.21289 -1.24411,0.7316 -2.88544,1.09766 -4.92578,1.09766 -2.28915,0 -4.65332,-0.34016 -7.0918,-1.01954 -2.3887,-0.67933 -4.67757,-1.67208 -6.86717,-2.97851 l -5.9727,13.64062 c 2.7372,1.61999 5.9219,2.84745 9.55472,3.6836 3.68258,0.83611 7.36624,1.2539 11.04882,1.2539 5.32479,0 9.7783,-0.88926 13.36133,-2.66601 3.58307,-1.82899 6.22009,-4.18055 7.91211,-7.05469 0.1595,-0.26797 0.30236,-0.5403 0.44727,-0.8125 l -11.32227,-14.23047 -0.008,-0.008 c -0.57517,-0.74211 -0.87358,-1.58809 -0.93359,-2.4375 -0.18029,-2.5482 1.75717,-5.14063 4.5996,-5.14063 h 4.09961 c -3.44621,-2.94168 -8.65058,-4.41601 -15.62109,-4.41601 h -2.6875 l 0.37305,-5.4082 h 19.24218 v -5.01758 c 0,-1.03654 0.36814,-2.03221 0.98829,-2.83203 z m 3.63086,6.57617 c -1.48069,0 -2.5254,1.17615 -2.5254,2.61328 v 14.02344 c 0,1.43713 -1.26209,2.39649 -2.69921,2.39649 h -4.48633 c -2.22102,0 -3.43988,2.61155 -2.08985,4.35351 l 13.41211,16.85352 c 1.04519,1.34991 3.09212,1.30764 4.09375,-0.0859 l 13.06446,-16.81055 c 1.35003,-1.69841 0.13059,-4.31054 -2.04688,-4.31054 h -4.48437 c -1.4367,0 -2.57032,-0.95936 -2.57032,-2.39649 v -14.02344 c 0,-1.43713 -1.21969,-2.61328 -2.61328,-2.61328 z m 79.49414,11.35157 c -0.41538,-0.009 -0.83438,0.16794 -1.11719,0.5332 l -7.25977,9.12109 c -0.73059,0.94269 -0.0691,2.35742 1.13282,2.35742 h 2.42773 c 0.77772,0 1.46094,0.5172 1.46094,1.29493 v 7.58984 c 0,0.77772 0.56589,1.41406 1.36718,1.41406 h 3.81641 c 0.75416,0 1.41406,-0.63634 1.41406,-1.41406 v -7.58984 c 0,-0.77773 0.61314,-1.29493 1.39063,-1.29493 h 2.42773 c 1.17837,0 1.83801,-1.41486 1.10742,-2.33398 l -7.07031,-9.09766 c -0.27102,-0.37707 -0.68228,-0.57123 -1.09765,-0.58007 z m -31.98829,0.40625 -1.84765,21.24609 h 9.1914 c 3.08098,0 5.23832,0.41343 6.47071,1.24023 1.26662,0.82681 1.89843,2.04836 1.89843,3.66602 10e-6,1.54576 -0.59871,2.75053 -1.79687,3.61328 -1.19816,0.86275 -2.84147,1.29297 -4.92969,1.29297 -1.88282,0 -3.71402,-0.28811 -5.49414,-0.86328 -1.78012,-0.61112 -3.35528,-1.45479 -4.72461,-2.5332 l -3.28515,6.68554 c 1.71165,1.29413 3.78234,2.30057 6.21289,3.01953 2.46478,0.68301 4.96284,1.02539 7.49609,1.02539 3.28638,0 6.04243,-0.55748 8.26758,-1.67187 2.25938,-1.15034 3.93774,-2.66 5.0332,-4.5293 1.09546,-1.90524 1.64258,-4.00792 1.64258,-6.30859 0,-3.55885 -1.21593,-6.3986 -3.64648,-8.51953 -2.39632,-2.12093 -6.12686,-3.18164 -11.19336,-3.18164 h -2.92774 l 0.56641,-7.17188 h 14.99414 v -7.00976 z"
       transform="scale(0.26458333)" />
    <path
       id="text79660"
       style="font-style:normal;font-variant:normal;font-weight:900;font-stretch:normal;font-size:5.11213px;line-height:1.25;font-family:Montserrat;-inkscape-font-specification:'Montserrat Heavy';letter-spacing:1.68247px;word-spacing:0px;fill:#323070;fill-opacity:1;stroke:none;stroke-width:0.483035"
       d="m -990.36523,616.90039 c -1.43298,0 -2.72137,0.3093 -3.86524,0.92969 -1.1313,0.60718 -2.01713,1.46545 -2.6582,2.57422 -0.6285,1.09557 -0.94336,2.34302 -0.94336,3.74218 0,1.39917 0.31486,2.65295 0.94336,3.76172 0.64107,1.09557 1.51994,1.95384 2.63867,2.57422 1.11873,0.60719 2.38318,0.91016 3.79102,0.91016 0.99302,0 2.00441,-0.15149 3.03515,-0.45508 1.03074,-0.30359 1.93551,-0.73906 2.71485,-1.30664 v -5.86133 h -3.86524 v 3.50586 c -0.51537,0.22439 -1.05544,0.33594 -1.62109,0.33594 -0.95532,0 -1.72257,-0.31759 -2.30078,-0.95117 -0.56565,-0.63359 -0.84766,-1.4709 -0.84766,-2.51368 0,-1.06917 0.28897,-1.91477 0.86719,-2.53515 0.57822,-0.62039 1.35743,-0.92969 2.33789,-0.92969 1.14387,0 2.12936,0.50902 2.95898,1.52539 l 2.84766,-2.63476 c -0.67878,-0.87118 -1.53372,-1.52973 -2.56445,-1.97852 -1.01817,-0.46199 -2.17405,-0.69336 -3.46875,-0.69336 z m 92.81445,0 c -1.31985,0 -2.44482,0.20409 -3.375,0.61328 -0.91761,0.40919 -1.60913,0.97081 -2.07422,1.6836 -0.46509,0.71278 -0.69727,1.50382 -0.69727,2.375 0,1.00317 0.25111,1.8025 0.75391,2.39648 0.5028,0.58078 1.09466,1.00359 1.77344,1.26758 0.67878,0.25079 1.52675,0.48849 2.54492,0.71289 0.79191,0.17159 1.35788,0.32941 1.69727,0.47461 0.35195,0.14519 0.52734,0.36195 0.52734,0.65234 0,0.2508 -0.13252,0.44222 -0.39649,0.57422 -0.26396,0.1188 -0.70438,0.17969 -1.32031,0.17969 -0.71649,0 -1.46285,-0.1135 -2.24219,-0.33789 -0.77933,-0.2376 -1.48478,-0.5469 -2.11328,-0.92969 l -1.43164,3.4043 c 0.66621,0.43559 1.51419,0.78679 2.54492,1.05078 1.04331,0.25079 2.1115,0.375 3.20508,0.375 1.31985,0 2.43786,-0.20409 3.35547,-0.61328 0.93018,-0.42239 1.62866,-0.98402 2.09375,-1.6836 0.46509,-0.71278 0.69727,-1.50382 0.69727,-2.375 0,-1.00317 -0.25807,-1.79617 -0.77344,-2.37695 -0.5028,-0.58078 -1.09967,-0.9953 -1.79102,-1.24609 -0.69134,-0.264 -1.53932,-0.49537 -2.54492,-0.69336 -0.77934,-0.1584 -1.33834,-0.30355 -1.67773,-0.43555 -0.33939,-0.1452 -0.50977,-0.35562 -0.50977,-0.63281 0,-0.58079 0.57293,-0.87305 1.7168,-0.87305 1.15644,0 2.38107,0.34487 3.67578,1.03125 l 1.33984,-3.38672 c -0.6662,-0.39599 -1.44041,-0.69263 -2.32031,-0.89062 -0.86733,-0.2112 -1.75316,-0.31641 -2.6582,-0.31641 z m -142.84182,0.31641 v 13.85937 h 4.0547 v -6.09765 l 2.8652,4.8496 h 1.961 l 2.8672,-5.06835 0.037,6.3164 h 4.0547 l -0.039,-13.85937 h -3.6582 l -4.1855,7.38476 -4.2989,-7.38476 z m 24.1934,0 v 13.85937 h 10.9746 v -3.52344 h -6.5996 v -1.82226 h 5.5801 v -3.36524 h -5.5801 v -1.625 h 6.3535 v -3.52343 z m 43.93748,0 -5.76953,13.85937 h 4.52344 l 0.88672,-2.41601 h 5.01562 l 0.88672,2.41601 h 4.59961 l -5.76953,-13.85937 z m 17.06445,0 v 13.85937 h 7.42969 c 1.81008,0 3.19312,-0.33025 4.14844,-0.99023 0.95532,-0.67318 1.43164,-1.61571 1.43164,-2.83008 0,-0.81838 -0.21325,-1.51883 -0.64062,-2.09961 -0.42738,-0.58078 -1.03121,-1.02258 -1.81055,-1.32617 0.60336,-0.31679 1.05574,-0.73326 1.35742,-1.24805 0.31425,-0.51478 0.47266,-1.0954 0.47266,-1.74219 0,-1.09557 -0.45239,-1.97283 -1.35743,-2.63281 -0.89246,-0.65998 -2.21872,-0.99023 -3.97851,-0.99023 z m 20.78125,0 v 13.85937 h 4.44922 V 617.2168 Z m 11.80469,0 v 3.62304 h 3.86524 v 10.23633 h 4.44921 v -10.23633 h 3.86524 v -3.62304 z m -28.21094,3.26758 h 2.07422 c 0.96789,0 1.45118,0.34291 1.45117,1.02929 10e-6,0.68638 -0.48328,1.0293 -1.45117,1.0293 h -2.07422 z m -19.29101,1.32617 1.2832,3.48437 h -2.56445 z m 19.29101,3.82031 h 2.67774 c 0.98046,0 1.4707,0.36386 1.4707,1.08984 0,0.72598 -0.49024,1.08789 -1.4707,1.08789 h -2.67774 z"
       transform="scale(0.26458333)" />
    <g
       id="g79696"
       transform="matrix(0,0.78075251,0.78075251,0,-292.44955,71.53579)"
       style="fill:#6fc9eb;fill-opacity:1;stroke:#ffffff;stroke-width:1.31385;stroke-miterlimit:4;stroke-dasharray:none;stroke-opacity:1"
       inkscape:export-filename="C:\Users\WinnerPC18\Desktop\plan3mb.png"
       inkscape:export-xdpi="300"
       inkscape:export-ydpi="300">
      <g
         id="g79664"
         style="fill:#6fc9eb;fill-opacity:1;stroke:#ffffff;stroke-width:1.31385;stroke-miterlimit:4;stroke-dasharray:none;stroke-opacity:1">
        <g
           id="path79662" />
      </g>
      <g
         id="g79666"
         style="fill:#6fc9eb;fill-opacity:1;stroke:#ffffff;stroke-width:1.31385;stroke-miterlimit:4;stroke-dasharray:none;stroke-opacity:1" />
      <g
         id="g79668"
         style="fill:#6fc9eb;fill-opacity:1;stroke:#ffffff;stroke-width:1.31385;stroke-miterlimit:4;stroke-dasharray:none;stroke-opacity:1" />
      <g
         id="g79670"
         style="fill:#6fc9eb;fill-opacity:1;stroke:#ffffff;stroke-width:1.31385;stroke-miterlimit:4;stroke-dasharray:none;stroke-opacity:1" />
      <g
         id="g79672"
         style="fill:#6fc9eb;fill-opacity:1;stroke:#ffffff;stroke-width:1.31385;stroke-miterlimit:4;stroke-dasharray:none;stroke-opacity:1" />
      <g
         id="g79674"
         style="fill:#6fc9eb;fill-opacity:1;stroke:#ffffff;stroke-width:1.31385;stroke-miterlimit:4;stroke-dasharray:none;stroke-opacity:1" />
      <g
         id="g79676"
         style="fill:#6fc9eb;fill-opacity:1;stroke:#ffffff;stroke-width:1.31385;stroke-miterlimit:4;stroke-dasharray:none;stroke-opacity:1" />
      <g
         id="g79678"
         style="fill:#6fc9eb;fill-opacity:1;stroke:#ffffff;stroke-width:1.31385;stroke-miterlimit:4;stroke-dasharray:none;stroke-opacity:1" />
      <g
         id="g79680"
         style="fill:#6fc9eb;fill-opacity:1;stroke:#ffffff;stroke-width:1.31385;stroke-miterlimit:4;stroke-dasharray:none;stroke-opacity:1" />
      <g
         id="g79682"
         style="fill:#6fc9eb;fill-opacity:1;stroke:#ffffff;stroke-width:1.31385;stroke-miterlimit:4;stroke-dasharray:none;stroke-opacity:1" />
      <g
         id="g79684"
         style="fill:#6fc9eb;fill-opacity:1;stroke:#ffffff;stroke-width:1.31385;stroke-miterlimit:4;stroke-dasharray:none;stroke-opacity:1" />
      <g
         id="g79686"
         style="fill:#6fc9eb;fill-opacity:1;stroke:#ffffff;stroke-width:1.31385;stroke-miterlimit:4;stroke-dasharray:none;stroke-opacity:1" />
      <g
         id="g79688"
         style="fill:#6fc9eb;fill-opacity:1;stroke:#ffffff;stroke-width:1.31385;stroke-miterlimit:4;stroke-dasharray:none;stroke-opacity:1" />
      <g
         id="g79690"
         style="fill:#6fc9eb;fill-opacity:1;stroke:#ffffff;stroke-width:1.31385;stroke-miterlimit:4;stroke-dasharray:none;stroke-opacity:1" />
      <g
         id="g79692"
         style="fill:#6fc9eb;fill-opacity:1;stroke:#ffffff;stroke-width:1.31385;stroke-miterlimit:4;stroke-dasharray:none;stroke-opacity:1" />
      <g
         id="g79694"
         style="fill:#6fc9eb;fill-opacity:1;stroke:#ffffff;stroke-width:1.31385;stroke-miterlimit:4;stroke-dasharray:none;stroke-opacity:1" />
    </g>
    <g
       id="g79732"
       transform="matrix(0,0.76407086,0.76407086,0,-291.62835,73.208989)"
       style="fill:#323070;fill-opacity:1"
       inkscape:export-filename="C:\Users\WinnerPC18\Desktop\plan3mb.png"
       inkscape:export-xdpi="300"
       inkscape:export-ydpi="300">
      <g
         id="g79700"
         style="fill:#323070;fill-opacity:1" />
      <g
         id="g79702"
         style="fill:#323070;fill-opacity:1" />
      <g
         id="g79704"
         style="fill:#323070;fill-opacity:1" />
      <g
         id="g79706"
         style="fill:#323070;fill-opacity:1" />
      <g
         id="g79708"
         style="fill:#323070;fill-opacity:1" />
      <g
         id="g79710"
         style="fill:#323070;fill-opacity:1" />
      <g
         id="g79712"
         style="fill:#323070;fill-opacity:1" />
      <g
         id="g79714"
         style="fill:#323070;fill-opacity:1" />
      <g
         id="g79716"
         style="fill:#323070;fill-opacity:1" />
      <g
         id="g79718"
         style="fill:#323070;fill-opacity:1" />
      <g
         id="g79720"
         style="fill:#323070;fill-opacity:1" />
      <g
         id="g79722"
         style="fill:#323070;fill-opacity:1" />
      <g
         id="g79724"
         style="fill:#323070;fill-opacity:1" />
      <g
         id="g79726"
         style="fill:#323070;fill-opacity:1" />
      <g
         id="g79728"
         style="fill:#323070;fill-opacity:1" />
      <g
         id="g79730"
         style="fill:#323070;fill-opacity:1" />
    </g>
    <g
       id="g79772"
       transform="matrix(0,-0.41348773,0.41348773,0,-254.42005,194.52913)"
       style="fill:#009fdb;fill-opacity:1;stroke:#ffffff;stroke-width:2.07839;stroke-miterlimit:4;stroke-dasharray:none;stroke-opacity:1"
       inkscape:export-filename="C:\Users\WinnerPC18\Desktop\plan3mb.png"
       inkscape:export-xdpi="300"
       inkscape:export-ydpi="300">
      <g
         id="g79740"
         style="fill:#009fdb;fill-opacity:1;stroke:#ffffff;stroke-width:2.07839;stroke-miterlimit:4;stroke-dasharray:none;stroke-opacity:1" />
      <g
         id="g79742"
         style="fill:#009fdb;fill-opacity:1;stroke:#ffffff;stroke-width:2.07839;stroke-miterlimit:4;stroke-dasharray:none;stroke-opacity:1" />
      <g
         id="g79744"
         style="fill:#009fdb;fill-opacity:1;stroke:#ffffff;stroke-width:2.07839;stroke-miterlimit:4;stroke-dasharray:none;stroke-opacity:1" />
      <g
         id="g79746"
         style="fill:#009fdb;fill-opacity:1;stroke:#ffffff;stroke-width:2.07839;stroke-miterlimit:4;stroke-dasharray:none;stroke-opacity:1" />
      <g
         id="g79748"
         style="fill:#009fdb;fill-opacity:1;stroke:#ffffff;stroke-width:2.07839;stroke-miterlimit:4;stroke-dasharray:none;stroke-opacity:1" />
      <g
         id="g79750"
         style="fill:#009fdb;fill-opacity:1;stroke:#ffffff;stroke-width:2.07839;stroke-miterlimit:4;stroke-dasharray:none;stroke-opacity:1" />
      <g
         id="g79752"
         style="fill:#009fdb;fill-opacity:1;stroke:#ffffff;stroke-width:2.07839;stroke-miterlimit:4;stroke-dasharray:none;stroke-opacity:1" />
      <g
         id="g79754"
         style="fill:#009fdb;fill-opacity:1;stroke:#ffffff;stroke-width:2.07839;stroke-miterlimit:4;stroke-dasharray:none;stroke-opacity:1" />
      <g
         id="g79756"
         style="fill:#009fdb;fill-opacity:1;stroke:#ffffff;stroke-width:2.07839;stroke-miterlimit:4;stroke-dasharray:none;stroke-opacity:1" />
      <g
         id="g79758"
         style="fill:#009fdb;fill-opacity:1;stroke:#ffffff;stroke-width:2.07839;stroke-miterlimit:4;stroke-dasharray:none;stroke-opacity:1" />
      <g
         id="g79760"
         style="fill:#009fdb;fill-opacity:1;stroke:#ffffff;stroke-width:2.07839;stroke-miterlimit:4;stroke-dasharray:none;stroke-opacity:1" />
      <g
         id="g79762"
         style="fill:#009fdb;fill-opacity:1;stroke:#ffffff;stroke-width:2.07839;stroke-miterlimit:4;stroke-dasharray:none;stroke-opacity:1" />
      <g
         id="g79764"
         style="fill:#009fdb;fill-opacity:1;stroke:#ffffff;stroke-width:2.07839;stroke-miterlimit:4;stroke-dasharray:none;stroke-opacity:1" />
      <g
         id="g79766"
         style="fill:#009fdb;fill-opacity:1;stroke:#ffffff;stroke-width:2.07839;stroke-miterlimit:4;stroke-dasharray:none;stroke-opacity:1" />
      <g
         id="g79768"
         style="fill:#009fdb;fill-opacity:1;stroke:#ffffff;stroke-width:2.07839;stroke-miterlimit:4;stroke-dasharray:none;stroke-opacity:1" />
      <g
         id="g79770"
         style="fill:#009fdb;fill-opacity:1;stroke:#ffffff;stroke-width:2.07839;stroke-miterlimit:4;stroke-dasharray:none;stroke-opacity:1" />
    </g>
    <g
       id="g79808"
       transform="matrix(0,-0.41348773,0.41348773,0,-254.42005,194.52913)"
       style="fill:#009fdb;fill-opacity:1"
       inkscape:export-filename="C:\Users\WinnerPC18\Desktop\plan3mb.png"
       inkscape:export-xdpi="300"
       inkscape:export-ydpi="300">
      <g
         id="g79776"
         style="fill:#009fdb;fill-opacity:1" />
      <g
         id="g79778"
         style="fill:#009fdb;fill-opacity:1" />
      <g
         id="g79780"
         style="fill:#009fdb;fill-opacity:1" />
      <g
         id="g79782"
         style="fill:#009fdb;fill-opacity:1" />
      <g
         id="g79784"
         style="fill:#009fdb;fill-opacity:1" />
      <g
         id="g79786"
         style="fill:#009fdb;fill-opacity:1" />
      <g
         id="g79788"
         style="fill:#009fdb;fill-opacity:1" />
      <g
         id="g79790"
         style="fill:#009fdb;fill-opacity:1" />
      <g
         id="g79792"
         style="fill:#009fdb;fill-opacity:1" />
      <g
         id="g79794"
         style="fill:#009fdb;fill-opacity:1" />
      <g
         id="g79796"
         style="fill:#009fdb;fill-opacity:1" />
      <g
         id="g79798"
         style="fill:#009fdb;fill-opacity:1" />
      <g
         id="g79800"
         style="fill:#009fdb;fill-opacity:1" />
      <g
         id="g79802"
         style="fill:#009fdb;fill-opacity:1" />
      <g
         id="g79804"
         style="fill:#009fdb;fill-opacity:1" />
      <g
         id="g79806"
         style="fill:#009fdb;fill-opacity:1" />
    </g>
    <g
       id="g86276"
       transform="matrix(0,0.78075251,0.78075251,0,-110.91231,71.804562)"
       style="fill:#6fc9eb;fill-opacity:1;stroke:#ffffff;stroke-width:1.31385;stroke-miterlimit:4;stroke-dasharray:none;stroke-opacity:1"
       inkscape:export-filename="C:\Users\WinnerPC18\Desktop\plan3mb.png"
       inkscape:export-xdpi="300"
       inkscape:export-ydpi="300">
      <g
         id="g86244"
         style="fill:#6fc9eb;fill-opacity:1;stroke:#ffffff;stroke-width:1.31385;stroke-miterlimit:4;stroke-dasharray:none;stroke-opacity:1">
        <g
           id="path86242" />
      </g>
      <g
         id="g86246"
         style="fill:#6fc9eb;fill-opacity:1;stroke:#ffffff;stroke-width:1.31385;stroke-miterlimit:4;stroke-dasharray:none;stroke-opacity:1" />
      <g
         id="g86248"
         style="fill:#6fc9eb;fill-opacity:1;stroke:#ffffff;stroke-width:1.31385;stroke-miterlimit:4;stroke-dasharray:none;stroke-opacity:1" />
      <g
         id="g86250"
         style="fill:#6fc9eb;fill-opacity:1;stroke:#ffffff;stroke-width:1.31385;stroke-miterlimit:4;stroke-dasharray:none;stroke-opacity:1" />
      <g
         id="g86252"
         style="fill:#6fc9eb;fill-opacity:1;stroke:#ffffff;stroke-width:1.31385;stroke-miterlimit:4;stroke-dasharray:none;stroke-opacity:1" />
      <g
         id="g86254"
         style="fill:#6fc9eb;fill-opacity:1;stroke:#ffffff;stroke-width:1.31385;stroke-miterlimit:4;stroke-dasharray:none;stroke-opacity:1" />
      <g
         id="g86256"
         style="fill:#6fc9eb;fill-opacity:1;stroke:#ffffff;stroke-width:1.31385;stroke-miterlimit:4;stroke-dasharray:none;stroke-opacity:1" />
      <g
         id="g86258"
         style="fill:#6fc9eb;fill-opacity:1;stroke:#ffffff;stroke-width:1.31385;stroke-miterlimit:4;stroke-dasharray:none;stroke-opacity:1" />
      <g
         id="g86260"
         style="fill:#6fc9eb;fill-opacity:1;stroke:#ffffff;stroke-width:1.31385;stroke-miterlimit:4;stroke-dasharray:none;stroke-opacity:1" />
      <g
         id="g86262"
         style="fill:#6fc9eb;fill-opacity:1;stroke:#ffffff;stroke-width:1.31385;stroke-miterlimit:4;stroke-dasharray:none;stroke-opacity:1" />
      <g
         id="g86264"
         style="fill:#6fc9eb;fill-opacity:1;stroke:#ffffff;stroke-width:1.31385;stroke-miterlimit:4;stroke-dasharray:none;stroke-opacity:1" />
      <g
         id="g86266"
         style="fill:#6fc9eb;fill-opacity:1;stroke:#ffffff;stroke-width:1.31385;stroke-miterlimit:4;stroke-dasharray:none;stroke-opacity:1" />
      <g
         id="g86268"
         style="fill:#6fc9eb;fill-opacity:1;stroke:#ffffff;stroke-width:1.31385;stroke-miterlimit:4;stroke-dasharray:none;stroke-opacity:1" />
      <g
         id="g86270"
         style="fill:#6fc9eb;fill-opacity:1;stroke:#ffffff;stroke-width:1.31385;stroke-miterlimit:4;stroke-dasharray:none;stroke-opacity:1" />
      <g
         id="g86272"
         style="fill:#6fc9eb;fill-opacity:1;stroke:#ffffff;stroke-width:1.31385;stroke-miterlimit:4;stroke-dasharray:none;stroke-opacity:1" />
      <g
         id="g86274"
         style="fill:#6fc9eb;fill-opacity:1;stroke:#ffffff;stroke-width:1.31385;stroke-miterlimit:4;stroke-dasharray:none;stroke-opacity:1" />
    </g>
    <g
       id="g86312"
       transform="matrix(0,0.76407086,0.76407086,0,-110.09111,73.477761)"
       style="fill:#323070;fill-opacity:1"
       inkscape:export-filename="C:\Users\WinnerPC18\Desktop\plan3mb.png"
       inkscape:export-xdpi="300"
       inkscape:export-ydpi="300">
      <g
         id="g86280"
         style="fill:#323070;fill-opacity:1" />
      <g
         id="g86282"
         style="fill:#323070;fill-opacity:1" />
      <g
         id="g86284"
         style="fill:#323070;fill-opacity:1" />
      <g
         id="g86286"
         style="fill:#323070;fill-opacity:1" />
      <g
         id="g86288"
         style="fill:#323070;fill-opacity:1" />
      <g
         id="g86290"
         style="fill:#323070;fill-opacity:1" />
      <g
         id="g86292"
         style="fill:#323070;fill-opacity:1" />
      <g
         id="g86294"
         style="fill:#323070;fill-opacity:1" />
      <g
         id="g86296"
         style="fill:#323070;fill-opacity:1" />
      <g
         id="g86298"
         style="fill:#323070;fill-opacity:1" />
      <g
         id="g86300"
         style="fill:#323070;fill-opacity:1" />
      <g
         id="g86302"
         style="fill:#323070;fill-opacity:1" />
      <g
         id="g86304"
         style="fill:#323070;fill-opacity:1" />
      <g
         id="g86306"
         style="fill:#323070;fill-opacity:1" />
      <g
         id="g86308"
         style="fill:#323070;fill-opacity:1" />
      <g
         id="g86310"
         style="fill:#323070;fill-opacity:1" />
    </g>
    <g
       id="g86388"
       transform="matrix(0,-0.41348773,0.41348773,0,-65.673905,194.7979)"
       style="fill:#009fdb;fill-opacity:1"
       inkscape:export-filename="C:\Users\WinnerPC18\Desktop\plan3mb.png"
       inkscape:export-xdpi="300"
       inkscape:export-ydpi="300">
      <g
         id="g86356"
         style="fill:#009fdb;fill-opacity:1" />
      <g
         id="g86358"
         style="fill:#009fdb;fill-opacity:1" />
      <g
         id="g86360"
         style="fill:#009fdb;fill-opacity:1" />
      <g
         id="g86362"
         style="fill:#009fdb;fill-opacity:1" />
      <g
         id="g86364"
         style="fill:#009fdb;fill-opacity:1" />
      <g
         id="g86366"
         style="fill:#009fdb;fill-opacity:1" />
      <g
         id="g86368"
         style="fill:#009fdb;fill-opacity:1" />
      <g
         id="g86370"
         style="fill:#009fdb;fill-opacity:1" />
      <g
         id="g86372"
         style="fill:#009fdb;fill-opacity:1" />
      <g
         id="g86374"
         style="fill:#009fdb;fill-opacity:1" />
      <g
         id="g86376"
         style="fill:#009fdb;fill-opacity:1" />
      <g
         id="g86378"
         style="fill:#009fdb;fill-opacity:1" />
      <g
         id="g86380"
         style="fill:#009fdb;fill-opacity:1" />
      <g
         id="g86382"
         style="fill:#009fdb;fill-opacity:1" />
      <g
         id="g86384"
         style="fill:#009fdb;fill-opacity:1" />
      <g
         id="g86386"
         style="fill:#009fdb;fill-opacity:1" />
    </g>
    <g
       id="g86352"
       transform="matrix(0,-0.41348773,0.41348773,0,-65.673905,194.7979)"
       style="fill:#009fdb;fill-opacity:1;stroke:#ffffff;stroke-width:2.07839;stroke-miterlimit:4;stroke-dasharray:none;stroke-opacity:1"
       inkscape:export-filename="C:\Users\WinnerPC18\Desktop\plan3mb.png"
       inkscape:export-xdpi="300"
       inkscape:export-ydpi="300">
      <g
         id="g86320"
         style="fill:#009fdb;fill-opacity:1;stroke:#ffffff;stroke-width:2.07839;stroke-miterlimit:4;stroke-dasharray:none;stroke-opacity:1">
        <g
           id="path86318" />
      </g>
      <g
         id="g86322"
         style="fill:#009fdb;fill-opacity:1;stroke:#ffffff;stroke-width:2.07839;stroke-miterlimit:4;stroke-dasharray:none;stroke-opacity:1" />
      <g
         id="g86324"
         style="fill:#009fdb;fill-opacity:1;stroke:#ffffff;stroke-width:2.07839;stroke-miterlimit:4;stroke-dasharray:none;stroke-opacity:1" />
      <g
         id="g86326"
         style="fill:#009fdb;fill-opacity:1;stroke:#ffffff;stroke-width:2.07839;stroke-miterlimit:4;stroke-dasharray:none;stroke-opacity:1" />
      <g
         id="g86328"
         style="fill:#009fdb;fill-opacity:1;stroke:#ffffff;stroke-width:2.07839;stroke-miterlimit:4;stroke-dasharray:none;stroke-opacity:1" />
      <g
         id="g86330"
         style="fill:#009fdb;fill-opacity:1;stroke:#ffffff;stroke-width:2.07839;stroke-miterlimit:4;stroke-dasharray:none;stroke-opacity:1" />
      <g
         id="g86332"
         style="fill:#009fdb;fill-opacity:1;stroke:#ffffff;stroke-width:2.07839;stroke-miterlimit:4;stroke-dasharray:none;stroke-opacity:1" />
      <g
         id="g86334"
         style="fill:#009fdb;fill-opacity:1;stroke:#ffffff;stroke-width:2.07839;stroke-miterlimit:4;stroke-dasharray:none;stroke-opacity:1" />
      <g
         id="g86336"
         style="fill:#009fdb;fill-opacity:1;stroke:#ffffff;stroke-width:2.07839;stroke-miterlimit:4;stroke-dasharray:none;stroke-opacity:1" />
      <g
         id="g86338"
         style="fill:#009fdb;fill-opacity:1;stroke:#ffffff;stroke-width:2.07839;stroke-miterlimit:4;stroke-dasharray:none;stroke-opacity:1" />
      <g
         id="g86340"
         style="fill:#009fdb;fill-opacity:1;stroke:#ffffff;stroke-width:2.07839;stroke-miterlimit:4;stroke-dasharray:none;stroke-opacity:1" />
      <g
         id="g86342"
         style="fill:#009fdb;fill-opacity:1;stroke:#ffffff;stroke-width:2.07839;stroke-miterlimit:4;stroke-dasharray:none;stroke-opacity:1" />
      <g
         id="g86344"
         style="fill:#009fdb;fill-opacity:1;stroke:#ffffff;stroke-width:2.07839;stroke-miterlimit:4;stroke-dasharray:none;stroke-opacity:1" />
      <g
         id="g86346"
         style="fill:#009fdb;fill-opacity:1;stroke:#ffffff;stroke-width:2.07839;stroke-miterlimit:4;stroke-dasharray:none;stroke-opacity:1" />
      <g
         id="g86348"
         style="fill:#009fdb;fill-opacity:1;stroke:#ffffff;stroke-width:2.07839;stroke-miterlimit:4;stroke-dasharray:none;stroke-opacity:1" />
      <g
         id="g86350"
         style="fill:#009fdb;fill-opacity:1;stroke:#ffffff;stroke-width:2.07839;stroke-miterlimit:4;stroke-dasharray:none;stroke-opacity:1" />
    </g>
  </g>
</svg>
