<?xml version="1.0" encoding="UTF-8" standalone="no"?>
<!-- Created with Inkscape (http://www.inkscape.org/) -->

<svg
   width="43.124496mm"
   height="10.204545mm"
   viewBox="0 0 43.124496 10.204545"
   version="1.1"
   id="svg16559"
   inkscape:version="1.1 (c68e22c387, 2021-05-23)"
   sodipodi:docname="44-95.svg"
   xmlns:inkscape="http://www.inkscape.org/namespaces/inkscape"
   xmlns:sodipodi="http://sodipodi.sourceforge.net/DTD/sodipodi-0.dtd"
   xmlns="http://www.w3.org/2000/svg"
   xmlns:svg="http://www.w3.org/2000/svg">
  <sodipodi:namedview
     id="namedview16561"
     pagecolor="#ffffff"
     bordercolor="#666666"
     borderopacity="1.0"
     inkscape:pageshadow="2"
     inkscape:pageopacity="0.0"
     inkscape:pagecheckerboard="0"
     inkscape:document-units="mm"
     showgrid="false"
     fit-margin-top="0"
     fit-margin-left="0"
     fit-margin-right="0"
     fit-margin-bottom="0"
     inkscape:zoom="0.67081229"
     inkscape:cx="301.87282"
     inkscape:cy="2.236095"
     inkscape:window-width="1920"
     inkscape:window-height="1009"
     inkscape:window-x="-8"
     inkscape:window-y="-8"
     inkscape:window-maximized="1"
     inkscape:current-layer="layer1" />
  <defs
     id="defs16556" />
  <g
     inkscape:label="Capa 1"
     inkscape:groupmode="layer"
     id="layer1"
     transform="translate(-25.246004,-147.97753)">
    <path
       id="text237"
       style="font-style:normal;font-variant:normal;font-weight:900;font-stretch:normal;font-size:5.76434px;line-height:1.25;font-family:Montserrat;-inkscape-font-specification:'Montserrat Heavy';letter-spacing:0px;word-spacing:0px;fill:#ffffff;fill-opacity:1;stroke:none;stroke-width:0.544664"
       d="m 152.98047,559.28516 -15.44727,23.48828 v 8.19336 h 18.88086 v 6.55273 h 11.91016 v -6.55273 h 4.83789 v -9.9961 h -4.83789 v -5.84375 h -11.54688 v 5.84375 h -4.9414 l 13.73242,-21.68554 z m 37.03515,0 -15.44921,23.48828 v 8.19336 h 18.88086 v 6.55273 h 11.91211 v -6.55273 h 4.83789 v -9.9961 h -4.83789 v -5.84375 H 193.8125 v 5.84375 h -4.94141 l 13.73243,-21.68554 z m 39.04883,0.64062 c -1.55323,0 -2.96812,0.31031 -4.24609,0.92969 -1.27797,0.61938 -2.28999,1.50593 -3.03711,2.66211 -0.72746,1.15618 -1.0918,2.48893 -1.0918,3.99609 0,1.36264 0.32384,2.5701 0.97266,3.62305 0.64882,1.05295 1.51434,1.86918 2.5957,2.44726 1.08136,0.57809 2.25146,0.86719 3.50977,0.86719 1.65153,0 3.01825,-0.40379 4.09961,-1.20898 -0.23594,1.19747 -0.74871,2.11583 -1.53516,2.75586 -0.76678,0.61938 -1.74989,0.92968 -2.94922,0.92968 -1.47458,0 -2.72176,-0.38258 -3.74414,-1.14648 l -2.50781,5.11133 c 0.78644,0.53679 1.74064,0.94924 2.86133,1.23828 1.12068,0.30969 2.30041,0.46484 3.53906,0.46484 2.28069,0 4.27581,-0.47606 5.98633,-1.42578 1.73018,-0.94972 3.06798,-2.33159 4.01172,-4.14844 0.96339,-1.81685 1.44531,-3.96388 1.44531,-6.4414 0,-2.31236 -0.41447,-4.26377 -1.24023,-5.85352 -0.82577,-1.58974 -1.98428,-2.7866 -3.47852,-3.59179 -1.47458,-0.8052 -3.20563,-1.20899 -5.19141,-1.20899 z m -125.88672,0.16992 c -1.43153,0 -2.49299,0.40992 -3.187496,1.22852 v -1.00586 h -4.572265 v 16.54297 h 4.804691 v -5.15625 c 0.68033,0.69953 1.66527,1.04883 2.95507,1.04883 1.02051,0 1.95623,-0.25372 2.80665,-0.75977 0.86459,-0.52093 1.54493,-1.25643 2.04101,-2.20898 0.51025,-0.96744 0.76563,-2.0845 0.76563,-3.34961 0,-1.26511 -0.25538,-2.38022 -0.76563,-3.34766 -0.49608,-0.96744 -1.17642,-1.70489 -2.04101,-2.21094 -0.85042,-0.52093 -1.78614,-0.78125 -2.80665,-0.78125 z m 13.26758,0 c -1.2898,0 -2.45165,0.26693 -3.48633,0.80274 -1.0205,0.53581 -1.82122,1.28842 -2.40234,2.25586 -0.58112,0.95255 -0.87305,2.0393 -0.87305,3.25976 0,1.22046 0.29193,2.31381 0.87305,3.28125 0.58112,0.95256 1.38184,1.70517 2.40234,2.25586 1.03468,0.53581 2.19653,0.80274 3.48633,0.80274 1.30398,0 2.46583,-0.26693 3.48633,-0.80274 1.03468,-0.55069 1.8354,-1.3033 2.40234,-2.25586 0.58112,-0.96744 0.8711,-2.06079 0.8711,-3.28125 0,-1.22046 -0.28998,-2.30721 -0.8711,-3.25976 -0.56694,-0.96744 -1.36766,-1.72005 -2.40234,-2.25586 -1.0205,-0.53581 -2.18235,-0.80274 -3.48633,-0.80274 z m 16.60352,0 c -1.65832,0 -2.9113,0.51405 -3.76172,1.54102 v -1.31836 h -4.57227 v 12.21289 h 4.80469 v -5.42578 c 0,-1.75627 0.82265,-2.63477 2.4668,-2.63477 0.32599,0 0.67981,0.0303 1.0625,0.0899 z m 109.43555,0.32618 -1.03321,13.1621 h 5.98633 c 1.17967,0 1.99701,0.13395 2.44922,0.40235 0.4522,0.24775 0.67773,0.63033 0.67773,1.14648 0,0.5368 -0.25639,0.95984 -0.76757,1.26953 -0.49153,0.28905 -1.13921,0.4336 -1.94532,0.4336 -0.90441,0 -1.83934,-0.1359 -2.80273,-0.4043 -0.94374,-0.2684 -1.8478,-0.65963 -2.71289,-1.17578 l -2.35938,5.38867 c 1.08136,0.64003 2.34013,1.12474 3.77539,1.45508 1.45493,0.33034 2.91031,0.49609 4.36524,0.49609 2.10374,0 3.86174,-0.35077 5.27734,-1.05273 1.4156,-0.72261 2.45848,-1.65158 3.12695,-2.78711 0.68814,-1.15618 1.03125,-2.41666 1.03125,-3.7793 0,-2.0646 -0.68622,-3.72692 -2.0625,-4.98633 -1.35661,-1.28005 -3.4809,-1.91992 -6.37109,-1.91992 h -1.0625 l 0.14844,-2.13672 h 7.99219 v -5.51171 z m -140.45313,3.60351 c 0.55277,0 1.00503,0.21486 1.35937,0.64649 0.35435,0.41674 0.53126,1.0046 0.53126,1.76367 0,0.75906 -0.17691,1.34693 -0.53126,1.76367 -0.35434,0.41674 -0.8066,0.625 -1.35937,0.625 -0.55277,0 -1.00699,-0.20826 -1.36133,-0.625 -0.35434,-0.41674 -0.53125,-1.00461 -0.53125,-1.76367 0,-0.75907 0.17691,-1.34693 0.53125,-1.76367 0.35434,-0.43163 0.80856,-0.64649 1.36133,-0.64649 z m 14.41406,0 c 0.55277,0 1.00699,0.20826 1.36133,0.625 0.35434,0.41674 0.53125,1.00461 0.53125,1.76367 0,0.75907 -0.17691,1.35353 -0.53125,1.78516 -0.35434,0.41674 -0.80856,0.625 -1.36133,0.625 -0.55277,0 -1.00698,-0.20826 -1.36133,-0.625 -0.35434,-0.43163 -0.53125,-1.02609 -0.53125,-1.78516 0,-0.75906 0.17691,-1.34693 0.53125,-1.76367 0.35435,-0.41674 0.80856,-0.625 1.36133,-0.625 z m 113.0918,0.94922 c 0.62916,0 1.13998,0.19562 1.5332,0.58789 0.39322,0.39227 0.58985,0.92806 0.58985,1.60938 0,0.68131 -0.19663,1.22965 -0.58985,1.64257 -0.39322,0.39228 -0.90404,0.58789 -1.5332,0.58789 -0.62916,0 -1.13998,-0.19561 -1.5332,-0.58789 -0.39323,-0.41292 -0.58985,-0.96126 -0.58985,-1.64257 0,-0.68132 0.19662,-1.21711 0.58985,-1.60938 0.39322,-0.39227 0.90404,-0.58789 1.5332,-0.58789 z m -13.68555,9.44531 c -1.12068,0 -2.05366,0.37198 -2.80078,1.11524 -0.72746,0.72261 -1.0918,1.67083 -1.0918,2.84765 0,1.17683 0.36434,2.14821 1.0918,2.91211 0.74712,0.74326 1.6801,1.11524 2.80078,1.11524 1.12069,0 2.04598,-0.37198 2.77344,-1.11524 0.74712,-0.7639 1.12109,-1.73528 1.12109,-2.91211 0,-1.17682 -0.37397,-2.12504 -1.12109,-2.84765 -0.72746,-0.74326 -1.65275,-1.11524 -2.77344,-1.11524 z m -90.29101,2.73633 v 2.40039 c -1.66348,0.24954 -2.9413,0.83694 -3.83594,1.76172 -0.88066,0.92478 -1.32227,2.03246 -1.32227,3.32422 0,1.11561 0.2807,2.0035 0.83985,2.66406 0.55915,0.64588 1.21585,1.11658 1.9707,1.41016 0.75486,0.2789 1.6978,0.54342 2.83008,0.79297 0.88066,0.19082 1.50929,0.36587 1.88672,0.52734 0.3914,0.16147 0.58789,0.40362 0.58789,0.72656 0,0.2789 -0.1459,0.49188 -0.43946,0.63867 -0.29355,0.13212 -0.78378,0.19922 -1.46874,0.19922 -0.7968,0 -1.62746,-0.12545 -2.49415,-0.375 -0.86668,-0.26422 -1.65067,-0.60946 -2.34961,-1.03515 l -1.59374,3.78711 c 0.62904,0.41101 1.41858,0.75625 2.36914,1.03515 0.96453,0.2789 1.97112,0.44715 3.01953,0.50586 v 2.33399 h 2.95703 v -2.44336 c 1.56562,-0.29358 2.76869,-0.89654 3.60742,-1.80664 0.85271,-0.92478 1.27734,-2.00329 1.27734,-3.23633 0,-1.11561 -0.28624,-1.9967 -0.85937,-2.64258 -0.55915,-0.64588 -1.22336,-1.10782 -1.99219,-1.38672 -0.76883,-0.29358 -1.71177,-0.54935 -2.83008,-0.76953 -0.86668,-0.17615 -1.4878,-0.33759 -1.86523,-0.48438 -0.37743,-0.16147 -0.56641,-0.39681 -0.56641,-0.70507 0,-0.64588 0.63614,-0.96875 1.90821,-0.96875 1.28604,0 2.64807,0.38122 4.08789,1.14453 l 1.48828,-3.76563 c -1.16024,-0.68991 -2.57841,-1.11587 -4.25586,-1.27734 v -2.35547 z m 96.15429,9.02148 v 10.11719 h 2.93555 v -10.11719 z m -5.11523,2.52344 c -0.57129,0 -1.14662,0.0759 -1.72656,0.23047 -0.57129,0.14543 -1.05997,0.34969 -1.4668,0.61328 l 0.93359,2.0332 c 0.23371,-0.18179 0.51483,-0.32384 0.84375,-0.42382 0.32893,-0.10908 0.65434,-0.16407 0.97461,-0.16407 0.79635,0 1.24268,0.29132 1.33789,0.87305 h -1.18164 c -1.09064,0 -1.90474,0.19051 -2.4414,0.57227 -0.53667,0.38176 -0.80469,0.94148 -0.80469,1.67773 0,0.4363 0.0997,0.83106 0.29883,1.18555 0.20774,0.3454 0.50501,0.62297 0.89453,0.83203 0.39817,0.19997 0.87877,0.30078 1.4414,0.30078 1.00409,0 1.6761,-0.3738 2.01368,-1.11914 v 0.98242 h 2.72656 v -4.00781 c 0,-1.218 -0.33043,-2.11944 -0.98828,-2.70117 -0.65785,-0.59082 -1.60902,-0.88477 -2.85547,-0.88477 z m 18.04687,0 c -0.81365,0 -1.4837,0.27562 -2.01171,0.83008 v -0.69531 h -2.79102 v 7.45898 h 2.93359 v -3.64062 c 0,-0.47266 0.0816,-0.81701 0.2461,-1.03516 0.17312,-0.21815 0.39879,-0.32812 0.67578,-0.32812 0.52801,0 0.79297,0.42683 0.79297,1.28125 v 3.72265 h 2.93359 v -3.64062 c 0,-0.47266 0.0816,-0.81701 0.2461,-1.03516 0.17311,-0.21815 0.39879,-0.32812 0.67578,-0.32812 0.52801,0 0.79101,0.42683 0.79101,1.28125 v 3.72265 h 2.93555 v -4.2539 c 0,-1.11802 -0.25994,-1.95531 -0.7793,-2.50977 -0.5107,-0.55446 -1.19384,-0.83008 -2.05078,-0.83008 -0.48473,0 -0.93106,0.0989 -1.33789,0.29883 -0.40683,0.19088 -0.75342,0.46845 -1.03906,0.83203 -0.24237,-0.38176 -0.55469,-0.66391 -0.93555,-0.8457 -0.38086,-0.19088 -0.80908,-0.28516 -1.28516,-0.28516 z m 12.47852,0 c -0.76172,0 -1.44988,0.16301 -2.06445,0.49024 -0.60592,0.32722 -1.08652,0.78613 -1.44141,1.37695 -0.34624,0.58173 -0.51953,1.24489 -0.51953,1.99023 0,0.73626 0.17831,1.39942 0.5332,1.99024 0.3549,0.59082 0.85667,1.05431 1.50586,1.39062 0.6492,0.32723 1.40088,0.49219 2.25781,0.49219 1.3763,0 2.41105,-0.40129 3.10352,-1.20117 l -1.53125,-1.62109 c -0.25102,0.19996 -0.48477,0.34006 -0.70117,0.42187 -0.20774,0.0818 -0.46769,0.12305 -0.7793,0.12305 -0.36355,0 -0.66584,-0.0733 -0.9082,-0.21875 -0.24237,-0.15453 -0.41566,-0.37252 -0.51953,-0.6543 h 4.93359 c 0.026,-0.4363 0.0391,-0.67721 0.0391,-0.72266 0,-0.80896 -0.17831,-1.5042 -0.5332,-2.08593 -0.34624,-0.58173 -0.8168,-1.02232 -1.41406,-1.32227 -0.5886,-0.29995 -1.2425,-0.44922 -1.96094,-0.44922 z m 8.12695,0 c -0.77037,0 -1.43235,0.11261 -1.98633,0.33985 -0.54532,0.22723 -0.95543,0.5323 -1.23242,0.91406 -0.27699,0.38176 -0.41601,0.81318 -0.41601,1.29492 0,0.609 0.15212,1.07707 0.45508,1.4043 0.31161,0.32722 0.66934,0.5498 1.07617,0.66797 0.40683,0.10907 0.90052,0.20072 1.48047,0.27343 0.38086,0.0455 0.65389,0.0913 0.81836,0.13672 0.17311,0.0454 0.25976,0.12598 0.25976,0.24414 0,0.11817 -0.0685,0.20981 -0.20703,0.27344 -0.12984,0.0545 -0.36359,0.082 -0.70117,0.082 -0.42414,0 -0.86239,-0.0596 -1.3125,-0.17773 -0.45011,-0.11817 -0.83905,-0.28118 -1.16797,-0.49024 l -0.80469,2.03125 c 0.36355,0.21815 0.83913,0.39491 1.42774,0.53125 0.5886,0.13635 1.1851,0.20508 1.79101,0.20508 0.78769,0 1.4597,-0.11456 2.01367,-0.3418 0.55398,-0.22723 0.96911,-0.5323 1.2461,-0.91406 0.27699,-0.38176 0.41601,-0.80401 0.41601,-1.26758 0,-0.609 -0.15713,-1.07707 -0.46875,-1.40429 -0.30295,-0.32723 -0.65762,-0.54981 -1.06445,-0.66797 -0.39817,-0.11817 -0.88685,-0.21244 -1.4668,-0.28516 -0.3722,-0.0455 -0.64524,-0.0913 -0.81836,-0.13672 -0.17311,-0.0545 -0.25976,-0.1416 -0.25976,-0.25976 0,-0.23633 0.3204,-0.35352 0.96094,-0.35352 0.7444,0 1.4295,0.18134 2.05273,0.54492 l 0.80469,-2.03125 c -0.36355,-0.19997 -0.80487,-0.35118 -1.32422,-0.45117 -0.5107,-0.10907 -1.0356,-0.16211 -1.57227,-0.16211 z m -8.10156,2.09961 c 0.30296,0 0.55482,0.0897 0.75391,0.27149 0.19908,0.1727 0.32808,0.41361 0.38867,0.72265 h -2.28516 c 0.0606,-0.31813 0.19154,-0.56363 0.39063,-0.73633 0.19908,-0.1727 0.44899,-0.25781 0.75195,-0.25781 z m -30.36914,2.54883 h 0.72656 v 0.51758 c -0.0779,0.23633 -0.19882,0.41504 -0.36328,0.5332 -0.16446,0.11816 -0.35085,0.17578 -0.55859,0.17578 -0.2164,0 -0.38969,-0.053 -0.51953,-0.16211 -0.12119,-0.11816 -0.18164,-0.2648 -0.18164,-0.4375 0,-0.41812 0.29922,-0.62695 0.89648,-0.62695 z"
       transform="scale(0.26458333)" />
  </g>
</svg>
