<?xml version="1.0" encoding="UTF-8" standalone="no"?>
<!-- Created with Inkscape (http://www.inkscape.org/) -->

<svg
   width="52.538773mm"
   height="27.061398mm"
   viewBox="0 0 52.538773 27.061398"
   version="1.1"
   id="svg132798"
   sodipodi:docname="50Mb.svg"
   inkscape:version="1.1 (c68e22c387, 2021-05-23)"
   xmlns:inkscape="http://www.inkscape.org/namespaces/inkscape"
   xmlns:sodipodi="http://sodipodi.sourceforge.net/DTD/sodipodi-0.dtd"
   xmlns="http://www.w3.org/2000/svg"
   xmlns:svg="http://www.w3.org/2000/svg">
  <sodipodi:namedview
     id="namedview132800"
     pagecolor="#ffffff"
     bordercolor="#666666"
     borderopacity="1.0"
     inkscape:pageshadow="2"
     inkscape:pageopacity="0.0"
     inkscape:pagecheckerboard="0"
     inkscape:document-units="mm"
     showgrid="false"
     inkscape:zoom="0.69397447"
     inkscape:cx="149.14093"
     inkscape:cy="150.58191"
     inkscape:window-width="1920"
     inkscape:window-height="1009"
     inkscape:window-x="-8"
     inkscape:window-y="-8"
     inkscape:window-maximized="1"
     inkscape:current-layer="layer1"
     fit-margin-top="0"
     fit-margin-left="0"
     fit-margin-right="0"
     fit-margin-bottom="0" />
  <defs
     id="defs132795" />
  <g
     inkscape:label="Capa 1"
     inkscape:groupmode="layer"
     id="layer1"
     transform="translate(193.72306,-139.96923)">
    <path
       id="text69535"
       style="font-style:normal;font-variant:normal;font-weight:900;font-stretch:normal;font-size:22.679px;line-height:1.25;font-family:Montserrat;-inkscape-font-specification:'Montserrat Heavy';text-align:end;letter-spacing:-0.555625px;word-spacing:0px;text-anchor:end;fill:#ffffff;fill-opacity:1;stroke:none;stroke-width:1.91233"
       d="m -726.82031,529.01758 -1.66992,8.77148 h 2.8164 l 0.61914,-3.23242 h 2.60157 l -0.61915,3.23242 h 2.81641 l 1.66992,-8.77148 h -2.8164 l -0.59571,3.10742 h -2.60156 l 0.5957,-3.10742 z m 24.83398,0.375 -0.37109,1.91797 h -0.89453 l -0.39258,2.06836 h 0.90625 l -0.33399,1.72851 c -0.0476,0.23395 -0.0723,0.45861 -0.0723,0.67578 0,0.67669 0.21128,1.20413 0.63281,1.58008 0.42962,0.36775 1.01403,0.55078 1.75391,0.55078 0.71599,0 1.30422,-0.13306 1.76562,-0.40039 l -0.30859,-1.90429 c -0.22262,0.10847 -0.42263,0.1621 -0.59766,0.1621 -0.33411,0 -0.50195,-0.15912 -0.50195,-0.47656 0,-0.034 0.008,-0.10101 0.0273,-0.20117 l 0.32227,-1.71484 h 1.33594 l 0.39453,-2.06836 h -1.33789 l 0.37109,-1.91797 z m -13.22265,1.41601 c -0.62057,0 -1.19745,0.17117 -1.73047,0.51368 -0.53303,0.34242 -0.95911,0.8145 -1.27735,1.41601 -0.3103,0.60148 -0.46484,1.2707 -0.46484,2.00586 0,0.65163 0.12811,1.21859 0.38281,1.70313 0.26268,0.47618 0.59997,0.84117 1.01367,1.09179 0.41367,0.25059 0.84354,0.375 1.28907,0.375 0.68417,0 1.27236,-0.2506 1.76562,-0.75195 l -0.11914,0.62695 h 2.54102 l 1.30078,-6.85547 h -2.69531 l -0.14454,0.72852 c -0.36585,-0.56806 -0.98621,-0.85352 -1.86132,-0.85352 z m 8.81836,0 c -1.08197,0 -1.96427,0.22145 -2.64844,0.66407 -0.68421,0.44273 -1.02735,1.0859 -1.02735,1.92968 0,0.46783 0.12429,0.83619 0.3711,1.10352 0.24642,0.2589 0.5332,0.44216 0.85937,0.55078 0.32618,0.10016 0.72398,0.18846 1.19336,0.26367 0.30236,0.042 0.52102,0.0884 0.65625,0.13867 0.14325,0.042 0.21485,0.10738 0.21485,0.19922 0,0.21733 -0.26757,0.32618 -0.80079,0.32618 -0.38184,0 -0.77965,-0.0536 -1.19335,-0.16211 -0.40574,-0.10848 -0.76201,-0.26419 -1.07227,-0.46485 l -0.93164,1.92969 c 0.29442,0.18368 0.70342,0.33412 1.22851,0.45117 0.52506,0.11679 1.06992,0.17578 1.63477,0.17578 0.68417,0 1.30071,-0.0947 1.84961,-0.28711 0.55691,-0.192 0.99426,-0.48093 1.3125,-0.86523 0.32617,-0.39262 0.49023,-0.86466 0.49023,-1.41602 0,-0.45947 -0.12233,-0.81919 -0.36914,-1.07812 -0.23886,-0.26721 -0.52144,-0.45055 -0.84765,-0.55078 -0.31824,-0.10848 -0.70848,-0.20018 -1.16992,-0.27539 -0.32618,-0.0586 -0.55618,-0.10844 -0.69141,-0.15039 -0.13531,-0.0499 -0.20313,-0.12105 -0.20313,-0.2129 0,-0.0918 0.064,-0.17176 0.19141,-0.23828 0.13531,-0.0669 0.34433,-0.10156 0.63086,-0.10156 0.7319,0 1.38046,0.17121 1.94531,0.51367 l 0.93164,-1.92968 c -0.34204,-0.16706 -0.73611,-0.29148 -1.18164,-0.375 -0.43755,-0.0919 -0.89573,-0.13868 -1.37304,-0.13868 z m 11.58789,0 c -0.62053,0 -1.19745,0.17117 -1.73047,0.51368 -0.53303,0.34242 -0.95911,0.8145 -1.27735,1.41601 -0.3103,0.60148 -0.46484,1.2707 -0.46484,2.00586 0,0.65163 0.12811,1.21859 0.38281,1.70313 0.26268,0.47618 0.59997,0.84117 1.01367,1.09179 0.41367,0.25059 0.84354,0.375 1.28907,0.375 0.68417,0 1.27239,-0.2506 1.76562,-0.75195 l -0.11914,0.62695 h 2.54102 l 1.30078,-6.85547 h -2.69727 l -0.14258,0.72852 c -0.36585,-0.56806 -0.98621,-0.85352 -1.86132,-0.85352 z m -19.96485,2.23047 c 0.30236,0 0.53799,0.10009 0.70508,0.30078 0.17499,0.192 0.26172,0.45155 0.26172,0.77735 0,0.47618 -0.11099,0.85659 -0.33399,1.14062 -0.21467,0.28422 -0.49759,0.42578 -0.84765,0.42578 -0.30236,0 -0.53982,-0.0967 -0.71485,-0.28906 -0.16705,-0.20031 -0.25195,-0.46327 -0.25195,-0.78906 0,-0.47618 0.10721,-0.85656 0.32227,-1.14063 0.22261,-0.28384 0.50931,-0.42578 0.85937,-0.42578 z m 20.40625,0 c 0.30236,0 0.53802,0.10009 0.70508,0.30078 0.17499,0.192 0.26172,0.45155 0.26172,0.77735 0,0.47618 -0.11099,0.85659 -0.33399,1.14062 -0.21467,0.28422 -0.49763,0.42578 -0.84765,0.42578 -0.30236,0 -0.54177,-0.0967 -0.7168,-0.28906 -0.16705,-0.20031 -0.25,-0.46327 -0.25,-0.78906 0,-0.47618 0.10721,-0.85656 0.32227,-1.14063 0.22261,-0.28384 0.50931,-0.42578 0.85937,-0.42578 z m 94.50977,8.56055 c -0.56247,0.009 -1.07619,0.38138 -1.24219,0.95117 l -17.86133,61.31445 c -0.2043,0.70128 0.19521,1.42851 0.89649,1.63282 l 0.51367,0.15039 c 0.70128,0.2043 1.43046,-0.19521 1.63476,-0.89649 l 17.86328,-61.31445 c 0.20431,-0.70128 -0.19715,-1.43046 -0.89843,-1.63477 l -0.51367,-0.15039 c -0.13149,-0.0383 -0.26278,-0.0549 -0.39258,-0.0527 z m -62.5,2.85156 0.002,0.002 c -4.62811,0 -8.73338,1.14987 -12.31641,3.44922 -3.53325,2.24705 -6.32098,5.53961 -8.36132,9.87696 -1.99057,4.28511 -2.98633,9.40595 -2.98633,15.36328 0,5.95733 0.99576,11.10406 2.98633,15.4414 2.04034,4.28512 4.82807,7.57764 8.36132,9.87696 3.58303,2.24704 7.6883,3.37109 12.31641,3.37109 4.62807,0 8.7089,-1.12405 12.24219,-3.37109 3.48555,-2.2368 6.21087,-5.42113 8.18945,-9.53711 l -9.43555,-11.85547 -0.008,-0.008 c -0.57517,-0.74215 -0.87357,-1.58809 -0.93359,-2.4375 -0.18029,-2.5482 1.75718,-5.14063 4.59961,-5.14063 h 4.58203 c 0.60692,0 0.82422,-0.17499 0.82422,-0.50781 v -12.2832 c -1.94453,-3.79994 -4.54551,-6.73726 -7.82032,-8.79102 -3.53329,-2.29931 -7.61408,-3.44922 -12.24218,-3.44922 z m -63.48438,1.25586 -2.61328,33.31445 h 15.15234 c 2.98587,0 5.05073,0.34017 6.19532,1.01954 1.14455,0.62709 1.71875,1.59395 1.71875,2.90039 0,1.3587 -0.64753,2.42901 -1.94141,3.21289 -1.24411,0.7316 -2.88739,1.09765 -4.92773,1.09765 -2.28919,0 -4.65137,-0.34016 -7.08985,-1.01953 -2.38866,-0.67937 -4.67951,-1.67208 -6.86914,-2.97851 l -5.9707,13.63867 c 2.73706,1.61994 5.92188,2.84944 9.55469,3.68554 3.68254,0.83611 7.36433,1.25391 11.04687,1.25391 5.32483,0 9.78025,-0.88926 13.36328,-2.66601 3.58303,-1.82899 6.22013,-4.18055 7.91211,-7.05469 1.74176,-2.92641 2.61133,-6.11353 2.61133,-9.5625 0,-5.22573 -1.74109,-9.4334 -5.22461,-12.6211 -3.43374,-3.23996 -8.80769,-4.85937 -16.12305,-4.85937 h -2.6875 l 0.37305,-5.4082 h 20.22852 v -13.95313 z m 88.16602,6.57422 c -1.48068,0 -2.52539,1.1742 -2.52539,2.61133 v 14.02539 c 0,1.43713 -1.26209,2.39453 -2.69922,2.39453 h -4.48633 c -2.22101,0 -3.43987,2.6135 -2.08984,4.35547 l 13.41211,16.85351 c 1.04518,1.34992 3.09211,1.30569 4.09375,-0.0879 l 13.0664,-16.80859 c 1.35003,-1.69842 0.1306,-4.3125 -2.04687,-4.3125 h -4.48633 c -1.43669,0 -2.57031,-0.9574 -2.57031,-2.39453 v -14.02539 c 0,-1.43713 -1.21775,-2.61133 -2.61133,-2.61133 z m -24.67969,6.98633 c 3.98113,0 5.9707,4.62547 5.9707,13.875 0,9.24956 -1.98957,13.875 -5.9707,13.875 -3.98116,0 -5.97266,-4.62544 -5.97266,-13.875 0,-9.24953 1.9915,-13.875 5.97266,-13.875 z m 101.2793,4.12109 -0.002,0.002 c -2.97826,0 -5.63113,0.77457 -7.95898,2.32032 -2.32785,1.54579 -4.16101,3.79246 -5.49609,6.74023 -1.30088,2.91179 -1.95118,6.39882 -1.95118,10.46094 0,4.06212 0.6503,7.56594 1.95118,10.51367 1.33508,2.91179 3.16824,5.14175 5.49609,6.6875 2.32785,1.54579 4.98072,2.31836 7.95898,2.31836 2.97831,0 5.63114,-0.77257 7.95899,-2.31836 2.32785,-1.54575 4.14252,-3.77571 5.44336,-6.6875 0.87658,-1.93534 1.45891,-4.11587 1.75976,-6.53125 -0.70359,-0.576 -1.15429,-1.45275 -1.15429,-2.36328 v -7.26172 h -2.26563 c -1.85677,0 -3.1299,-1.71082 -3.01758,-3.38281 0.0378,-0.55733 0.22791,-1.11106 0.60352,-1.5957 l 0.008,-0.008 2.33203,-2.92968 c -1.04239,-1.47818 -2.27735,-2.69519 -3.70703,-3.64454 -2.32788,-1.54578 -4.98068,-2.32031 -7.95898,-2.32031 z m 18.98633,0.24414 c -0.41538,-0.009 -0.83438,0.16794 -1.11719,0.53321 l -7.25977,9.12109 c -0.73059,0.94269 -0.0691,2.35742 1.13282,2.35742 h 2.42578 c 0.77772,0 1.46289,0.5172 1.46289,1.29492 v 7.58985 c 0,0.77772 0.56394,1.41406 1.36523,1.41406 h 3.81836 c 0.75416,0 1.41406,-0.63634 1.41406,-1.41406 v -7.58985 c 0,-0.77772 0.61314,-1.29492 1.39063,-1.29492 h 2.42773 c 1.17837,0 1.83801,-1.41486 1.10742,-2.33398 l -7.07031,-9.09766 c -0.27102,-0.37708 -0.68228,-0.57123 -1.09765,-0.58008 z m -56.16602,0.40625 v 7.00977 h 7.18945 v 30.73437 h 8.31836 v -37.74414 z m 37.17773,6.74024 c 2.19096,0 3.90238,0.98769 5.13477,2.96484 1.26663,1.97711 1.90039,5.03392 1.90039,9.16797 0,4.13401 -0.63376,7.18888 -1.90039,9.16601 -1.23239,1.97715 -2.94381,2.96485 -5.13477,2.96485 -2.15667,0 -3.86813,-0.9877 -5.13476,-2.96485 -1.23239,-1.97713 -1.84961,-5.032 -1.84961,-9.16601 0,-4.13405 0.61722,-7.19086 1.84961,-9.16797 1.26663,-1.97715 2.97809,-2.96484 5.13476,-2.96484 z"
       transform="scale(0.26458333)" />
    <path
       id="text69543"
       style="font-style:normal;font-variant:normal;font-weight:900;font-stretch:normal;font-size:5.11213px;line-height:1.25;font-family:Montserrat;-inkscape-font-specification:'Montserrat Heavy';letter-spacing:1.68247px;word-spacing:0px;fill:#323070;fill-opacity:1;stroke:none;stroke-width:0.483035"
       d="m -656.16211,616.80469 c -1.43298,0 -2.72137,0.3093 -3.86523,0.92969 -1.1313,0.60718 -2.01714,1.46544 -2.65821,2.57421 -0.6285,1.09557 -0.94336,2.34303 -0.94336,3.74219 0,1.39916 0.31486,2.65295 0.94336,3.76172 0.64107,1.09557 1.51995,1.95384 2.63867,2.57422 1.11873,0.60718 2.38318,0.91016 3.79102,0.91016 0.99303,-10e-6 2.00442,-0.15149 3.03516,-0.45508 1.03073,-0.30359 1.9355,-0.73906 2.71484,-1.30664 v -5.86133 h -3.86523 v 3.50586 c -0.51537,0.22439 -1.05545,0.33593 -1.6211,0.33593 -0.95531,10e-6 -1.72256,-0.31758 -2.30078,-0.95117 -0.56565,-0.63358 -0.84765,-1.4709 -0.84765,-2.51367 0,-1.06917 0.28896,-1.91477 0.86718,-2.53516 0.57822,-0.62038 1.35744,-0.92968 2.33789,-0.92968 1.14387,0 2.12937,0.50706 2.95899,1.52344 l 2.84765,-2.63282 c -0.67877,-0.87117 -1.53371,-1.53168 -2.56445,-1.98047 -1.01817,-0.46198 -2.17404,-0.6914 -3.46875,-0.6914 z m 92.81445,0 c -1.31984,0 -2.44482,0.20409 -3.375,0.61328 -0.9176,0.40919 -1.60913,0.96886 -2.07422,1.68164 -0.46508,0.71278 -0.69726,1.50578 -0.69726,2.37695 0,1.00318 0.25111,1.8025 0.75391,2.39649 0.50279,0.58078 1.09465,1.00163 1.77343,1.26562 0.67878,0.2508 1.52676,0.4885 2.54492,0.71289 0.79191,0.1716 1.35788,0.33137 1.69727,0.47656 0.35196,0.1452 0.52734,0.36196 0.52734,0.65235 0,0.25079 -0.13251,0.44222 -0.39648,0.57422 -0.26397,0.11879 -0.70438,0.17773 -1.32031,0.17773 -0.71649,0 -1.46285,-0.11154 -2.24219,-0.33594 -0.77934,-0.23759 -1.48478,-0.54689 -2.11328,-0.92968 l -1.43164,3.40429 c 0.66621,0.43559 1.51418,0.78484 2.54492,1.04883 1.04331,0.2508 2.11149,0.37696 3.20508,0.37696 1.31984,0 2.43981,-0.2041 3.35742,-0.61329 0.93018,-0.42238 1.62671,-0.98401 2.0918,-1.68359 0.46509,-0.71278 0.69726,-1.50382 0.69726,-2.375 0,-1.00317 -0.25807,-1.79617 -0.77343,-2.37695 -0.5028,-0.58079 -1.09967,-0.9953 -1.79102,-1.2461 -0.69135,-0.26399 -1.53933,-0.49536 -2.54492,-0.69336 -0.77934,-0.15839 -1.33835,-0.30355 -1.67774,-0.43554 -0.33939,-0.1452 -0.50976,-0.35758 -0.50976,-0.63477 0,-0.58078 0.57293,-0.87109 1.71679,-0.87109 1.15644,0 2.38108,0.34291 3.67579,1.02929 l 1.33984,-3.38476 c -0.66621,-0.39599 -1.44042,-0.69263 -2.32031,-0.89063 -0.86733,-0.21119 -1.75317,-0.3164 -2.65821,-0.3164 z m -142.84179,0.3164 v 13.85938 h 4.05468 v -6.09766 l 2.86524,4.84961 h 1.96094 l 2.86718,-5.06836 0.0371,6.31641 h 4.05469 l -0.0391,-13.85938 h -3.65821 l -4.18554,7.38477 -4.29883,-7.38477 z m 24.19336,0 v 13.85938 h 10.97461 v -3.52539 h -6.59961 v -1.82031 h 5.58007 v -3.36719 h -5.58007 v -1.62305 h 6.35351 v -3.52344 z m 43.9375,0 -5.76953,13.85938 h 4.52343 l 0.88672,-2.41602 h 5.01563 l 0.88672,2.41602 h 4.5996 l -5.76953,-13.85938 z m 17.06445,0 v 13.85938 h 7.42969 c 1.81007,0 3.19312,-0.33025 4.14843,-0.99024 0.95532,-0.67318 1.43164,-1.61766 1.43164,-2.83203 10e-6,-0.81837 -0.21324,-1.51687 -0.64062,-2.09765 -0.42738,-0.58079 -1.03121,-1.02258 -1.81055,-1.32617 0.60336,-0.3168 1.0577,-0.73327 1.35938,-1.24805 0.31425,-0.51479 0.4707,-1.09541 0.4707,-1.74219 0,-1.09557 -0.45238,-1.97283 -1.35742,-2.63281 -0.89247,-0.65998 -2.21872,-0.99024 -3.97852,-0.99024 z m 20.78125,0 v 13.85938 h 4.44922 v -13.85938 z m 11.80469,0 v 3.62305 h 3.86523 v 10.23633 h 4.44922 v -10.23633 h 3.86523 v -3.62305 z m -28.21094,3.26563 h 2.07422 c 0.96789,0 1.45117,0.34487 1.45117,1.03125 0,0.68638 -0.48328,1.0293 -1.45117,1.0293 h -2.07422 z m -19.29102,1.32812 1.28321,3.48438 h -2.56446 z m 19.29102,3.82032 h 2.67773 c 0.98046,0 1.47071,0.36386 1.47071,1.08984 0,0.72598 -0.49025,1.08789 -1.47071,1.08789 h -2.67773 z"
       transform="scale(0.26458333)" />
    <g
       id="g69579"
       transform="matrix(0,0.78075251,0.78075251,0,-205.93845,71.510355)"
       style="fill:#6fc9eb;fill-opacity:1;stroke:#ffffff;stroke-width:1.31385;stroke-miterlimit:4;stroke-dasharray:none;stroke-opacity:1"
       inkscape:export-filename="C:\Users\WinnerPC18\Desktop\plan3mb.png"
       inkscape:export-xdpi="300"
       inkscape:export-ydpi="300">
      <g
         id="g69547"
         style="fill:#6fc9eb;fill-opacity:1;stroke:#ffffff;stroke-width:1.31385;stroke-miterlimit:4;stroke-dasharray:none;stroke-opacity:1">
        <g
           id="path69545" />
      </g>
      <g
         id="g69549"
         style="fill:#6fc9eb;fill-opacity:1;stroke:#ffffff;stroke-width:1.31385;stroke-miterlimit:4;stroke-dasharray:none;stroke-opacity:1" />
      <g
         id="g69551"
         style="fill:#6fc9eb;fill-opacity:1;stroke:#ffffff;stroke-width:1.31385;stroke-miterlimit:4;stroke-dasharray:none;stroke-opacity:1" />
      <g
         id="g69553"
         style="fill:#6fc9eb;fill-opacity:1;stroke:#ffffff;stroke-width:1.31385;stroke-miterlimit:4;stroke-dasharray:none;stroke-opacity:1" />
      <g
         id="g69555"
         style="fill:#6fc9eb;fill-opacity:1;stroke:#ffffff;stroke-width:1.31385;stroke-miterlimit:4;stroke-dasharray:none;stroke-opacity:1" />
      <g
         id="g69557"
         style="fill:#6fc9eb;fill-opacity:1;stroke:#ffffff;stroke-width:1.31385;stroke-miterlimit:4;stroke-dasharray:none;stroke-opacity:1" />
      <g
         id="g69559"
         style="fill:#6fc9eb;fill-opacity:1;stroke:#ffffff;stroke-width:1.31385;stroke-miterlimit:4;stroke-dasharray:none;stroke-opacity:1" />
      <g
         id="g69561"
         style="fill:#6fc9eb;fill-opacity:1;stroke:#ffffff;stroke-width:1.31385;stroke-miterlimit:4;stroke-dasharray:none;stroke-opacity:1" />
      <g
         id="g69563"
         style="fill:#6fc9eb;fill-opacity:1;stroke:#ffffff;stroke-width:1.31385;stroke-miterlimit:4;stroke-dasharray:none;stroke-opacity:1" />
      <g
         id="g69565"
         style="fill:#6fc9eb;fill-opacity:1;stroke:#ffffff;stroke-width:1.31385;stroke-miterlimit:4;stroke-dasharray:none;stroke-opacity:1" />
      <g
         id="g69567"
         style="fill:#6fc9eb;fill-opacity:1;stroke:#ffffff;stroke-width:1.31385;stroke-miterlimit:4;stroke-dasharray:none;stroke-opacity:1" />
      <g
         id="g69569"
         style="fill:#6fc9eb;fill-opacity:1;stroke:#ffffff;stroke-width:1.31385;stroke-miterlimit:4;stroke-dasharray:none;stroke-opacity:1" />
      <g
         id="g69571"
         style="fill:#6fc9eb;fill-opacity:1;stroke:#ffffff;stroke-width:1.31385;stroke-miterlimit:4;stroke-dasharray:none;stroke-opacity:1" />
      <g
         id="g69573"
         style="fill:#6fc9eb;fill-opacity:1;stroke:#ffffff;stroke-width:1.31385;stroke-miterlimit:4;stroke-dasharray:none;stroke-opacity:1" />
      <g
         id="g69575"
         style="fill:#6fc9eb;fill-opacity:1;stroke:#ffffff;stroke-width:1.31385;stroke-miterlimit:4;stroke-dasharray:none;stroke-opacity:1" />
      <g
         id="g69577"
         style="fill:#6fc9eb;fill-opacity:1;stroke:#ffffff;stroke-width:1.31385;stroke-miterlimit:4;stroke-dasharray:none;stroke-opacity:1" />
    </g>
    <g
       id="g69615"
       transform="matrix(0,0.76407086,0.76407086,0,-205.11725,73.183554)"
       style="fill:#323070;fill-opacity:1"
       inkscape:export-filename="C:\Users\WinnerPC18\Desktop\plan3mb.png"
       inkscape:export-xdpi="300"
       inkscape:export-ydpi="300">
      <g
         id="g69583"
         style="fill:#323070;fill-opacity:1" />
      <g
         id="g69585"
         style="fill:#323070;fill-opacity:1" />
      <g
         id="g69587"
         style="fill:#323070;fill-opacity:1" />
      <g
         id="g69589"
         style="fill:#323070;fill-opacity:1" />
      <g
         id="g69591"
         style="fill:#323070;fill-opacity:1" />
      <g
         id="g69593"
         style="fill:#323070;fill-opacity:1" />
      <g
         id="g69595"
         style="fill:#323070;fill-opacity:1" />
      <g
         id="g69597"
         style="fill:#323070;fill-opacity:1" />
      <g
         id="g69599"
         style="fill:#323070;fill-opacity:1" />
      <g
         id="g69601"
         style="fill:#323070;fill-opacity:1" />
      <g
         id="g69603"
         style="fill:#323070;fill-opacity:1" />
      <g
         id="g69605"
         style="fill:#323070;fill-opacity:1" />
      <g
         id="g69607"
         style="fill:#323070;fill-opacity:1" />
      <g
         id="g69609"
         style="fill:#323070;fill-opacity:1" />
      <g
         id="g69611"
         style="fill:#323070;fill-opacity:1" />
      <g
         id="g69613"
         style="fill:#323070;fill-opacity:1" />
    </g>
    <g
       id="g69655"
       transform="matrix(0,-0.41348773,0.41348773,0,-163.65149,194.5037)"
       style="fill:#009fdb;fill-opacity:1"
       inkscape:export-filename="C:\Users\WinnerPC18\Desktop\plan3mb.png"
       inkscape:export-xdpi="300"
       inkscape:export-ydpi="300">
      <g
         id="g69623"
         style="fill:#009fdb;fill-opacity:1" />
      <g
         id="g69625"
         style="fill:#009fdb;fill-opacity:1" />
      <g
         id="g69627"
         style="fill:#009fdb;fill-opacity:1" />
      <g
         id="g69629"
         style="fill:#009fdb;fill-opacity:1" />
      <g
         id="g69631"
         style="fill:#009fdb;fill-opacity:1" />
      <g
         id="g69633"
         style="fill:#009fdb;fill-opacity:1" />
      <g
         id="g69635"
         style="fill:#009fdb;fill-opacity:1" />
      <g
         id="g69637"
         style="fill:#009fdb;fill-opacity:1" />
      <g
         id="g69639"
         style="fill:#009fdb;fill-opacity:1" />
      <g
         id="g69641"
         style="fill:#009fdb;fill-opacity:1" />
      <g
         id="g69643"
         style="fill:#009fdb;fill-opacity:1" />
      <g
         id="g69645"
         style="fill:#009fdb;fill-opacity:1" />
      <g
         id="g69647"
         style="fill:#009fdb;fill-opacity:1" />
      <g
         id="g69649"
         style="fill:#009fdb;fill-opacity:1" />
      <g
         id="g69651"
         style="fill:#009fdb;fill-opacity:1" />
      <g
         id="g69653"
         style="fill:#009fdb;fill-opacity:1" />
    </g>
    <g
       id="g79696"
       transform="matrix(0,0.78075251,0.78075251,0,-292.44955,71.53579)"
       style="fill:#6fc9eb;fill-opacity:1;stroke:#ffffff;stroke-width:1.31385;stroke-miterlimit:4;stroke-dasharray:none;stroke-opacity:1"
       inkscape:export-filename="C:\Users\WinnerPC18\Desktop\plan3mb.png"
       inkscape:export-xdpi="300"
       inkscape:export-ydpi="300">
      <g
         id="g79664"
         style="fill:#6fc9eb;fill-opacity:1;stroke:#ffffff;stroke-width:1.31385;stroke-miterlimit:4;stroke-dasharray:none;stroke-opacity:1">
        <g
           id="path79662" />
      </g>
      <g
         id="g79666"
         style="fill:#6fc9eb;fill-opacity:1;stroke:#ffffff;stroke-width:1.31385;stroke-miterlimit:4;stroke-dasharray:none;stroke-opacity:1" />
      <g
         id="g79668"
         style="fill:#6fc9eb;fill-opacity:1;stroke:#ffffff;stroke-width:1.31385;stroke-miterlimit:4;stroke-dasharray:none;stroke-opacity:1" />
      <g
         id="g79670"
         style="fill:#6fc9eb;fill-opacity:1;stroke:#ffffff;stroke-width:1.31385;stroke-miterlimit:4;stroke-dasharray:none;stroke-opacity:1" />
      <g
         id="g79672"
         style="fill:#6fc9eb;fill-opacity:1;stroke:#ffffff;stroke-width:1.31385;stroke-miterlimit:4;stroke-dasharray:none;stroke-opacity:1" />
      <g
         id="g79674"
         style="fill:#6fc9eb;fill-opacity:1;stroke:#ffffff;stroke-width:1.31385;stroke-miterlimit:4;stroke-dasharray:none;stroke-opacity:1" />
      <g
         id="g79676"
         style="fill:#6fc9eb;fill-opacity:1;stroke:#ffffff;stroke-width:1.31385;stroke-miterlimit:4;stroke-dasharray:none;stroke-opacity:1" />
      <g
         id="g79678"
         style="fill:#6fc9eb;fill-opacity:1;stroke:#ffffff;stroke-width:1.31385;stroke-miterlimit:4;stroke-dasharray:none;stroke-opacity:1" />
      <g
         id="g79680"
         style="fill:#6fc9eb;fill-opacity:1;stroke:#ffffff;stroke-width:1.31385;stroke-miterlimit:4;stroke-dasharray:none;stroke-opacity:1" />
      <g
         id="g79682"
         style="fill:#6fc9eb;fill-opacity:1;stroke:#ffffff;stroke-width:1.31385;stroke-miterlimit:4;stroke-dasharray:none;stroke-opacity:1" />
      <g
         id="g79684"
         style="fill:#6fc9eb;fill-opacity:1;stroke:#ffffff;stroke-width:1.31385;stroke-miterlimit:4;stroke-dasharray:none;stroke-opacity:1" />
      <g
         id="g79686"
         style="fill:#6fc9eb;fill-opacity:1;stroke:#ffffff;stroke-width:1.31385;stroke-miterlimit:4;stroke-dasharray:none;stroke-opacity:1" />
      <g
         id="g79688"
         style="fill:#6fc9eb;fill-opacity:1;stroke:#ffffff;stroke-width:1.31385;stroke-miterlimit:4;stroke-dasharray:none;stroke-opacity:1" />
      <g
         id="g79690"
         style="fill:#6fc9eb;fill-opacity:1;stroke:#ffffff;stroke-width:1.31385;stroke-miterlimit:4;stroke-dasharray:none;stroke-opacity:1" />
      <g
         id="g79692"
         style="fill:#6fc9eb;fill-opacity:1;stroke:#ffffff;stroke-width:1.31385;stroke-miterlimit:4;stroke-dasharray:none;stroke-opacity:1" />
      <g
         id="g79694"
         style="fill:#6fc9eb;fill-opacity:1;stroke:#ffffff;stroke-width:1.31385;stroke-miterlimit:4;stroke-dasharray:none;stroke-opacity:1" />
    </g>
    <g
       id="g79732"
       transform="matrix(0,0.76407086,0.76407086,0,-291.62835,73.208989)"
       style="fill:#323070;fill-opacity:1"
       inkscape:export-filename="C:\Users\WinnerPC18\Desktop\plan3mb.png"
       inkscape:export-xdpi="300"
       inkscape:export-ydpi="300">
      <g
         id="g79700"
         style="fill:#323070;fill-opacity:1" />
      <g
         id="g79702"
         style="fill:#323070;fill-opacity:1" />
      <g
         id="g79704"
         style="fill:#323070;fill-opacity:1" />
      <g
         id="g79706"
         style="fill:#323070;fill-opacity:1" />
      <g
         id="g79708"
         style="fill:#323070;fill-opacity:1" />
      <g
         id="g79710"
         style="fill:#323070;fill-opacity:1" />
      <g
         id="g79712"
         style="fill:#323070;fill-opacity:1" />
      <g
         id="g79714"
         style="fill:#323070;fill-opacity:1" />
      <g
         id="g79716"
         style="fill:#323070;fill-opacity:1" />
      <g
         id="g79718"
         style="fill:#323070;fill-opacity:1" />
      <g
         id="g79720"
         style="fill:#323070;fill-opacity:1" />
      <g
         id="g79722"
         style="fill:#323070;fill-opacity:1" />
      <g
         id="g79724"
         style="fill:#323070;fill-opacity:1" />
      <g
         id="g79726"
         style="fill:#323070;fill-opacity:1" />
      <g
         id="g79728"
         style="fill:#323070;fill-opacity:1" />
      <g
         id="g79730"
         style="fill:#323070;fill-opacity:1" />
    </g>
    <g
       id="g79772"
       transform="matrix(0,-0.41348773,0.41348773,0,-254.42005,194.52913)"
       style="fill:#009fdb;fill-opacity:1;stroke:#ffffff;stroke-width:2.07839;stroke-miterlimit:4;stroke-dasharray:none;stroke-opacity:1"
       inkscape:export-filename="C:\Users\WinnerPC18\Desktop\plan3mb.png"
       inkscape:export-xdpi="300"
       inkscape:export-ydpi="300">
      <g
         id="g79740"
         style="fill:#009fdb;fill-opacity:1;stroke:#ffffff;stroke-width:2.07839;stroke-miterlimit:4;stroke-dasharray:none;stroke-opacity:1" />
      <g
         id="g79742"
         style="fill:#009fdb;fill-opacity:1;stroke:#ffffff;stroke-width:2.07839;stroke-miterlimit:4;stroke-dasharray:none;stroke-opacity:1" />
      <g
         id="g79744"
         style="fill:#009fdb;fill-opacity:1;stroke:#ffffff;stroke-width:2.07839;stroke-miterlimit:4;stroke-dasharray:none;stroke-opacity:1" />
      <g
         id="g79746"
         style="fill:#009fdb;fill-opacity:1;stroke:#ffffff;stroke-width:2.07839;stroke-miterlimit:4;stroke-dasharray:none;stroke-opacity:1" />
      <g
         id="g79748"
         style="fill:#009fdb;fill-opacity:1;stroke:#ffffff;stroke-width:2.07839;stroke-miterlimit:4;stroke-dasharray:none;stroke-opacity:1" />
      <g
         id="g79750"
         style="fill:#009fdb;fill-opacity:1;stroke:#ffffff;stroke-width:2.07839;stroke-miterlimit:4;stroke-dasharray:none;stroke-opacity:1" />
      <g
         id="g79752"
         style="fill:#009fdb;fill-opacity:1;stroke:#ffffff;stroke-width:2.07839;stroke-miterlimit:4;stroke-dasharray:none;stroke-opacity:1" />
      <g
         id="g79754"
         style="fill:#009fdb;fill-opacity:1;stroke:#ffffff;stroke-width:2.07839;stroke-miterlimit:4;stroke-dasharray:none;stroke-opacity:1" />
      <g
         id="g79756"
         style="fill:#009fdb;fill-opacity:1;stroke:#ffffff;stroke-width:2.07839;stroke-miterlimit:4;stroke-dasharray:none;stroke-opacity:1" />
      <g
         id="g79758"
         style="fill:#009fdb;fill-opacity:1;stroke:#ffffff;stroke-width:2.07839;stroke-miterlimit:4;stroke-dasharray:none;stroke-opacity:1" />
      <g
         id="g79760"
         style="fill:#009fdb;fill-opacity:1;stroke:#ffffff;stroke-width:2.07839;stroke-miterlimit:4;stroke-dasharray:none;stroke-opacity:1" />
      <g
         id="g79762"
         style="fill:#009fdb;fill-opacity:1;stroke:#ffffff;stroke-width:2.07839;stroke-miterlimit:4;stroke-dasharray:none;stroke-opacity:1" />
      <g
         id="g79764"
         style="fill:#009fdb;fill-opacity:1;stroke:#ffffff;stroke-width:2.07839;stroke-miterlimit:4;stroke-dasharray:none;stroke-opacity:1" />
      <g
         id="g79766"
         style="fill:#009fdb;fill-opacity:1;stroke:#ffffff;stroke-width:2.07839;stroke-miterlimit:4;stroke-dasharray:none;stroke-opacity:1" />
      <g
         id="g79768"
         style="fill:#009fdb;fill-opacity:1;stroke:#ffffff;stroke-width:2.07839;stroke-miterlimit:4;stroke-dasharray:none;stroke-opacity:1" />
      <g
         id="g79770"
         style="fill:#009fdb;fill-opacity:1;stroke:#ffffff;stroke-width:2.07839;stroke-miterlimit:4;stroke-dasharray:none;stroke-opacity:1" />
    </g>
    <g
       id="g79808"
       transform="matrix(0,-0.41348773,0.41348773,0,-254.42005,194.52913)"
       style="fill:#009fdb;fill-opacity:1"
       inkscape:export-filename="C:\Users\WinnerPC18\Desktop\plan3mb.png"
       inkscape:export-xdpi="300"
       inkscape:export-ydpi="300">
      <g
         id="g79776"
         style="fill:#009fdb;fill-opacity:1" />
      <g
         id="g79778"
         style="fill:#009fdb;fill-opacity:1" />
      <g
         id="g79780"
         style="fill:#009fdb;fill-opacity:1" />
      <g
         id="g79782"
         style="fill:#009fdb;fill-opacity:1" />
      <g
         id="g79784"
         style="fill:#009fdb;fill-opacity:1" />
      <g
         id="g79786"
         style="fill:#009fdb;fill-opacity:1" />
      <g
         id="g79788"
         style="fill:#009fdb;fill-opacity:1" />
      <g
         id="g79790"
         style="fill:#009fdb;fill-opacity:1" />
      <g
         id="g79792"
         style="fill:#009fdb;fill-opacity:1" />
      <g
         id="g79794"
         style="fill:#009fdb;fill-opacity:1" />
      <g
         id="g79796"
         style="fill:#009fdb;fill-opacity:1" />
      <g
         id="g79798"
         style="fill:#009fdb;fill-opacity:1" />
      <g
         id="g79800"
         style="fill:#009fdb;fill-opacity:1" />
      <g
         id="g79802"
         style="fill:#009fdb;fill-opacity:1" />
      <g
         id="g79804"
         style="fill:#009fdb;fill-opacity:1" />
      <g
         id="g79806"
         style="fill:#009fdb;fill-opacity:1" />
    </g>
    <g
       id="g86276"
       transform="matrix(0,0.78075251,0.78075251,0,-110.91231,71.804562)"
       style="fill:#6fc9eb;fill-opacity:1;stroke:#ffffff;stroke-width:1.31385;stroke-miterlimit:4;stroke-dasharray:none;stroke-opacity:1"
       inkscape:export-filename="C:\Users\WinnerPC18\Desktop\plan3mb.png"
       inkscape:export-xdpi="300"
       inkscape:export-ydpi="300">
      <g
         id="g86244"
         style="fill:#6fc9eb;fill-opacity:1;stroke:#ffffff;stroke-width:1.31385;stroke-miterlimit:4;stroke-dasharray:none;stroke-opacity:1">
        <g
           id="path86242" />
      </g>
      <g
         id="g86246"
         style="fill:#6fc9eb;fill-opacity:1;stroke:#ffffff;stroke-width:1.31385;stroke-miterlimit:4;stroke-dasharray:none;stroke-opacity:1" />
      <g
         id="g86248"
         style="fill:#6fc9eb;fill-opacity:1;stroke:#ffffff;stroke-width:1.31385;stroke-miterlimit:4;stroke-dasharray:none;stroke-opacity:1" />
      <g
         id="g86250"
         style="fill:#6fc9eb;fill-opacity:1;stroke:#ffffff;stroke-width:1.31385;stroke-miterlimit:4;stroke-dasharray:none;stroke-opacity:1" />
      <g
         id="g86252"
         style="fill:#6fc9eb;fill-opacity:1;stroke:#ffffff;stroke-width:1.31385;stroke-miterlimit:4;stroke-dasharray:none;stroke-opacity:1" />
      <g
         id="g86254"
         style="fill:#6fc9eb;fill-opacity:1;stroke:#ffffff;stroke-width:1.31385;stroke-miterlimit:4;stroke-dasharray:none;stroke-opacity:1" />
      <g
         id="g86256"
         style="fill:#6fc9eb;fill-opacity:1;stroke:#ffffff;stroke-width:1.31385;stroke-miterlimit:4;stroke-dasharray:none;stroke-opacity:1" />
      <g
         id="g86258"
         style="fill:#6fc9eb;fill-opacity:1;stroke:#ffffff;stroke-width:1.31385;stroke-miterlimit:4;stroke-dasharray:none;stroke-opacity:1" />
      <g
         id="g86260"
         style="fill:#6fc9eb;fill-opacity:1;stroke:#ffffff;stroke-width:1.31385;stroke-miterlimit:4;stroke-dasharray:none;stroke-opacity:1" />
      <g
         id="g86262"
         style="fill:#6fc9eb;fill-opacity:1;stroke:#ffffff;stroke-width:1.31385;stroke-miterlimit:4;stroke-dasharray:none;stroke-opacity:1" />
      <g
         id="g86264"
         style="fill:#6fc9eb;fill-opacity:1;stroke:#ffffff;stroke-width:1.31385;stroke-miterlimit:4;stroke-dasharray:none;stroke-opacity:1" />
      <g
         id="g86266"
         style="fill:#6fc9eb;fill-opacity:1;stroke:#ffffff;stroke-width:1.31385;stroke-miterlimit:4;stroke-dasharray:none;stroke-opacity:1" />
      <g
         id="g86268"
         style="fill:#6fc9eb;fill-opacity:1;stroke:#ffffff;stroke-width:1.31385;stroke-miterlimit:4;stroke-dasharray:none;stroke-opacity:1" />
      <g
         id="g86270"
         style="fill:#6fc9eb;fill-opacity:1;stroke:#ffffff;stroke-width:1.31385;stroke-miterlimit:4;stroke-dasharray:none;stroke-opacity:1" />
      <g
         id="g86272"
         style="fill:#6fc9eb;fill-opacity:1;stroke:#ffffff;stroke-width:1.31385;stroke-miterlimit:4;stroke-dasharray:none;stroke-opacity:1" />
      <g
         id="g86274"
         style="fill:#6fc9eb;fill-opacity:1;stroke:#ffffff;stroke-width:1.31385;stroke-miterlimit:4;stroke-dasharray:none;stroke-opacity:1" />
    </g>
    <g
       id="g86312"
       transform="matrix(0,0.76407086,0.76407086,0,-110.09111,73.477761)"
       style="fill:#323070;fill-opacity:1"
       inkscape:export-filename="C:\Users\WinnerPC18\Desktop\plan3mb.png"
       inkscape:export-xdpi="300"
       inkscape:export-ydpi="300">
      <g
         id="g86280"
         style="fill:#323070;fill-opacity:1" />
      <g
         id="g86282"
         style="fill:#323070;fill-opacity:1" />
      <g
         id="g86284"
         style="fill:#323070;fill-opacity:1" />
      <g
         id="g86286"
         style="fill:#323070;fill-opacity:1" />
      <g
         id="g86288"
         style="fill:#323070;fill-opacity:1" />
      <g
         id="g86290"
         style="fill:#323070;fill-opacity:1" />
      <g
         id="g86292"
         style="fill:#323070;fill-opacity:1" />
      <g
         id="g86294"
         style="fill:#323070;fill-opacity:1" />
      <g
         id="g86296"
         style="fill:#323070;fill-opacity:1" />
      <g
         id="g86298"
         style="fill:#323070;fill-opacity:1" />
      <g
         id="g86300"
         style="fill:#323070;fill-opacity:1" />
      <g
         id="g86302"
         style="fill:#323070;fill-opacity:1" />
      <g
         id="g86304"
         style="fill:#323070;fill-opacity:1" />
      <g
         id="g86306"
         style="fill:#323070;fill-opacity:1" />
      <g
         id="g86308"
         style="fill:#323070;fill-opacity:1" />
      <g
         id="g86310"
         style="fill:#323070;fill-opacity:1" />
    </g>
    <g
       id="g86388"
       transform="matrix(0,-0.41348773,0.41348773,0,-65.673905,194.7979)"
       style="fill:#009fdb;fill-opacity:1"
       inkscape:export-filename="C:\Users\WinnerPC18\Desktop\plan3mb.png"
       inkscape:export-xdpi="300"
       inkscape:export-ydpi="300">
      <g
         id="g86356"
         style="fill:#009fdb;fill-opacity:1" />
      <g
         id="g86358"
         style="fill:#009fdb;fill-opacity:1" />
      <g
         id="g86360"
         style="fill:#009fdb;fill-opacity:1" />
      <g
         id="g86362"
         style="fill:#009fdb;fill-opacity:1" />
      <g
         id="g86364"
         style="fill:#009fdb;fill-opacity:1" />
      <g
         id="g86366"
         style="fill:#009fdb;fill-opacity:1" />
      <g
         id="g86368"
         style="fill:#009fdb;fill-opacity:1" />
      <g
         id="g86370"
         style="fill:#009fdb;fill-opacity:1" />
      <g
         id="g86372"
         style="fill:#009fdb;fill-opacity:1" />
      <g
         id="g86374"
         style="fill:#009fdb;fill-opacity:1" />
      <g
         id="g86376"
         style="fill:#009fdb;fill-opacity:1" />
      <g
         id="g86378"
         style="fill:#009fdb;fill-opacity:1" />
      <g
         id="g86380"
         style="fill:#009fdb;fill-opacity:1" />
      <g
         id="g86382"
         style="fill:#009fdb;fill-opacity:1" />
      <g
         id="g86384"
         style="fill:#009fdb;fill-opacity:1" />
      <g
         id="g86386"
         style="fill:#009fdb;fill-opacity:1" />
    </g>
    <g
       id="g86352"
       transform="matrix(0,-0.41348773,0.41348773,0,-65.673905,194.7979)"
       style="fill:#009fdb;fill-opacity:1;stroke:#ffffff;stroke-width:2.07839;stroke-miterlimit:4;stroke-dasharray:none;stroke-opacity:1"
       inkscape:export-filename="C:\Users\WinnerPC18\Desktop\plan3mb.png"
       inkscape:export-xdpi="300"
       inkscape:export-ydpi="300">
      <g
         id="g86320"
         style="fill:#009fdb;fill-opacity:1;stroke:#ffffff;stroke-width:2.07839;stroke-miterlimit:4;stroke-dasharray:none;stroke-opacity:1">
        <g
           id="path86318" />
      </g>
      <g
         id="g86322"
         style="fill:#009fdb;fill-opacity:1;stroke:#ffffff;stroke-width:2.07839;stroke-miterlimit:4;stroke-dasharray:none;stroke-opacity:1" />
      <g
         id="g86324"
         style="fill:#009fdb;fill-opacity:1;stroke:#ffffff;stroke-width:2.07839;stroke-miterlimit:4;stroke-dasharray:none;stroke-opacity:1" />
      <g
         id="g86326"
         style="fill:#009fdb;fill-opacity:1;stroke:#ffffff;stroke-width:2.07839;stroke-miterlimit:4;stroke-dasharray:none;stroke-opacity:1" />
      <g
         id="g86328"
         style="fill:#009fdb;fill-opacity:1;stroke:#ffffff;stroke-width:2.07839;stroke-miterlimit:4;stroke-dasharray:none;stroke-opacity:1" />
      <g
         id="g86330"
         style="fill:#009fdb;fill-opacity:1;stroke:#ffffff;stroke-width:2.07839;stroke-miterlimit:4;stroke-dasharray:none;stroke-opacity:1" />
      <g
         id="g86332"
         style="fill:#009fdb;fill-opacity:1;stroke:#ffffff;stroke-width:2.07839;stroke-miterlimit:4;stroke-dasharray:none;stroke-opacity:1" />
      <g
         id="g86334"
         style="fill:#009fdb;fill-opacity:1;stroke:#ffffff;stroke-width:2.07839;stroke-miterlimit:4;stroke-dasharray:none;stroke-opacity:1" />
      <g
         id="g86336"
         style="fill:#009fdb;fill-opacity:1;stroke:#ffffff;stroke-width:2.07839;stroke-miterlimit:4;stroke-dasharray:none;stroke-opacity:1" />
      <g
         id="g86338"
         style="fill:#009fdb;fill-opacity:1;stroke:#ffffff;stroke-width:2.07839;stroke-miterlimit:4;stroke-dasharray:none;stroke-opacity:1" />
      <g
         id="g86340"
         style="fill:#009fdb;fill-opacity:1;stroke:#ffffff;stroke-width:2.07839;stroke-miterlimit:4;stroke-dasharray:none;stroke-opacity:1" />
      <g
         id="g86342"
         style="fill:#009fdb;fill-opacity:1;stroke:#ffffff;stroke-width:2.07839;stroke-miterlimit:4;stroke-dasharray:none;stroke-opacity:1" />
      <g
         id="g86344"
         style="fill:#009fdb;fill-opacity:1;stroke:#ffffff;stroke-width:2.07839;stroke-miterlimit:4;stroke-dasharray:none;stroke-opacity:1" />
      <g
         id="g86346"
         style="fill:#009fdb;fill-opacity:1;stroke:#ffffff;stroke-width:2.07839;stroke-miterlimit:4;stroke-dasharray:none;stroke-opacity:1" />
      <g
         id="g86348"
         style="fill:#009fdb;fill-opacity:1;stroke:#ffffff;stroke-width:2.07839;stroke-miterlimit:4;stroke-dasharray:none;stroke-opacity:1" />
      <g
         id="g86350"
         style="fill:#009fdb;fill-opacity:1;stroke:#ffffff;stroke-width:2.07839;stroke-miterlimit:4;stroke-dasharray:none;stroke-opacity:1" />
    </g>
  </g>
</svg>
