<?xml version="1.0" encoding="UTF-8" standalone="no"?>
<!-- Created with Inkscape (http://www.inkscape.org/) -->

<svg
   width="43.1245mm"
   height="10.578682mm"
   viewBox="0 0 43.1245 10.578682"
   version="1.1"
   id="svg16559"
   sodipodi:docname="79-95.svg"
   inkscape:version="1.1 (c68e22c387, 2021-05-23)"
   xmlns:inkscape="http://www.inkscape.org/namespaces/inkscape"
   xmlns:sodipodi="http://sodipodi.sourceforge.net/DTD/sodipodi-0.dtd"
   xmlns="http://www.w3.org/2000/svg"
   xmlns:svg="http://www.w3.org/2000/svg">
  <sodipodi:namedview
     id="namedview16561"
     pagecolor="#ffffff"
     bordercolor="#666666"
     borderopacity="1.0"
     inkscape:pageshadow="2"
     inkscape:pageopacity="0.0"
     inkscape:pagecheckerboard="0"
     inkscape:document-units="mm"
     showgrid="false"
     fit-margin-top="0"
     fit-margin-left="0"
     fit-margin-right="0"
     fit-margin-bottom="0"
     inkscape:zoom="0.67081229"
     inkscape:cx="-160.25347"
     inkscape:cy="3.726825"
     inkscape:window-width="1920"
     inkscape:window-height="1009"
     inkscape:window-x="-8"
     inkscape:window-y="-8"
     inkscape:window-maximized="1"
     inkscape:current-layer="layer1" />
  <defs
     id="defs16556" />
  <g
     inkscape:label="Capa 1"
     inkscape:groupmode="layer"
     id="layer1"
     transform="translate(-147.3786,-147.74654)">
    <path
       id="text216587"
       style="font-style:normal;font-variant:normal;font-weight:900;font-stretch:normal;font-size:5.76434px;line-height:1.25;font-family:Montserrat;-inkscape-font-specification:'Montserrat Heavy';letter-spacing:0px;word-spacing:0px;fill:#ffffff;fill-opacity:1;stroke:none;stroke-width:0.544664"
       d="m 651.12695,558.41211 c -2.73944,0 -5.23626,0.54627 -7.49023,1.63867 -2.25397,1.09241 -4.03972,2.65811 -5.35742,4.69727 -1.28303,2.03915 -1.92383,4.38869 -1.92383,7.04687 0,2.40329 0.57247,4.53354 1.7168,6.39063 1.14432,1.85709 2.66896,3.29487 4.57617,4.31445 1.9072,1.01958 3.97211,1.5293 6.1914,1.5293 2.91282,0 5.32132,-0.71074 7.22852,-2.13086 -0.41612,2.11198 -1.31802,3.73251 -2.70508,4.86133 -1.35238,1.0924 -3.08591,1.63867 -5.20117,1.63867 -2.60073,0 -4.80229,-0.67419 -6.60547,-2.02149 l -4.42187,9.01367 c 1.38705,0.94676 3.07031,1.67381 5.04687,2.1836 1.97656,0.5462 4.05562,0.82031 6.24024,0.82031 4.02246,0 7.54369,-0.83865 10.56054,-2.51367 3.05153,-1.67502 5.40975,-4.11397 7.07422,-7.31836 1.69915,-3.20439 2.54883,-6.99171 2.54883,-11.36133 0,-4.07831 -0.72914,-7.51842 -2.18555,-10.32226 -1.45641,-2.80384 -3.50326,-4.91581 -6.13867,-6.33594 -2.60073,-1.42013 -5.65198,-2.13086 -9.1543,-2.13086 z m -47.85351,0.87305 v 15.56836 h 10.14453 v -5.57227 h 7.02148 l -11.54687,28.23828 h 13.41797 l 12.12109,-30.31445 v -7.91992 z m 87.39453,0.64062 c -1.55323,0 -2.96812,0.31031 -4.24609,0.92969 -1.27798,0.61938 -2.29194,1.50593 -3.03907,2.66211 -0.72746,1.15618 -1.08984,2.48893 -1.08984,3.99609 0,1.36264 0.32384,2.5701 0.97265,3.62305 0.64882,1.05295 1.51435,1.86918 2.59571,2.44726 1.08136,0.57809 2.25145,0.86719 3.50976,0.86719 1.65154,0 3.01825,-0.40379 4.09961,-1.20898 -0.23593,1.19747 -0.74871,2.11583 -1.53515,2.75586 -0.76679,0.61938 -1.74989,0.92968 -2.94922,0.92968 -1.47459,0 -2.72176,-0.38258 -3.74414,-1.14648 l -2.50781,5.11133 c 0.78644,0.53679 1.74064,0.94924 2.86132,1.23828 1.12069,0.30969 2.30042,0.46484 3.53907,0.46484 2.28069,0 4.27581,-0.47606 5.98632,-1.42578 1.73018,-0.94972 3.06799,-2.33159 4.01172,-4.14844 0.9634,-1.81685 1.44531,-3.96388 1.44531,-6.4414 10e-6,-2.31236 -0.41446,-4.26377 -1.24023,-5.85352 -0.82577,-1.58974 -1.98427,-2.7866 -3.47851,-3.59179 -1.47459,-0.8052 -3.20564,-1.20899 -5.19141,-1.20899 z m -125.88672,0.16992 c -1.43154,0 -2.49494,0.40992 -3.18945,1.22852 v -1.00586 h -4.57032 v 16.54297 h 4.80469 v -5.15625 c 0.68034,0.69953 1.66528,1.04883 2.95508,1.04883 1.0205,0 1.95622,-0.25372 2.80664,-0.75977 0.86459,-0.52093 1.54494,-1.25643 2.04102,-2.20898 0.51025,-0.96744 0.76562,-2.0845 0.76562,-3.34961 0,-1.26511 -0.25537,-2.38022 -0.76562,-3.34766 -0.49608,-0.96744 -1.17643,-1.70489 -2.04102,-2.21094 -0.85042,-0.52093 -1.78614,-0.78125 -2.80664,-0.78125 z m 13.26758,0 c -1.2898,0 -2.45165,0.26693 -3.48633,0.80274 -1.0205,0.53581 -1.82318,1.28842 -2.4043,2.25586 -0.58112,0.95255 -0.87109,2.0393 -0.87109,3.25976 0,1.22046 0.28997,2.31381 0.87109,3.28125 0.58112,0.95256 1.3838,1.70517 2.4043,2.25586 1.03468,0.53581 2.19653,0.80274 3.48633,0.80274 1.30397,0 2.46582,-0.26693 3.48633,-0.80274 1.03467,-0.55069 1.83539,-1.3033 2.40234,-2.25586 0.58112,-0.96744 0.87109,-2.06079 0.87109,-3.28125 0,-1.22046 -0.28997,-2.30721 -0.87109,-3.25976 -0.56695,-0.96744 -1.36767,-1.72005 -2.40234,-2.25586 -1.02051,-0.53581 -2.18236,-0.80274 -3.48633,-0.80274 z m 16.60351,0 c -1.65831,0 -2.91325,0.51405 -3.76367,1.54102 v -1.31836 h -4.57031 v 12.21289 h 4.80469 v -5.42578 c 0,-1.75627 0.82265,-2.63477 2.46679,-2.63477 0.326,0 0.67982,0.0303 1.0625,0.0899 z m 109.4336,0.32618 -1.03125,13.1621 h 5.98633 c 1.17966,0 1.99506,0.13395 2.44726,0.40235 0.45221,0.24775 0.67969,0.63033 0.67969,1.14648 0,0.5368 -0.25639,0.95984 -0.76758,1.26953 -0.49153,0.28905 -1.13921,0.4336 -1.94531,0.4336 -0.90441,0 -1.83934,-0.1359 -2.80274,-0.4043 -0.94373,-0.2684 -1.8478,-0.65963 -2.71289,-1.17578 l -2.35937,5.38867 c 1.08136,0.64003 2.34013,1.12474 3.77539,1.45508 1.45492,0.33034 2.90836,0.49609 4.36328,0.49609 2.10374,0 3.8637,-0.35077 5.2793,-1.05273 1.4156,-0.72261 2.45847,-1.65158 3.12695,-2.78711 0.68814,-1.15618 1.03125,-2.41666 1.03125,-3.7793 0,-2.0646 -0.68817,-3.72692 -2.06445,-4.98633 -1.35662,-1.28005 -3.47896,-1.91992 -6.36914,-1.91992 h -1.0625 l 0.14843,-2.13672 h 7.99219 v -5.51171 z m -140.45313,3.60351 c 0.55277,0 1.00699,0.21486 1.36133,0.64649 0.35434,0.41674 0.53125,1.0046 0.53125,1.76367 0,0.75906 -0.17691,1.34693 -0.53125,1.76367 -0.35434,0.41674 -0.80856,0.625 -1.36133,0.625 -0.55277,0 -1.00503,-0.20826 -1.35937,-0.625 -0.35434,-0.41674 -0.53125,-1.00461 -0.53125,-1.76367 0,-0.75907 0.17691,-1.34693 0.53125,-1.76367 0.35434,-0.43163 0.8066,-0.64649 1.35937,-0.64649 z m 14.41602,0 c 0.55277,0 1.00503,0.20826 1.35937,0.625 0.35434,0.41674 0.53125,1.00461 0.53125,1.76367 0,0.75907 -0.17691,1.35353 -0.53125,1.78516 -0.35434,0.41674 -0.8066,0.625 -1.35937,0.625 -0.55277,0 -1.00699,-0.20826 -1.36133,-0.625 -0.35434,-0.43163 -0.53125,-1.02609 -0.53125,-1.78516 0,-0.75906 0.17691,-1.34693 0.53125,-1.76367 0.35434,-0.41674 0.80856,-0.625 1.36133,-0.625 z m 113.09179,0.94922 c 0.62916,0 1.13999,0.19562 1.53321,0.58789 0.39322,0.39227 0.58984,0.92806 0.58984,1.60938 0,0.68131 -0.19662,1.22965 -0.58984,1.64257 -0.39322,0.39228 -0.90405,0.58789 -1.53321,0.58789 -0.62915,0 -1.14193,-0.19561 -1.53515,-0.58789 -0.39322,-0.41292 -0.58984,-0.96126 -0.58985,-1.64257 0,-0.68132 0.19663,-1.21711 0.58985,-1.60938 0.39322,-0.39227 0.906,-0.58789 1.53515,-0.58789 z m -39.18164,2.33984 c 1.10965,0 2.01155,0.34721 2.70508,1.03907 0.69353,0.69185 1.04102,1.63819 1.04102,2.83984 0,1.20165 -0.34749,2.16626 -1.04102,2.89453 -0.69353,0.69186 -1.59543,1.03906 -2.70508,1.03906 -1.10964,0 -2.00959,-0.3472 -2.70312,-1.03906 -0.69353,-0.72827 -1.04102,-1.69288 -1.04102,-2.89453 0,-1.20165 0.34749,-2.14799 1.04102,-2.83984 0.69353,-0.69186 1.59348,-1.03907 2.70312,-1.03907 z m 25.4961,7.10547 c -1.12069,0 -2.05366,0.37198 -2.80078,1.11524 -0.72746,0.72261 -1.0918,1.67083 -1.0918,2.84765 0,1.17683 0.36434,2.14821 1.0918,2.91211 0.74712,0.74326 1.68009,1.11524 2.80078,1.11524 1.12068,0 2.04597,-0.37198 2.77344,-1.11524 0.74712,-0.7639 1.12109,-1.73528 1.12109,-2.91211 0,-1.17682 -0.37397,-2.12504 -1.12109,-2.84765 -0.72747,-0.74326 -1.65276,-1.11524 -2.77344,-1.11524 z m -90.29102,2.73633 v 2.40039 c -1.66347,0.24954 -2.94325,0.83694 -3.83789,1.76172 -0.88066,0.92478 -1.32031,2.03246 -1.32031,3.32422 0,1.11561 0.28069,2.0035 0.83984,2.66406 0.55915,0.64588 1.21585,1.11658 1.97071,1.41016 0.75485,0.2789 1.69779,0.54342 2.83007,0.79297 0.88067,0.19082 1.5093,0.36587 1.88672,0.52734 0.39141,0.16147 0.58789,0.40362 0.58789,0.72656 0,0.2789 -0.14785,0.49188 -0.4414,0.63867 -0.29356,0.13212 -0.78184,0.19922 -1.4668,0.19922 -0.79679,0 -1.62941,-0.12545 -2.49609,-0.375 -0.86669,-0.26422 -1.64872,-0.60946 -2.34766,-1.03515 l -1.59375,3.78711 c 0.62905,0.41101 1.41858,0.75625 2.36914,1.03515 0.96454,0.2789 1.97112,0.44715 3.01953,0.50586 v 2.33399 h 2.95703 v -2.44336 c 1.56563,-0.29358 2.76675,-0.89654 3.60547,-1.80664 0.85271,-0.92478 1.2793,-2.00329 1.2793,-3.23633 0,-1.11561 -0.28625,-1.9967 -0.85938,-2.64258 -0.55915,-0.64588 -1.22335,-1.10782 -1.99218,-1.38672 -0.76884,-0.29358 -1.71178,-0.54935 -2.83008,-0.76953 -0.86669,-0.17615 -1.48976,-0.33759 -1.86719,-0.48438 -0.37743,-0.16147 -0.56445,-0.39681 -0.56445,-0.70507 0,-0.64588 0.63418,-0.96875 1.90625,-0.96875 1.28605,0 2.65003,0.38122 4.08984,1.14453 l 1.48828,-3.76563 c -1.16024,-0.68991 -2.5784,-1.11587 -4.25586,-1.27734 v -2.35547 z m 96.1543,9.02148 v 10.11719 h 2.93359 v -10.11719 z m -5.11524,2.52344 c -0.57129,0 -1.14661,0.0759 -1.72656,0.23047 -0.57129,0.14543 -1.05997,0.34969 -1.46679,0.61328 l 0.93359,2.0332 c 0.23371,-0.18179 0.51482,-0.32384 0.84375,-0.42382 0.32892,-0.10908 0.65434,-0.16407 0.97461,-0.16407 0.79634,0 1.24267,0.29132 1.33789,0.87305 h -1.18164 c -1.09065,0 -1.90474,0.19051 -2.44141,0.57227 -0.53666,0.38176 -0.80468,0.94148 -0.80468,1.67773 0,0.4363 0.0997,0.83106 0.29882,1.18555 0.20775,0.3454 0.50502,0.62297 0.89453,0.83203 0.39818,0.19997 0.87878,0.30078 1.44141,0.30078 1.00409,0 1.67609,-0.3738 2.01367,-1.11914 v 0.98242 h 2.72657 v -4.00781 c -10e-6,-1.218 -0.33044,-2.11944 -0.98829,-2.70117 -0.65785,-0.59082 -1.60901,-0.88477 -2.85547,-0.88477 z m 18.04688,0 c -0.81366,0 -1.48371,0.27562 -2.01172,0.83008 v -0.69531 h -2.79101 v 7.45898 h 2.93359 v -3.64062 c 0,-0.47266 0.0816,-0.81701 0.24609,-1.03516 0.17312,-0.21815 0.3988,-0.32812 0.67578,-0.32812 0.52802,0 0.79102,0.42683 0.79102,1.28125 v 3.72265 h 2.93555 v -3.64062 c 0,-0.47266 0.0816,-0.81701 0.24609,-1.03516 0.17312,-0.21815 0.39879,-0.32812 0.67578,-0.32812 0.52801,0 0.79102,0.42683 0.79102,1.28125 v 3.72265 h 2.93554 v -4.2539 c 0,-1.11802 -0.25994,-1.95531 -0.77929,-2.50977 -0.5107,-0.55446 -1.19385,-0.83008 -2.05078,-0.83008 -0.48474,0 -0.93107,0.0989 -1.33789,0.29883 -0.40683,0.19088 -0.75342,0.46845 -1.03907,0.83203 -0.24236,-0.38176 -0.55468,-0.66391 -0.93554,-0.8457 -0.38086,-0.19088 -0.80908,-0.28516 -1.28516,-0.28516 z m 12.47852,0 c -0.76173,0 -1.44989,0.16301 -2.06446,0.49024 -0.60591,0.32722 -1.08651,0.78613 -1.4414,1.37695 -0.34624,0.58173 -0.51953,1.24489 -0.51954,1.99023 0,0.73626 0.17636,1.39942 0.53126,1.99024 0.35489,0.59082 0.85861,1.05431 1.50781,1.39062 0.64919,0.32723 1.40087,0.49219 2.25781,0.49219 1.37629,0 2.41104,-0.40129 3.10352,-1.20117 l -1.53125,-1.62109 c -0.25103,0.19996 -0.48478,0.34006 -0.70118,0.42187 -0.20774,0.0818 -0.46768,0.12305 -0.77929,0.12305 -0.36355,0 -0.66779,-0.0733 -0.91016,-0.21875 -0.24237,-0.15453 -0.41371,-0.37252 -0.51758,-0.6543 h 4.9336 c 0.026,-0.4363 0.0391,-0.67721 0.0391,-0.72266 0,-0.80896 -0.17831,-1.5042 -0.5332,-2.08593 -0.34624,-0.58173 -0.81876,-1.02232 -1.41602,-1.32227 -0.5886,-0.29995 -1.24054,-0.44922 -1.95898,-0.44922 z m 8.12695,0 c -0.77038,0 -1.43235,0.11261 -1.98633,0.33985 -0.54532,0.22723 -0.95543,0.5323 -1.23242,0.91406 -0.27699,0.38176 -0.41602,0.81318 -0.41602,1.29492 0,0.609 0.15017,1.07707 0.45313,1.4043 0.31161,0.32722 0.67129,0.5498 1.07812,0.66797 0.40683,0.10907 0.90053,0.20072 1.48047,0.27343 0.38086,0.0455 0.6539,0.0913 0.81836,0.13672 0.17312,0.0454 0.25977,0.12598 0.25977,0.24414 0,0.11817 -0.0705,0.20981 -0.20899,0.27344 -0.12984,0.0545 -0.36359,0.082 -0.70117,0.082 -0.42414,0 -0.86044,-0.0596 -1.31055,-0.17773 -0.4501,-0.11817 -0.83904,-0.28118 -1.16796,-0.49024 l -0.80469,2.03125 c 0.36355,0.21815 0.83913,0.39491 1.42773,0.53125 0.5886,0.13635 1.1851,0.20508 1.79102,0.20508 0.78769,0 1.45969,-0.11456 2.01367,-0.3418 0.55398,-0.22723 0.9691,-0.5323 1.24609,-0.91406 0.27699,-0.38176 0.41602,-0.80401 0.41602,-1.26758 0,-0.609 -0.15714,-1.07707 -0.46875,-1.40429 -0.30296,-0.32723 -0.65763,-0.54981 -1.06445,-0.66797 -0.39818,-0.11817 -0.88685,-0.21244 -1.4668,-0.28516 -0.37221,-0.0455 -0.64524,-0.0913 -0.81836,-0.13672 -0.17312,-0.0545 -0.25977,-0.1416 -0.25977,-0.25976 0,-0.23633 0.3204,-0.35352 0.96094,-0.35352 0.74441,0 1.42756,0.18134 2.05078,0.54492 l 0.80664,-2.03125 c -0.36355,-0.19997 -0.80486,-0.35118 -1.32422,-0.45117 -0.51069,-0.10907 -1.03559,-0.16211 -1.57226,-0.16211 z m -8.10156,2.09961 c 0.30295,0 0.55482,0.0897 0.7539,0.27149 0.19909,0.1727 0.32808,0.41361 0.38867,0.72265 h -2.28515 c 0.0606,-0.31813 0.18958,-0.56363 0.38867,-0.73633 0.19909,-0.1727 0.45095,-0.25781 0.75391,-0.25781 z m -30.36914,2.54883 h 0.72656 v 0.51758 c -0.0779,0.23633 -0.19882,0.41504 -0.36328,0.5332 -0.16447,0.11816 -0.35085,0.17578 -0.5586,0.17578 -0.21639,0 -0.38969,-0.053 -0.51953,-0.16211 -0.12118,-0.11816 -0.18164,-0.2648 -0.18164,-0.4375 0,-0.41812 0.29923,-0.62695 0.89649,-0.62695 z"
       transform="scale(0.26458333)" />
  </g>
</svg>
