<?xml version="1.0" encoding="UTF-8" standalone="no"?>
<!-- Created with Inkscape (http://www.inkscape.org/) -->

<svg
   width="48.746895mm"
   height="14.25081mm"
   viewBox="0 0 48.746895 14.25081"
   version="1.1"
   id="svg137527"
   inkscape:version="1.1 (c68e22c387, 2021-05-23)"
   sodipodi:docname="EscogerPlan1.svg"
   xmlns:inkscape="http://www.inkscape.org/namespaces/inkscape"
   xmlns:sodipodi="http://sodipodi.sourceforge.net/DTD/sodipodi-0.dtd"
   xmlns="http://www.w3.org/2000/svg"
   xmlns:svg="http://www.w3.org/2000/svg">
  <sodipodi:namedview
     id="namedview137529"
     pagecolor="#ffffff"
     bordercolor="#666666"
     borderopacity="1.0"
     inkscape:pageshadow="2"
     inkscape:pageopacity="0.0"
     inkscape:pagecheckerboard="0"
     inkscape:document-units="mm"
     showgrid="false"
     fit-margin-top="0"
     fit-margin-left="0"
     fit-margin-right="0"
     fit-margin-bottom="0"
     inkscape:zoom="2.7758979"
     inkscape:cx="111.8557"
     inkscape:cy="34.403283"
     inkscape:window-width="1920"
     inkscape:window-height="1009"
     inkscape:window-x="-8"
     inkscape:window-y="-8"
     inkscape:window-maximized="1"
     inkscape:current-layer="layer1" />
  <defs
     id="defs137524" />
  <g
     inkscape:label="Capa 1"
     inkscape:groupmode="layer"
     id="layer1"
     transform="translate(-61.791061,-130.8902)">
    <path
       id="rect2642"
       style="fill:#ffffff;fill-opacity:1;stroke-width:0.901387"
       d="m 260.4707,494.70312 c -14.91966,10e-6 -26.92968,12.01003 -26.92968,26.92969 0,14.91967 12.01002,26.93164 26.92968,26.93164 h 130.37891 c 14.91967,0 26.93164,-12.01197 26.93164,-26.93164 0,-14.91966 -12.01197,-26.92969 -26.93164,-26.92969 z"
       transform="scale(0.26458333)" />
    <path
       id="text237-3"
       style="font-style:normal;font-variant:normal;font-weight:900;font-stretch:normal;font-size:4.99163px;line-height:1.25;font-family:Montserrat;-inkscape-font-specification:'Montserrat Heavy';text-align:center;letter-spacing:0px;word-spacing:0px;text-anchor:middle;fill:#6fc9eb;fill-opacity:1;stroke:none;stroke-width:0.471651"
       d="m 362.87695,514.18555 v 14.3457 h 4.16016 v -14.3457 z m -99.08593,0.8125 v 13.5332 h 10.71484 v -3.44141 h -6.44336 v -1.77929 h 5.44922 v -3.28516 h -5.44922 v -1.58594 h 6.20508 v -3.4414 z m 85.53515,0 v 13.5332 h 4.34571 v -3.32617 h 1.85937 c 1.19055,0 2.22762,-0.20476 3.11133,-0.61719 0.8837,-0.41243 1.56429,-1.00599 2.04297,-1.7793 0.47867,-0.77331 0.71875,-1.67595 0.71875,-2.70703 0,-1.03108 -0.24008,-1.93372 -0.71875,-2.70703 -0.47868,-0.77331 -1.15927,-1.36491 -2.04297,-1.77734 -0.88371,-0.41243 -1.92078,-0.61914 -3.11133,-0.61914 z m -68.59765,2.76367 c -1.09236,0 -2.0309,0.16216 -2.81641,0.48437 -0.77324,0.32222 -1.35529,0.75361 -1.74805,1.29493 -0.39276,0.54131 -0.58984,1.15284 -0.58984,1.83593 0,0.86353 0.21495,1.5282 0.64453,1.99219 0.44185,0.46399 0.95048,0.77972 1.52734,0.94727 0.57687,0.15466 1.27728,0.28361 2.09961,0.38671 0.54004,0.0644 0.92696,0.12892 1.16016,0.19336 0.24547,0.0644 0.36719,0.18011 0.36719,0.34766 0,0.16755 -0.0985,0.2965 -0.29493,0.38672 -0.1841,0.0773 -0.51546,0.11523 -0.99414,0.11523 -0.60141,0 -1.22114,-0.0824 -1.85937,-0.25 -0.63823,-0.16755 -1.18985,-0.40083 -1.65625,-0.69726 l -1.14063,2.88086 c 0.5155,0.30932 1.19079,0.56058 2.02539,0.7539 0.83461,0.19333 1.67991,0.29102 2.53907,0.29102 1.1169,0 2.068,-0.16216 2.85351,-0.48438 0.78552,-0.32221 1.37482,-0.7536 1.76758,-1.29492 0.39276,-0.54131 0.58984,-1.13956 0.58984,-1.79687 0,-0.86353 -0.22025,-1.5282 -0.6621,-1.99219 -0.42958,-0.46399 -0.93291,-0.77972 -1.50977,-0.94727 -0.56459,-0.16755 -1.25774,-0.30314 -2.08008,-0.40625 -0.52777,-0.0644 -0.91468,-0.12891 -1.16015,-0.19335 -0.24548,-0.0773 -0.36914,-0.19964 -0.36914,-0.36719 0,-0.3351 0.45502,-0.50196 1.36328,-0.50196 1.05553,0 2.02449,0.2579 2.9082,0.77344 l 1.14062,-2.88086 c -0.51549,-0.28354 -1.14053,-0.4969 -1.87695,-0.63867 -0.72415,-0.15466 -1.46755,-0.23242 -2.22851,-0.23242 z m 11.13867,0 c -1.14145,0 -2.16597,0.23328 -3.07422,0.69726 -0.89598,0.46399 -1.60169,1.11342 -2.11719,1.95118 -0.50322,0.82486 -0.7539,1.76736 -0.7539,2.82422 0,1.05685 0.25068,2.00404 0.7539,2.84179 0.5155,0.83775 1.22121,1.48719 2.11719,1.95117 0.90825,0.46399 1.93277,0.69727 3.07422,0.69727 1.22736,0 2.277,-0.27783 3.14843,-0.83203 0.87144,-0.55421 1.4733,-1.32126 1.80469,-2.30078 l -3.22265,-1.66211 c -0.39276,0.92797 -0.97481,1.39258 -1.74805,1.39258 -0.49095,0 -0.90299,-0.18014 -1.23438,-0.54102 -0.31911,-0.36088 -0.47851,-0.87667 -0.47851,-1.54687 0,-0.65732 0.1594,-1.16647 0.47851,-1.52735 0.33139,-0.36088 0.74343,-0.54101 1.23438,-0.54101 0.77324,0 1.35529,0.46265 1.74805,1.39062 l 3.22265,-1.66211 c -0.33139,-0.97953 -0.93325,-1.74657 -1.80469,-2.30078 -0.87143,-0.55421 -1.92107,-0.83203 -3.14843,-0.83203 z m 11.13867,0 c -1.11691,0 -2.12355,0.23328 -3.01953,0.69726 -0.88371,0.46399 -1.57686,1.11342 -2.08008,1.95118 -0.50322,0.82486 -0.75391,1.76736 -0.75391,2.82422 0,1.05685 0.25069,2.00404 0.75391,2.84179 0.50322,0.82487 1.19637,1.4743 2.08008,1.95117 0.89598,0.46399 1.90262,0.69727 3.01953,0.69727 1.12918,0 2.13583,-0.23328 3.01953,-0.69727 0.89598,-0.47687 1.58913,-1.1263 2.08008,-1.95117 0.50322,-0.83775 0.75586,-1.78494 0.75586,-2.84179 0,-1.05686 -0.25264,-1.99936 -0.75586,-2.82422 -0.49095,-0.83776 -1.1841,-1.48719 -2.08008,-1.95118 -0.8837,-0.46398 -1.89035,-0.69726 -3.01953,-0.69726 z m 11.4707,0 c -0.85915,0 -1.66341,0.21335 -2.41211,0.63867 -0.73642,0.41243 -1.32572,1.00599 -1.76757,1.7793 -0.44186,0.77331 -0.66407,1.66266 -0.66407,2.66797 0,1.0053 0.22221,1.9013 0.66407,2.6875 0.44185,0.77331 1.03115,1.37155 1.76757,1.79687 0.7487,0.41243 1.55296,0.61914 2.41211,0.61914 1.22737,0 2.15334,-0.37356 2.7793,-1.12109 v 0.19336 c 0,0.72175 -0.18983,1.26881 -0.57031,1.64258 -0.38049,0.37376 -0.98766,0.56054 -1.82227,0.56054 -0.55231,0 -1.13101,-0.0957 -1.73242,-0.28906 -0.60141,-0.19333 -1.09748,-0.44458 -1.49024,-0.75391 l -1.39843,2.97657 c 0.61368,0.42532 1.35513,0.74769 2.22656,0.96679 0.87143,0.232 1.80996,0.34766 2.81641,0.34766 1.96378,0 3.47376,-0.50915 4.52929,-1.52734 1.06781,-1.00531 1.60157,-2.51283 1.60157,-4.52344 v -8.46875 h -3.95704 v 1.19922 c -0.61368,-0.92798 -1.60777,-1.39258 -2.98242,-1.39258 z m 13.95508,0 c -1.08008,0 -2.0563,0.23328 -2.92773,0.69726 -0.85916,0.46399 -1.53975,1.11342 -2.04297,1.95118 -0.49095,0.82486 -0.73828,1.76736 -0.73828,2.82422 0,1.04396 0.25263,1.98451 0.75586,2.82226 0.50322,0.83775 1.21424,1.49383 2.13476,1.9707 0.92053,0.46399 1.98999,0.69727 3.20508,0.69727 1.95151,0 3.41654,-0.56698 4.39844,-1.70117 l -2.17188,-2.30078 c -0.35593,0.28354 -0.6873,0.48361 -0.99414,0.59961 -0.29457,0.11599 -0.66166,0.17382 -1.10351,0.17382 -0.5155,0 -0.9454,-0.10433 -1.28907,-0.31054 -0.34366,-0.21911 -0.58904,-0.52819 -0.73632,-0.92774 h 6.99609 c 0.0368,-0.61865 0.0547,-0.95899 0.0547,-1.02343 0,-1.14708 -0.25264,-2.13412 -0.75586,-2.95899 -0.49095,-0.82486 -1.15898,-1.44968 -2.00586,-1.875 -0.83461,-0.42532 -1.76058,-0.63867 -2.7793,-0.63867 z m 14.06445,0 c -1.43602,0 -2.52139,0.44468 -3.25781,1.33398 v -1.14062 h -3.95898 v 10.57617 h 4.16015 v -4.69922 c 0,-1.52084 0.71298,-2.28125 2.13672,-2.28125 0.2823,0 0.58853,0.0266 0.91992,0.0781 z m 30.89258,0 c -0.81006,0 -1.62493,0.11097 -2.44726,0.33008 -0.81007,0.20621 -1.50517,0.49537 -2.08203,0.86914 l 1.32617,2.88086 c 0.33139,-0.25777 0.73086,-0.45784 1.19726,-0.59961 0.4664,-0.15466 0.92674,-0.23242 1.38086,-0.23242 1.12918,0 1.76148,0.41341 1.89649,1.23828 h -1.67578 c -1.54649,0 -2.69997,0.27118 -3.46094,0.8125 -0.76097,0.54131 -1.14258,1.33298 -1.14258,2.37695 0,0.61865 0.14153,1.17899 0.42383,1.68164 0.29457,0.48976 0.71917,0.88325 1.27148,1.17969 0.56459,0.28355 1.24518,0.42578 2.04297,0.42578 1.42375,0 2.37484,-0.52908 2.85352,-1.58594 v 1.39258 h 3.86523 v -5.68359 c 0,-1.72706 -0.46564,-3.00326 -1.39844,-3.82813 -0.9328,-0.83775 -2.28337,-1.25781 -4.05078,-1.25781 z m 14.25,0 c -0.60141,0 -1.16029,0.10433 -1.67578,0.31055 -0.51549,0.20621 -0.96857,0.5153 -1.36133,0.92773 v -1.04492 h -3.95898 v 10.57617 h 4.16211 v -4.96875 c 0,-0.73465 0.13958,-1.27037 0.42187,-1.60547 0.29457,-0.34799 0.67618,-0.52148 1.14258,-0.52148 0.82234,0 1.23242,0.60684 1.23242,1.81836 v 5.27734 h 4.16211 v -6.0332 c 0,-1.58529 -0.38161,-2.77044 -1.14258,-3.55664 -0.74869,-0.7862 -1.74278,-1.17969 -2.98242,-1.17969 z m -33.96679,0.7539 h 1.58398 c 0.58914,0 1.02965,0.14224 1.32422,0.42579 0.29457,0.27065 0.4414,0.6575 0.4414,1.16015 0,0.50265 -0.14683,0.89614 -0.4414,1.17969 -0.29457,0.27066 -0.73508,0.40625 -1.32422,0.40625 h -1.58398 z m -25.20508,2.22461 c 0.42958,0 0.78606,0.12895 1.06836,0.38672 0.28229,0.24488 0.46681,0.58523 0.55273,1.02344 h -3.24023 c 0.0859,-0.4511 0.27044,-0.79809 0.55273,-1.04297 0.2823,-0.24488 0.63683,-0.36719 1.06641,-0.36719 z m -25.46094,0.42579 c 0.47867,0 0.87089,0.18013 1.17773,0.54101 0.30685,0.36088 0.46094,0.87003 0.46094,1.52735 0,0.65731 -0.15409,1.1731 -0.46094,1.54687 -0.30684,0.36088 -0.69906,0.54102 -1.17773,0.54102 -0.47867,0 -0.87089,-0.18014 -1.17774,-0.54102 -0.30684,-0.37377 -0.46093,-0.88956 -0.46093,-1.54687 0,-0.65732 0.15409,-1.16647 0.46093,-1.52735 0.30685,-0.36088 0.69907,-0.54101 1.17774,-0.54101 z m 12.57422,0 c 0.49095,0 0.89573,0.15356 1.21484,0.46289 0.33139,0.30932 0.49805,0.71609 0.49805,1.21875 0,0.50265 -0.16666,0.91411 -0.49805,1.23632 -0.31911,0.30933 -0.72389,0.46485 -1.21484,0.46485 -0.49095,0 -0.90103,-0.15552 -1.23242,-0.46485 -0.33139,-0.32221 -0.49805,-0.73367 -0.49805,-1.23632 0,-0.50266 0.1594,-0.90943 0.47851,-1.21875 0.33139,-0.30933 0.74874,-0.46289 1.25196,-0.46289 z m 58.0664,3.18945 h 1.03125 v 0.73437 c -0.11046,0.3351 -0.28242,0.58636 -0.51562,0.75391 -0.2332,0.16755 -0.49645,0.25195 -0.79102,0.25195 -0.30684,0 -0.55222,-0.0778 -0.73632,-0.23242 -0.17184,-0.16755 -0.25782,-0.37426 -0.25782,-0.61914 0,-0.59287 0.42265,-0.88867 1.26953,-0.88867 z"
       transform="scale(0.26458333)" />
  </g>
</svg>
