<?xml version="1.0" encoding="UTF-8" standalone="no"?>
<!-- Created with Inkscape (http://www.inkscape.org/) -->

<svg
   width="47.695797mm"
   height="12.479858mm"
   viewBox="0 0 47.695797 12.479858"
   version="1.1"
   id="svg5918"
   inkscape:version="1.1 (c68e22c387, 2021-05-23)"
   sodipodi:docname="osnet-essential.svg"
   xmlns:inkscape="http://www.inkscape.org/namespaces/inkscape"
   xmlns:sodipodi="http://sodipodi.sourceforge.net/DTD/sodipodi-0.dtd"
   xmlns="http://www.w3.org/2000/svg"
   xmlns:svg="http://www.w3.org/2000/svg">
  <sodipodi:namedview
     id="namedview5920"
     pagecolor="#ffffff"
     bordercolor="#666666"
     borderopacity="1.0"
     inkscape:pageshadow="2"
     inkscape:pageopacity="0.0"
     inkscape:pagecheckerboard="0"
     inkscape:document-units="mm"
     showgrid="false"
     fit-margin-top="0"
     fit-margin-left="0"
     fit-margin-right="0"
     fit-margin-bottom="0"
     inkscape:zoom="0.67081229"
     inkscape:cx="430.0756"
     inkscape:cy="54.411645"
     inkscape:window-width="1920"
     inkscape:window-height="1009"
     inkscape:window-x="-8"
     inkscape:window-y="-8"
     inkscape:window-maximized="1"
     inkscape:current-layer="layer1" />
  <defs
     id="defs5915" />
  <g
     inkscape:label="Capa 1"
     inkscape:groupmode="layer"
     id="layer1"
     transform="translate(255.98024,-112.69596)">
    <path
       id="text1495-9"
       style="font-style:normal;font-variant:normal;font-weight:900;font-stretch:normal;font-size:10.1782px;line-height:1.25;font-family:Montserrat;-inkscape-font-specification:'Montserrat Heavy';letter-spacing:0px;word-spacing:0px;fill:#ffffff;fill-opacity:1;stroke:none;stroke-width:0.96172"
       d="m -865.15039,425.9375 c -2.01701,0 -3.82757,0.44226 -5.43164,1.32617 -1.5882,0.88391 -2.83496,2.12552 -3.74024,3.72656 -0.88938,1.58437 -1.33398,3.39503 -1.33398,5.42969 0,1.53433 0.34247,2.89207 1.02539,4.07617 0.69881,1.18411 1.68257,2.11025 2.95313,2.77735 1.28643,0.65042 2.77914,0.97656 4.47851,0.97656 2.01701,0 3.82001,-0.44226 5.4082,-1.32617 1.60408,-0.88391 2.85085,-2.11876 3.74024,-3.70313 0.90527,-1.60104 1.35742,-3.41846 1.35742,-5.45312 0,-1.53433 -0.34807,-2.89402 -1.04687,-4.07813 -0.68293,-1.1841 -1.66865,-2.10153 -2.95508,-2.75195 -1.27056,-0.6671 -2.75571,-1 -4.45508,-1 z m 18.67773,0 c -1.73113,0 -3.23139,0.27581 -4.50195,0.82617 -1.27055,0.53368 -2.24872,1.30013 -2.93164,2.30078 -0.66704,0.98398 -1,2.13365 -1,3.45117 0,1.05069 0.27056,1.90232 0.81055,2.55274 0.55586,0.63375 1.19912,1.10891 1.92968,1.42578 0.73057,0.3002 1.65194,0.6002 2.76368,0.90039 0.84174,0.21681 1.45281,0.41811 1.83398,0.60156 0.39705,0.18346 0.5957,0.42442 0.5957,0.72461 0,0.31688 -0.1911,0.56655 -0.57226,0.75 -0.38117,0.18346 -0.92985,0.27539 -1.64453,0.27539 -1.95348,0 -3.82644,-0.54096 -5.6211,-1.625 l -2.16797,4.35157 c 0.82587,0.53368 1.87398,0.96723 3.14454,1.30078 1.27055,0.31687 2.62896,0.47656 4.07421,0.47656 1.71525,0 3.20796,-0.2671 4.47852,-0.80078 1.27056,-0.55036 2.24676,-1.31876 2.92969,-2.30274 0.68292,-0.98397 1.02539,-2.12493 1.02539,-3.42578 0,-1.034 -0.27056,-1.8682 -0.81055,-2.50195 -0.53998,-0.63375 -1.18324,-1.1002 -1.92969,-1.40039 -0.73057,-0.3002 -1.63682,-0.58472 -2.71679,-0.85156 -0.88939,-0.21681 -1.53264,-0.41616 -1.92969,-0.59961 -0.38117,-0.18346 -0.57031,-0.43508 -0.57031,-0.75196 0,-0.31687 0.21376,-0.59073 0.64258,-0.82421 0.42881,-0.23349 1.03233,-0.35157 1.81054,-0.35157 0.82586,0 1.62804,0.10937 2.40625,0.32617 0.7941,0.21681 1.51681,0.541 2.16797,0.97461 l 2.02539,-4.30273 c -0.77821,-0.48365 -1.70714,-0.84945 -2.78711,-1.09961 -1.06409,-0.26684 -2.21628,-0.40039 -3.45508,-0.40039 z m 9.07618,0.40039 -3.33399,17.51172 h 5.47852 l 1.54883,-8.15625 3.14062,5.35156 c -0.2995,0.17118 -0.58054,0.36688 -0.83789,0.60156 -0.92599,0.84098 -1.39063,1.91841 -1.39063,3.23243 0,1.31401 0.46464,2.40423 1.39063,3.27148 0.95101,0.84097 2.18822,1.26172 3.71484,1.26172 1.55166,0 2.79081,-0.43353 3.7168,-1.30078 0.92599,-0.89353 1.38867,-2.0221 1.38867,-3.38867 0,-1.23941 -0.43909,-2.25544 -1.29687,-3.05664 l 2.91797,-15.32813 h -5.47852 l -1.54883,8.1543 -4.78906,-8.1543 z m 19.15429,0 -3.33593,17.51172 h 13.86523 l 0.85742,-4.45313 h -8.36133 l 0.42774,-2.30273 h 7.07617 l 0.81055,-4.25195 h -7.05274 l 0.38086,-2.05078 h 8.0293 l 0.85742,-4.45313 z m 14.76953,0 -0.88086,4.57813 h 4.88282 l -2.45313,12.93359 h 5.6211 l 2.45507,-12.93359 h 4.88282 l 0.88281,-4.57813 z m -62.15429,4.37695 c 1.01644,0 1.81106,0.30872 2.38281,0.92578 0.58763,0.61707 0.88086,1.44256 0.88086,2.47657 0,0.96729 -0.17404,1.86053 -0.52344,2.67773 -0.3494,0.8172 -0.85835,1.46753 -1.52539,1.95117 -0.65116,0.48365 -1.42116,0.72461 -2.31055,0.72461 -1.01644,0 -1.81861,-0.30871 -2.40625,-0.92578 -0.57175,-0.61707 -0.85742,-1.44255 -0.85742,-2.47656 0,-0.9673 0.17599,-1.85858 0.52539,-2.67578 0.34941,-0.8172 0.84884,-1.46753 1.5,-1.95117 0.66704,-0.48365 1.4446,-0.72657 2.33399,-0.72657 z m 69.92578,12.7461 v 29.25 h 8.48437 v -29.25 z m -171.78321,1.65429 v 27.59571 h 21.84961 v -7.01758 h -13.14062 v -3.62695 h 11.11328 v -6.70118 h -11.11328 v -3.23242 h 12.65234 v -7.01758 z m 119.22852,1.1836 v 6.03125 h -2.81641 v 6.5039 h 2.81641 v 5.51954 c 0,2.91712 0.77452,5.11033 2.32617,6.58203 1.55166,1.44542 3.76647,2.16992 6.64453,2.16992 2.20235,0 3.94239,-0.3824 5.21875,-1.14453 l -2.02734,-6.18946 c -0.55059,0.39421 -1.18829,0.5918 -1.91406,0.5918 -0.52556,0 -0.952,-0.18286 -1.27735,-0.55078 -0.32534,-0.36792 -0.48828,-0.88205 -0.48828,-1.53906 v -5.43946 h 4.20508 v -6.5039 h -4.20508 v -6.03125 z m -84.69141,4.45508 c -2.22737,0 -4.14243,0.32736 -5.74414,0.98437 -1.57668,0.65701 -2.76555,1.53685 -3.5664,2.64063 -0.80086,1.10377 -1.20117,2.35323 -1.20117,3.74609 0,1.76078 0.43852,3.11445 1.31445,4.06055 0.90096,0.94609 1.93898,1.58999 3.11523,1.93164 1.17626,0.31536 2.60447,0.57686 4.28125,0.78711 1.10118,0.1314 1.88778,0.26313 2.36328,0.39453 0.50054,0.1314 0.75196,0.36929 0.75196,0.71094 0,0.34164 -0.20114,0.60314 -0.60157,0.78711 -0.3754,0.15768 -1.0513,0.23632 -2.02734,0.23632 -1.22631,0 -2.48963,-0.17007 -3.79101,-0.51172 -1.30139,-0.34164 -2.4279,-0.81547 -3.37891,-1.41992 l -2.32617,5.875 c 1.05112,0.63073 2.42709,1.14291 4.1289,1.53711 1.70182,0.39421 3.42782,0.5918 5.17969,0.5918 2.27743,0 4.21861,-0.32932 5.82031,-0.98633 1.60171,-0.65701 2.80267,-1.53685 3.60352,-2.64062 0.80085,-1.10378 1.20117,-2.32572 1.20117,-3.66602 0,-1.76078 -0.4506,-3.11445 -1.35156,-4.06055 -0.87593,-0.94609 -1.90187,-1.58999 -3.07813,-1.93164 -1.15122,-0.34164 -2.5654,-0.61788 -4.24218,-0.82812 -1.07615,-0.1314 -1.8647,-0.26313 -2.36524,-0.39453 -0.50053,-0.15769 -0.75,-0.40641 -0.75,-0.74805 0,-0.68329 0.92537,-1.02539 2.77735,-1.02539 2.15229,0 4.12972,0.52496 5.93164,1.57617 l 2.32617,-5.87305 c -1.05112,-0.57816 -2.32653,-1.01169 -3.82813,-1.30078 -1.47657,-0.31536 -2.99131,-0.47265 -4.54297,-0.47265 z m 21.21094,0 c -2.22737,0 -4.14243,0.32736 -5.74414,0.98437 -1.57668,0.65701 -2.76555,1.53685 -3.56641,2.64063 -0.80085,1.10377 -1.20117,2.35323 -1.20117,3.74609 0,1.76078 0.43852,3.11445 1.31446,4.06055 0.90096,0.94609 1.93898,1.58999 3.11523,1.93164 1.17625,0.31536 2.60251,0.57686 4.2793,0.78711 1.10117,0.1314 1.88972,0.26313 2.36523,0.39453 0.50054,0.1314 0.75,0.36929 0.75,0.71094 0,0.34164 -0.19918,0.60314 -0.59961,0.78711 -0.3754,0.15768 -1.0513,0.23632 -2.02734,0.23632 -1.22631,0 -2.48963,-0.17007 -3.79102,-0.51172 -1.30138,-0.34164 -2.42789,-0.81547 -3.3789,-1.41992 l -2.32813,5.875 c 1.05112,0.63073 2.42709,1.14291 4.12891,1.53711 1.70181,0.39421 3.42977,0.5918 5.18164,0.5918 2.27743,0 4.21665,-0.32932 5.81836,-0.98633 1.60171,-0.65701 2.80266,-1.53685 3.60351,-2.64062 0.80086,-1.10378 1.20118,-2.32572 1.20118,-3.66602 0,-1.76078 -0.45061,-3.11445 -1.35157,-4.06055 -0.87593,-0.94609 -1.90187,-1.58999 -3.07812,-1.93164 -1.15123,-0.34164 -2.5654,-0.61788 -4.24219,-0.82812 -1.07615,-0.1314 -1.8647,-0.26313 -2.36523,-0.39453 -0.50054,-0.15769 -0.75,-0.40641 -0.75,-0.74805 0,-0.68329 0.92537,-1.02539 2.77734,-1.02539 2.15229,0 4.12972,0.52496 5.93164,1.57617 l 2.32813,-5.87305 c -1.05112,-0.57816 -2.32848,-1.01169 -3.83008,-1.30078 -1.47658,-0.31536 -2.98936,-0.47265 -4.54102,-0.47265 z m 22.22266,0 c -2.20235,0 -4.19186,0.47187 -5.96875,1.41797 -1.75187,0.94609 -3.13992,2.27419 -4.16602,3.98242 -1.00106,1.68194 -1.50195,3.59891 -1.50195,5.7539 0,2.12871 0.51297,4.04764 1.53906,5.75586 1.0261,1.70823 2.47652,3.04911 4.35352,4.02149 1.877,0.94609 4.05556,1.41992 6.5332,1.41992 3.97924,0 6.97052,-1.15803 8.97266,-3.4707 l -4.42969,-4.68946 c -0.72577,0.57817 -1.40168,0.98418 -2.02734,1.22071 -0.60064,0.23652 -1.35295,0.35546 -2.25391,0.35546 -1.05112,0 -1.92621,-0.21037 -2.62695,-0.63086 -0.70075,-0.44676 -1.20164,-1.07788 -1.50196,-1.89257 h 14.26563 c 0.0751,-1.26146 0.11328,-1.95845 0.11328,-2.08985 0,-2.33895 -0.51297,-4.3493 -1.53906,-6.03125 -1.00107,-1.68194 -2.36496,-2.95501 -4.0918,-3.82226 -1.70181,-0.86725 -3.59271,-1.30078 -5.66992,-1.30078 z m 28.23047,0 c -1.22631,0 -2.3649,0.21037 -3.41602,0.63086 -1.05112,0.42048 -1.97649,1.04965 -2.77734,1.89062 v -2.12891 h -8.07227 v 21.56446 h 8.48438 v -10.13086 c 0,-1.49798 0.28766,-2.59015 0.86328,-3.27344 0.60064,-0.70957 1.37711,-1.06445 2.32812,-1.06445 1.67679,0 2.51563,1.23668 2.51563,3.70703 v 10.76172 h 8.48242 v -12.30078 c 0,-3.23249 -0.77452,-5.64886 -2.32617,-7.25196 -1.52663,-1.6031 -3.55434,-2.40429 -6.08203,-2.40429 z m 50.79101,0 c -1.65176,0 -3.3154,0.22315 -4.99219,0.66992 -1.65176,0.42048 -3.06593,1.01131 -4.24218,1.77344 l 2.70312,5.87304 c 0.67572,-0.5256 1.48844,-0.93162 2.43946,-1.2207 0.95101,-0.31536 1.89041,-0.47461 2.8164,-0.47461 2.30246,0 3.5919,0.84149 3.86719,2.52344 h -3.41797 c -3.15336,0 -5.50499,0.55247 -7.05664,1.65625 -1.55165,1.10377 -2.32812,2.71894 -2.32812,4.84765 0,1.26146 0.28766,2.40476 0.86328,3.42969 0.60064,0.99865 1.46559,1.79985 2.59179,2.4043 1.15123,0.57817 2.53928,0.86914 4.16602,0.86914 2.90309,0 4.84232,-1.07939 5.81836,-3.23438 v 2.83985 h 7.88476 v -11.58985 c 0,-3.52156 -0.95148,-6.12469 -2.85351,-7.80664 -1.90203,-1.70822 -4.65593,-2.56054 -8.25977,-2.56054 z m -21.43554,0.39257 v 21.56446 h 8.48437 v -21.56446 z m -57.50977,5.67774 c 0.87593,0 1.60017,0.2615 2.17578,0.78711 0.57561,0.49932 0.95177,1.19631 1.12695,2.08984 h -6.60742 c 0.17519,-0.91981 0.55134,-1.62958 1.12696,-2.1289 0.57561,-0.49933 1.3018,-0.74805 2.17773,-0.74805 z m 79.4707,7.37109 h 2.10352 v 1.49805 c -0.22524,0.68329 -0.57528,1.19546 -1.05078,1.53711 -0.47551,0.34164 -1.0146,0.51367 -1.61524,0.51367 -0.62566,0 -1.12655,-0.15924 -1.50195,-0.47461 -0.35037,-0.34164 -0.52539,-0.76044 -0.52539,-1.25976 0,-1.2089 0.863,-1.81446 2.58984,-1.81446 z"
       transform="scale(0.26458333)" />
  </g>
</svg>
