<?xml version="1.0" encoding="UTF-8" standalone="no"?>
<!-- Created with Inkscape (http://www.inkscape.org/) -->

<svg
   width="54.254051mm"
   height="14.066843mm"
   viewBox="0 0 54.254051 14.066843"
   version="1.1"
   id="svg5918"
   sodipodi:docname="osnet-premium.svg"
   inkscape:version="1.1 (c68e22c387, 2021-05-23)"
   xmlns:inkscape="http://www.inkscape.org/namespaces/inkscape"
   xmlns:sodipodi="http://sodipodi.sourceforge.net/DTD/sodipodi-0.dtd"
   xmlns="http://www.w3.org/2000/svg"
   xmlns:svg="http://www.w3.org/2000/svg">
  <sodipodi:namedview
     id="namedview5920"
     pagecolor="#ffffff"
     bordercolor="#666666"
     borderopacity="1.0"
     inkscape:pageshadow="2"
     inkscape:pageopacity="0.0"
     inkscape:pagecheckerboard="0"
     inkscape:document-units="mm"
     showgrid="false"
     inkscape:zoom="0.67081229"
     inkscape:cx="-131.9296"
     inkscape:cy="130.43887"
     inkscape:window-width="1920"
     inkscape:window-height="1009"
     inkscape:window-x="-8"
     inkscape:window-y="-8"
     inkscape:window-maximized="1"
     inkscape:current-layer="layer1"
     fit-margin-top="0"
     fit-margin-left="0"
     fit-margin-right="0"
     fit-margin-bottom="0" />
  <defs
     id="defs5915" />
  <g
     inkscape:label="Capa 1"
     inkscape:groupmode="layer"
     id="layer1"
     transform="translate(69.636576,-99.955137)">
    <path
       id="text72050"
       style="font-style:normal;font-variant:normal;font-weight:900;font-stretch:normal;font-size:11.4726px;line-height:1.25;font-family:Montserrat;-inkscape-font-specification:'Montserrat Heavy';letter-spacing:0px;word-spacing:0px;fill:#ffffff;fill-opacity:1;stroke:none;stroke-width:1.08403"
       d="m -147.84375,377.7832 c -2.27352,0 -4.31497,0.49782 -6.12305,1.49414 -1.79017,0.99633 -3.19444,2.39847 -4.21484,4.20313 -1.0025,1.78586 -1.50391,3.82572 -1.50391,6.11914 0,1.72946 0.38452,3.26101 1.1543,4.5957 0.78768,1.3347 1.89794,2.37697 3.33008,3.12891 1.45004,0.73314 3.13334,1.09961 5.04883,1.09961 2.27352,0 4.30552,-0.49782 6.0957,-1.49414 1.80808,-0.99632 3.21234,-2.38602 4.21484,-4.17188 1.0204,-1.80466 1.53125,-3.85501 1.53125,-6.14843 0,-1.72947 -0.39396,-3.26101 -1.18164,-4.59571 -0.76977,-1.33469 -1.88003,-2.36842 -3.33008,-3.10156 -1.43214,-0.75194 -3.10599,-1.12891 -5.02148,-1.12891 z m 21.05273,0 c -1.95129,0 -3.64403,0.31129 -5.07617,0.93164 -1.43214,0.60156 -2.53296,1.46584 -3.30273,2.59375 -0.75188,1.10912 -1.12696,2.40554 -1.12696,3.89063 0,1.18431 0.30345,2.14381 0.91211,2.87695 0.62657,0.71435 1.3523,1.25025 2.17579,1.60742 0.82348,0.33838 1.86211,0.67726 3.11523,1.01563 0.94879,0.24438 1.63676,0.469 2.06641,0.67578 0.44754,0.20678 0.67187,0.47999 0.67187,0.81836 0,0.35717 -0.21489,0.63892 -0.64453,0.8457 -0.42964,0.20679 -1.04598,0.31055 -1.85156,0.31055 -2.20192,0 -4.31499,-0.61208 -6.33789,-1.83399 l -1.28516,2.57813 c -1.29657,0.1497 -2.39212,0.60543 -3.26172,1.39844 -1.04375,0.94792 -1.56445,2.16145 -1.56445,3.64258 0,1.48112 0.5207,2.70995 1.56445,3.6875 1.07196,0.94792 2.46868,1.42187 4.18945,1.42187 1.74899,0 3.14571,-0.4873 4.18946,-1.46484 1.04375,-1.00717 1.5664,-2.2819 1.5664,-3.82227 0,-0.18564 -0.0103,-0.36605 -0.0273,-0.54297 0.10804,0.002 0.21335,0.01 0.32227,0.01 1.93339,0 3.61473,-0.30079 5.04687,-0.90235 1.43214,-0.62035 2.53296,-1.48463 3.30274,-2.59375 0.76977,-1.10911 1.15625,-2.39699 1.15625,-3.86328 0,-1.16551 -0.30541,-2.10401 -0.91407,-2.81836 -0.60866,-0.71434 -1.3344,-1.2417 -2.17578,-1.58007 -0.82348,-0.33838 -1.84323,-0.65821 -3.06054,-0.95899 -1.0025,-0.24438 -1.72824,-0.469 -2.17579,-0.67578 -0.42964,-0.20678 -0.64257,-0.48853 -0.64257,-0.8457 0,-0.35718 0.24126,-0.66846 0.7246,-0.93164 0.48335,-0.26318 1.16383,-0.39453 2.04102,-0.39453 0.93089,0 1.83375,0.1228 2.71094,0.36718 0.89509,0.24438 1.70939,0.61085 2.44336,1.09961 l 2.2832,-4.84961 c -0.87719,-0.54515 -1.92526,-0.96021 -3.14258,-1.24218 -1.19942,-0.30078 -2.49624,-0.45118 -3.89258,-0.45118 z m 10.23047,0.45118 -3.75976,19.73828 h 6.17578 l 1.74609,-9.19141 5.39844,9.19141 h 5.20898 l 3.75977,-19.73828 h -6.17773 l -1.74414,9.19335 -5.39844,-9.19335 z m 21.589847,0 -3.759766,19.73828 h 15.628907 l 0.966796,-5.01758 h -9.425781 l 0.482422,-2.5957 h 7.976563 l 0.912109,-4.79297 h -7.947266 l 0.429688,-2.3125 h 9.048828 l 0.966797,-5.01953 z m 16.648437,0 -0.99414,5.16015 h 5.505859 l -2.765625,14.57813 h 6.335938 l 2.765625,-14.57813 h 5.505859 l 0.994141,-5.16015 z m -70.058594,4.93554 c 1.14571,0 2.04108,0.34743 2.68555,1.04297 0.66236,0.69555 0.99414,1.62551 0.99414,2.79102 0,1.09031 -0.19796,2.09645 -0.5918,3.01757 -0.39384,0.92113 -0.96687,1.65407 -1.71875,2.19922 -0.73397,0.54516 -1.60102,0.81836 -2.60351,0.81836 -1.14572,0 -2.05053,-0.34742 -2.71289,-1.04297 -0.64447,-0.69554 -0.9668,-1.62746 -0.9668,-2.79297 0,-1.09031 0.196,-2.09449 0.58984,-3.01562 0.39384,-0.92113 0.95939,-1.65406 1.69336,-2.19922 0.75188,-0.54516 1.62836,-0.81836 2.63086,-0.81836 z m -114.8125,16.23242 v 31.10352 h 9.98633 v -7.64258 h 4.27539 c 2.73631,0 5.11931,-0.47395 7.15039,-1.42187 2.03108,-0.94792 3.5971,-2.31054 4.69727,-4.08789 1.10016,-1.77736 1.65039,-3.85091 1.65039,-6.22071 0,-2.3698 -0.55023,-4.44335 -1.65039,-6.2207 -1.10017,-1.77735 -2.66619,-3.13997 -4.69727,-4.08789 -2.03108,-0.94792 -4.41408,-1.42188 -7.15039,-1.42188 z m 47.73047,6.35352 c -3.3005,0 -5.79572,1.02245 -7.48828,3.06641 v -2.62305 h -9.09766 v 24.30664 h 9.5625 v -10.79883 c 0,-3.49546 1.63591,-5.24219 4.90821,-5.24219 0.64881,0 1.35358,0.0593 2.11523,0.17774 z m 14.38672,0 c -2.48243,0 -4.7237,0.5332 -6.72656,1.59961 -1.97466,1.06641 -3.54068,2.56282 -4.69727,4.48828 -1.12838,1.89584 -1.69336,4.05728 -1.69336,6.48633 0,2.39942 0.57974,4.56281 1.73633,6.48828 1.15658,1.92546 2.7925,3.43522 4.9082,4.53125 2.11571,1.06641 4.5686,1.59961 7.36133,1.59961 4.4853,0 7.85653,-1.30337 10.11328,-3.91016 l -4.99219,-5.28711 c -0.81807,0.6517 -1.57992,1.11035 -2.28515,1.37696 -0.67703,0.2666 -1.52353,0.40039 -2.53906,0.40039 -1.1848,0 -2.17303,-0.23698 -2.9629,-0.71094 -0.78986,-0.50358 -1.35289,-1.21451 -1.6914,-2.13281 h 16.07812 c 0.0846,-1.42188 0.12696,-2.20736 0.12696,-2.35547 0,-2.63641 -0.57779,-4.90299 -1.73438,-6.79883 -1.12838,-1.89584 -2.66488,-3.33105 -4.61133,-4.30859 -1.91824,-0.97755 -4.04924,-1.4668 -6.39062,-1.4668 z m 31.39844,0 c -2.65169,0 -4.83782,0.90396 -6.5586,2.71094 v -2.26758 h -9.09765 v 24.30664 h 9.5625 v -11.86524 c 0,-1.54037 0.2687,-2.66601 0.80468,-3.37695 0.56419,-0.71094 1.29652,-1.0664 2.19922,-1.0664 1.72078,0 2.58203,1.39321 2.58203,4.17773 v 12.13086 h 9.5625 v -11.86524 c 0,-1.54037 0.26871,-2.66601 0.80469,-3.37695 0.56419,-0.71094 1.29652,-1.0664 2.19922,-1.0664 1.72077,0 2.58203,1.39321 2.58203,4.17773 v 12.13086 h 9.5625 v -13.86328 c 0,-3.64357 -0.8465,-6.36881 -2.53906,-8.17578 -1.66436,-1.80698 -3.89282,-2.71094 -6.68555,-2.71094 -1.57973,0 -3.03158,0.32487 -4.35742,0.97656 -1.32584,0.62207 -2.45581,1.52604 -3.38672,2.71094 -0.78986,-1.24415 -1.80566,-2.16146 -3.04687,-2.75391 -1.24122,-0.62207 -2.63599,-0.93359 -4.1875,-0.93359 z m 87.335933,0 c -2.651685,0 -4.837819,0.90396 -6.558594,2.71094 v -2.26758 h -9.097656 v 24.30664 h 9.5625 v -11.86524 c 0,-1.54037 0.268709,-2.66601 0.804688,-3.37695 0.564188,-0.71094 1.296517,-1.0664 2.199218,-1.0664 1.720775,0 2.582032,1.39321 2.582032,4.17773 v 12.13086 h 9.5625 v -11.86524 c 0,-1.54037 0.268708,-2.66601 0.804687,-3.37695 0.564188,-0.71094 1.296518,-1.0664 2.199219,-1.0664 1.720774,0 2.582031,1.39321 2.582031,4.17773 v 12.13086 h 9.5625 v -13.86328 c 0,-3.64357 -0.846497,-6.36881 -2.539062,-8.17578 -1.664356,-1.80698 -3.892815,-2.71094 -6.685547,-2.71094 -1.579727,0 -3.03158,0.32487 -4.357422,0.97656 -1.325843,0.62207 -2.455808,1.52604 -3.386719,2.71094 -0.789863,-1.24415 -1.803707,-2.16146 -3.044922,-2.75391 -1.241214,-0.62207 -2.637935,-0.93359 -4.189453,-0.93359 z m -58.986323,0.44336 v 24.30664 h 9.5625 v -24.30664 z m 13.70898,0 v 13.41992 c 0,3.79168 0.88882,6.63541 2.66602,8.53125 1.77719,1.86622 4.13262,2.79883 7.0664,2.79883 1.26942,0 2.46928,-0.22168 3.59766,-0.66602 1.12837,-0.47396 2.11465,-1.16959 2.96094,-2.08789 v 2.31055 h 9.09765 v -24.30664 h -9.5625 v 11.41992 c 0,1.68848 -0.31103,2.93261 -0.93164,3.73242 -0.62061,0.77019 -1.39526,1.15625 -2.32617,1.15625 -0.98733,0 -1.73442,-0.35546 -2.24219,-1.0664 -0.50777,-0.71094 -0.76172,-1.89583 -0.76172,-3.55469 v -11.6875 z m -125.58789,1.28906 h 3.64062 c 1.35406,0 2.3679,0.32682 3.04493,0.97852 0.67702,0.62207 1.01562,1.51073 1.01562,2.66601 0,1.15528 -0.3386,2.05729 -1.01562,2.70899 -0.67703,0.62207 -1.69087,0.93359 -3.04493,0.93359 h -3.64062 z m 52.2168,5.10938 c 0.98733,0 1.8043,0.29622 2.45312,0.88867 0.64882,0.56283 1.07207,1.3483 1.26953,2.35547 h -7.44726 c 0.19746,-1.03679 0.62071,-1.83561 1.26953,-2.39844 0.64881,-0.56283 1.46775,-0.8457 2.45508,-0.8457 z"
       transform="scale(0.26458333)" />
  </g>
</svg>
