<?xml version="1.0" encoding="UTF-8" standalone="no"?>
<!-- Created with Inkscape (http://www.inkscape.org/) -->

<svg
   xmlns:dc="http://purl.org/dc/elements/1.1/"
   xmlns:cc="http://creativecommons.org/ns#"
   xmlns:rdf="http://www.w3.org/1999/02/22-rdf-syntax-ns#"
   xmlns:svg="http://www.w3.org/2000/svg"
   xmlns="http://www.w3.org/2000/svg"
   xmlns:sodipodi="http://sodipodi.sourceforge.net/DTD/sodipodi-0.dtd"
   xmlns:inkscape="http://www.inkscape.org/namespaces/inkscape"
   width="35.870701mm"
   height="15.446603mm"
   viewBox="0 0 35.870701 15.446603"
   version="1.1"
   id="svg2140"
   sodipodi:docname="osnet-speed.svg"
   inkscape:version="0.92.4 (5da689c313, 2019-01-14)">
  <defs
     id="defs2134" />
  <sodipodi:namedview
     id="base"
     pagecolor="#ffffff"
     bordercolor="#666666"
     borderopacity="1.0"
     inkscape:pageopacity="0.0"
     inkscape:pageshadow="2"
     inkscape:zoom="0.49497475"
     inkscape:cx="229.46057"
     inkscape:cy="-203.21303"
     inkscape:document-units="mm"
     inkscape:current-layer="layer1"
     showgrid="false"
     inkscape:window-width="1366"
     inkscape:window-height="705"
     inkscape:window-x="-8"
     inkscape:window-y="-8"
     inkscape:window-maximized="1"
     fit-margin-top="0"
     fit-margin-left="0"
     fit-margin-right="0"
     fit-margin-bottom="0" />
  <metadata
     id="metadata2137">
    <rdf:RDF>
      <cc:Work
         rdf:about="">
        <dc:format>image/svg+xml</dc:format>
        <dc:type
           rdf:resource="http://purl.org/dc/dcmitype/StillImage" />
        <dc:title></dc:title>
      </cc:Work>
    </rdf:RDF>
  </metadata>
  <g
     inkscape:label="Capa 1"
     inkscape:groupmode="layer"
     id="layer1"
     transform="translate(368.89687,-130.01894)">
    <path
       style="font-style:normal;font-variant:normal;font-weight:900;font-stretch:normal;font-size:11.13159466px;line-height:1.25;font-family:Montserrat;-inkscape-font-specification:'Montserrat Heavy';letter-spacing:0px;word-spacing:0px;fill:#ffffff;fill-opacity:1;stroke:none;stroke-width:1.05180407"
       d="m -1347.0566,491.41016 c -2.128,0 -4.0381,0.46585 -5.7305,1.39843 -1.6756,0.93254 -2.9902,2.2444 -3.9453,3.9336 -0.9384,1.67153 -1.4082,3.57989 -1.4082,5.72656 0,1.61877 0.3595,3.05345 1.0801,4.30273 0.7372,1.24929 1.7766,2.22587 3.1171,2.92969 1.3573,0.68621 2.9318,1.0293 4.7246,1.0293 2.1281,0 4.0295,-0.46588 5.7051,-1.39844 1.6924,-0.93256 3.0089,-2.23469 3.9473,-3.90625 0.9551,-1.68917 1.4316,-3.60727 1.4316,-5.7539 0,-1.6188 -0.3682,-3.05348 -1.1054,-4.30274 -0.7205,-1.24928 -1.7599,-2.21611 -3.1172,-2.90234 -1.3405,-0.70383 -2.9063,-1.05664 -4.6992,-1.05664 z m 19.6972,0 c -1.8264,0 -3.4114,0.29043 -4.7519,0.87109 -1.3405,0.56305 -2.3694,1.37201 -3.0899,2.42773 -0.7037,1.03814 -1.0566,2.25252 -1.0566,3.64258 0,1.10851 0.2857,2.00517 0.8555,2.69141 0.5864,0.6686 1.2643,1.17152 2.0351,1.50586 0.7708,0.3167 1.7431,0.63247 2.916,0.94922 0.8881,0.22851 1.5334,0.43905 1.9356,0.63281 0.4189,0.19356 0.6269,0.44893 0.6269,0.76562 0,0.33437 -0.1994,0.59946 -0.6015,0.79297 -0.4022,0.19377 -0.9804,0.28907 -1.7344,0.28907 -2.061,0 -4.0383,-0.57114 -5.9316,-1.71485 l -2.2872,4.5918 c 0.8714,0.56307 1.9759,1.02115 3.3164,1.37305 1.3405,0.33431 2.7741,0.50195 4.2989,0.50195 1.8096,0 3.3841,-0.28266 4.7246,-0.8457 1.3405,-0.58067 2.3713,-1.38963 3.0918,-2.42774 0.7205,-1.03813 1.0801,-2.24279 1.0801,-3.61523 0,-1.09093 -0.2838,-1.97198 -0.8536,-2.64063 -0.5696,-0.66862 -1.2495,-1.15986 -2.0371,-1.47656 -0.7707,-0.31675 -1.7258,-0.61691 -2.8652,-0.89844 -0.9383,-0.22851 -1.6162,-0.43905 -2.0352,-0.63281 -0.4021,-0.19356 -0.6035,-0.4567 -0.6035,-0.79102 0,-0.33421 0.2273,-0.62466 0.6797,-0.87109 0.4525,-0.24643 1.0891,-0.37109 1.9102,-0.37109 0.8713,0 1.716,0.11496 2.5371,0.34375 0.8378,0.22873 1.6001,0.57182 2.2871,1.02929 l 2.1367,-4.53906 c -0.821,-0.51026 -1.8,-0.89817 -2.9394,-1.16211 -1.1227,-0.28155 -2.3376,-0.42187 -3.6446,-0.42187 z m 9.5567,0.42187 -3.5196,18.47656 h 5.7813 l 1.6348,-8.60547 5.0507,8.60547 h 4.877 l 3.5176,-18.47656 h -5.7793 l -1.6348,8.60547 -5.0527,-8.60547 z m 20.2246,0 -3.5176,18.47656 h 14.6269 l 0.9043,-4.69921 h -8.8203 l 0.4512,-2.42774 h 7.4648 l 0.8555,-4.48633 h -7.4394 l 0.4004,-2.16406 h 8.4707 l 0.9043,-4.69922 z m 15.6035,0 -0.9297,4.83008 h 5.1523 l -2.5878,13.64648 h 5.9316 l 2.5879,-13.64648 h 5.1523 l 0.9317,-4.83008 z m -65.584,4.61914 c 1.0724,0 1.9085,0.3255 2.5117,0.97656 0.62,0.65104 0.9317,1.52239 0.9317,2.61329 0,1.02054 -0.1841,1.96203 -0.5528,2.82421 -0.3686,0.86217 -0.9056,1.54834 -1.6093,2.0586 -0.687,0.51028 -1.4992,0.76562 -2.4375,0.76562 -1.0724,0 -1.9191,-0.32552 -2.5391,-0.97656 -0.6032,-0.65101 -0.9043,-1.52233 -0.9043,-2.61328 0,-1.02055 0.1841,-1.96206 0.5527,-2.82422 0.3687,-0.86219 0.895,-1.54833 1.5821,-2.05859 0.7037,-0.51029 1.5265,-0.76563 2.4648,-0.76563 z m 79.5977,12.98633 v 10.00195 c -1.3139,-1.35088 -3.2163,-2.02734 -5.7071,-2.02734 -1.9707,0 -3.7913,0.50381 -5.4609,1.50977 -1.6423,0.97722 -2.9561,2.39933 -3.9414,4.26757 -0.958,1.83947 -1.4356,3.98074 -1.4356,6.42383 0,2.44306 0.4776,4.59855 1.4356,6.4668 0.9853,1.86822 2.2991,3.30651 3.9414,4.3125 1.6696,0.97723 3.4902,1.46484 5.4609,1.46484 2.7645,0 4.8171,-0.79027 6.1582,-2.37109 v 1.93945 h 8.8282 V 509.4375 Z m -112.459,1.12109 c -2.874,0 -5.3242,0.44493 -7.3496,1.33594 -1.9981,0.89101 -3.5029,2.11199 -4.5157,3.66406 -1.0127,1.55205 -1.5195,3.27684 -1.5195,5.17383 0,2.18439 0.5478,3.92342 1.6426,5.2168 1.0948,1.26465 2.3813,2.18492 3.8594,2.75976 1.478,0.5461 3.3239,1.06217 5.541,1.55079 1.7244,0.37364 2.9563,0.71898 3.6953,1.03515 0.7664,0.31617 1.1504,0.79152 1.1504,1.42383 0,0.54609 -0.2885,0.96255 -0.8633,1.25 -0.5748,0.25867 -1.5319,0.38672 -2.873,0.38672 -1.5602,0 -3.1878,-0.24381 -4.8848,-0.73242 -1.697,-0.51734 -3.2311,-1.19186 -4.5996,-2.02539 l -3.1192,7.41406 c 1.4507,0.94851 3.2966,1.71031 5.5411,2.28516 2.2717,0.54608 4.5991,0.82031 6.9804,0.82031 2.874,0 5.3106,-0.44688 7.3086,-1.33789 2.0255,-0.91974 3.5439,-2.14071 4.5567,-3.66407 1.0127,-1.55205 1.5195,-3.27683 1.5195,-5.17382 0,-2.18439 -0.5614,-3.90918 -1.6836,-5.17383 -1.0948,-1.26463 -2.395,-2.16873 -3.9004,-2.71485 -1.5054,-0.57481 -3.3533,-1.07862 -5.543,-1.50976 -1.697,-0.3449 -2.9152,-0.6618 -3.6543,-0.94922 -0.739,-0.31617 -1.1074,-0.77532 -1.1074,-1.37891 0,-1.26465 1.2456,-1.89648 3.7363,-1.89648 2.5181,0 5.1867,0.74759 8.0059,2.24219 l 2.9141,-7.37305 c -1.4507,-0.86226 -3.1329,-1.50834 -5.0489,-1.93945 -1.8886,-0.4599 -3.8183,-0.68946 -5.789,-0.68946 z m 29.6113,6.85352 c -2.7644,0 -4.817,0.79029 -6.1582,2.37109 v -1.93945 h -8.8281 v 31.94727 h 9.2793 v -9.95899 c 1.3138,1.35091 3.2163,2.02539 5.707,2.02539 1.9707,0 3.7777,-0.48761 5.4199,-1.46484 1.6696,-1.00599 2.9835,-2.43006 3.9414,-4.26953 0.9854,-1.86825 1.4766,-4.02374 1.4766,-6.4668 0,-2.44309 -0.4912,-4.59858 -1.4766,-6.4668 -0.9579,-1.86824 -2.2718,-3.29035 -3.9414,-4.26757 -1.6422,-1.00596 -3.4492,-1.50977 -5.4199,-1.50977 z m 25.2578,0 c -2.4086,0 -4.584,0.51803 -6.5273,1.55273 -1.916,1.03471 -3.4345,2.4853 -4.5567,4.35352 -1.0948,1.83952 -1.6425,3.93808 -1.6425,6.29492 0,2.32811 0.5614,4.4267 1.6835,6.29492 1.1222,1.86822 2.7089,3.33498 4.7618,4.39844 2.0528,1.03473 4.4348,1.55078 7.1445,1.55078 4.352,0 7.6228,-1.26366 9.8125,-3.79297 l -4.8457,-5.13086 c -0.7937,0.63232 -1.5325,1.07727 -2.2168,1.33594 -0.6569,0.25867 -1.4775,0.38867 -2.4629,0.38867 -1.1495,0 -2.1067,-0.22961 -2.873,-0.68945 -0.7664,-0.48864 -1.3142,-1.17933 -1.6426,-2.07031 h 15.6015 c 0.082,-1.37945 0.1231,-2.14128 0.1231,-2.28516 0,-2.55806 -0.5614,-4.75621 -1.6836,-6.5957 -1.0948,-1.83947 -2.586,-3.23316 -4.4746,-4.18164 -1.8613,-0.94849 -3.9294,-1.42383 -6.2012,-1.42383 z m 26.7832,0 c -2.4086,0 -4.584,0.51803 -6.5273,1.55273 -1.916,1.03471 -3.4344,2.4853 -4.5567,4.35352 -1.0948,1.83952 -1.6425,3.93808 -1.6425,6.29492 0,2.32811 0.5614,4.4267 1.6836,6.29492 1.1222,1.86822 2.7088,3.33498 4.7617,4.39844 2.0528,1.03473 4.4348,1.55078 7.1445,1.55078 4.352,0 7.6228,-1.26366 9.8125,-3.79297 l -4.8457,-5.13086 c -0.7938,0.63232 -1.5325,1.07727 -2.2168,1.33594 -0.6569,0.25867 -1.4775,0.38867 -2.4629,0.38867 -1.1496,0 -2.1086,-0.22961 -2.875,-0.68945 -0.7664,-0.48864 -1.3141,-1.17933 -1.6426,-2.07031 h 15.6016 c 0.082,-1.37945 0.125,-2.14128 0.125,-2.28516 v 0 c 0,-2.55806 -0.5594,-4.75621 -1.6816,-6.5957 -1.0949,-1.83947 -2.588,-3.23316 -4.4766,-4.18164 -1.8612,-0.94849 -3.9274,-1.42383 -6.1992,-1.42383 z m -26.7012,6.64062 c 0.958,0 1.7533,0.28649 2.3829,0.86133 0.6296,0.54609 1.0389,1.3079 1.2304,2.28516 h -7.2246 c 0.1916,-1.00599 0.6009,-1.78203 1.2305,-2.32813 0.6295,-0.54611 1.423,-0.81836 2.3808,-0.81836 z m 26.7833,0 c 0.9579,0 1.7513,0.28649 2.3808,0.86133 0.6297,0.54609 1.0409,1.3079 1.2324,2.28516 h -7.2265 c 0.1916,-1.00599 0.6029,-1.78203 1.2324,-2.32813 0.6295,-0.54611 1.4229,-0.81836 2.3809,-0.81836 z M -1353.0254,525 c 1.0675,0 1.9427,0.41649 2.627,1.25 0.6842,0.80479 1.0273,1.9404 1.0273,3.40625 0,1.46583 -0.3431,2.60149 -1.0273,3.40625 -0.6843,0.80479 -1.5595,1.20703 -2.627,1.20703 -1.0675,0 -1.9446,-0.40224 -2.6289,-1.20703 -0.6843,-0.80476 -1.0254,-1.94042 -1.0254,-3.40625 0,-1.46585 0.3411,-2.60146 1.0254,-3.40625 0.6843,-0.83351 1.5614,-1.25 2.6289,-1.25 z m 81.5742,0 c 1.0675,0 1.9447,0.40227 2.6289,1.20703 0.6843,0.80481 1.0254,1.94042 1.0254,3.40625 0,1.46585 -0.3411,2.61573 -1.0254,3.44922 -0.6842,0.80479 -1.5614,1.20703 -2.6289,1.20703 -1.0674,0 -1.9427,-0.40224 -2.6269,-1.20703 -0.6843,-0.83349 -1.0274,-1.98337 -1.0274,-3.44922 0,-1.46583 0.3431,-2.60144 1.0274,-3.40625 0.6842,-0.80476 1.5595,-1.20703 2.6269,-1.20703 z"
       transform="scale(0.26458333)"
       id="path2758"
       inkscape:connector-curvature="0" />
  </g>
</svg>
